%FSLAX45Y45*%
G04 Gerber Fmt 4.5, Leading zero omitted, Abs format (unit mm)*
G04 Created by KiCad (PCBNEW 4.0.5) date 03/02/17 14:55:25*
%MOMM*%
%LPD*%
G01*
G04 APERTURE LIST*
%ADD10C,0.127000*%
%ADD11C,0.150000*%
%ADD12C,0.200000*%
%ADD13C,0.300000*%
G04 APERTURE END LIST*
D10*
D11*
X4600000Y-15100000D02*
X4600000Y-3100000D01*
X16600000Y-15100000D02*
X4600000Y-15100000D01*
X16600000Y-3100000D02*
X16600000Y-15100000D01*
X4600000Y-3100000D02*
X16600000Y-3100000D01*
D12*
X6482400Y-7498400D02*
X6522400Y-7538400D01*
X6522400Y-7498400D02*
X6482400Y-7538400D01*
X6622100Y-7765100D02*
X6662100Y-7805100D01*
X6662100Y-7765100D02*
X6622100Y-7805100D01*
X7060250Y-12241850D02*
X7100250Y-12281850D01*
X7100250Y-12241850D02*
X7060250Y-12281850D01*
X7193600Y-12045000D02*
X7233600Y-12085000D01*
X7233600Y-12045000D02*
X7193600Y-12085000D01*
X7561900Y-7498400D02*
X7601900Y-7538400D01*
X7601900Y-7498400D02*
X7561900Y-7538400D01*
X7727000Y-7752400D02*
X7767000Y-7792400D01*
X7767000Y-7752400D02*
X7727000Y-7792400D01*
X8057200Y-8743000D02*
X8097200Y-8783000D01*
X8097200Y-8743000D02*
X8057200Y-8783000D01*
X8184200Y-11613200D02*
X8224200Y-11653200D01*
X8224200Y-11613200D02*
X8184200Y-11653200D01*
X8285800Y-11613200D02*
X8325800Y-11653200D01*
X8325800Y-11613200D02*
X8285800Y-11653200D01*
X8336600Y-11283000D02*
X8376600Y-11323000D01*
X8376600Y-11283000D02*
X8336600Y-11323000D01*
X8438200Y-11283000D02*
X8478200Y-11323000D01*
X8478200Y-11283000D02*
X8438200Y-11323000D01*
X8519480Y-9886000D02*
X8559480Y-9926000D01*
X8559480Y-9886000D02*
X8519480Y-9926000D01*
X8590600Y-11410000D02*
X8630600Y-11450000D01*
X8630600Y-11410000D02*
X8590600Y-11450000D01*
X8616000Y-9898700D02*
X8656000Y-9938700D01*
X8656000Y-9898700D02*
X8616000Y-9938700D01*
X8704900Y-11524300D02*
X8744900Y-11564300D01*
X8744900Y-11524300D02*
X8704900Y-11564300D01*
X8730300Y-9898700D02*
X8770300Y-9938700D01*
X8770300Y-9898700D02*
X8730300Y-9938700D01*
X8793800Y-7904800D02*
X8833800Y-7944800D01*
X8833800Y-7904800D02*
X8793800Y-7944800D01*
X8831900Y-12172000D02*
X8871900Y-12212000D01*
X8871900Y-12172000D02*
X8831900Y-12212000D01*
X8844600Y-9898700D02*
X8884600Y-9938700D01*
X8884600Y-9898700D02*
X8844600Y-9938700D01*
X8870000Y-7574600D02*
X8910000Y-7614600D01*
X8910000Y-7574600D02*
X8870000Y-7614600D01*
X8971600Y-9962200D02*
X9011600Y-10002200D01*
X9011600Y-9962200D02*
X8971600Y-10002200D01*
X8971600Y-10394000D02*
X9011600Y-10434000D01*
X9011600Y-10394000D02*
X8971600Y-10434000D01*
X8971600Y-10521000D02*
X9011600Y-10561000D01*
X9011600Y-10521000D02*
X8971600Y-10561000D01*
X9022400Y-9860600D02*
X9062400Y-9900600D01*
X9062400Y-9860600D02*
X9022400Y-9900600D01*
X9111300Y-12172000D02*
X9151300Y-12212000D01*
X9151300Y-12172000D02*
X9111300Y-12212000D01*
X9238300Y-12591100D02*
X9278300Y-12631100D01*
X9278300Y-12591100D02*
X9238300Y-12631100D01*
X9276400Y-10394000D02*
X9316400Y-10434000D01*
X9316400Y-10394000D02*
X9276400Y-10434000D01*
X9276400Y-10521000D02*
X9316400Y-10561000D01*
X9316400Y-10521000D02*
X9276400Y-10561000D01*
X9784400Y-8692200D02*
X9824400Y-8732200D01*
X9824400Y-8692200D02*
X9784400Y-8732200D01*
X9784400Y-12172000D02*
X9824400Y-12212000D01*
X9824400Y-12172000D02*
X9784400Y-12212000D01*
X9797100Y-9981250D02*
X9837100Y-10021250D01*
X9837100Y-9981250D02*
X9797100Y-10021250D01*
X9807260Y-9809800D02*
X9847260Y-9849800D01*
X9847260Y-9809800D02*
X9807260Y-9849800D01*
X9926640Y-8765860D02*
X9966640Y-8805860D01*
X9966640Y-8765860D02*
X9926640Y-8805860D01*
X9936800Y-7879400D02*
X9976800Y-7919400D01*
X9976800Y-7879400D02*
X9936800Y-7919400D01*
X10013000Y-7549200D02*
X10053000Y-7589200D01*
X10053000Y-7549200D02*
X10013000Y-7589200D01*
X10038400Y-11016300D02*
X10078400Y-11056300D01*
X10078400Y-11016300D02*
X10038400Y-11056300D01*
X10063800Y-10178100D02*
X10103800Y-10218100D01*
X10103800Y-10178100D02*
X10063800Y-10218100D01*
X10165400Y-12172000D02*
X10205400Y-12212000D01*
X10205400Y-12172000D02*
X10165400Y-12212000D01*
X10216200Y-10292400D02*
X10256200Y-10332400D01*
X10256200Y-10292400D02*
X10216200Y-10332400D01*
X10228900Y-9517700D02*
X10268900Y-9557700D01*
X10268900Y-9517700D02*
X10228900Y-9557700D01*
X10254300Y-12591100D02*
X10294300Y-12631100D01*
X10294300Y-12591100D02*
X10254300Y-12631100D01*
X10489250Y-9714550D02*
X10529250Y-9754550D01*
X10529250Y-9714550D02*
X10489250Y-9754550D01*
X10503220Y-9921560D02*
X10543220Y-9961560D01*
X10543220Y-9921560D02*
X10503220Y-9961560D01*
X10800400Y-8196900D02*
X10840400Y-8236900D01*
X10840400Y-8196900D02*
X10800400Y-8236900D01*
X10825800Y-12172000D02*
X10865800Y-12212000D01*
X10865800Y-12172000D02*
X10825800Y-12212000D01*
X11041700Y-10851200D02*
X11081700Y-10891200D01*
X11081700Y-10851200D02*
X11041700Y-10891200D01*
X11156000Y-7574600D02*
X11196000Y-7614600D01*
X11196000Y-7574600D02*
X11156000Y-7614600D01*
X11295700Y-12591100D02*
X11335700Y-12631100D01*
X11335700Y-12591100D02*
X11295700Y-12631100D01*
X11714800Y-8235000D02*
X11754800Y-8275000D01*
X11754800Y-8235000D02*
X11714800Y-8275000D01*
X11854500Y-12172000D02*
X11894500Y-12212000D01*
X11894500Y-12172000D02*
X11854500Y-12212000D01*
X12140250Y-11270300D02*
X12180250Y-11310300D01*
X12180250Y-11270300D02*
X12140250Y-11310300D01*
X12146600Y-10540050D02*
X12186600Y-10580050D01*
X12186600Y-10540050D02*
X12146600Y-10580050D01*
X12146600Y-12172000D02*
X12186600Y-12212000D01*
X12186600Y-12172000D02*
X12146600Y-12212000D01*
X12152950Y-9625650D02*
X12192950Y-9665650D01*
X12192950Y-9625650D02*
X12152950Y-9665650D01*
X12159300Y-8800150D02*
X12199300Y-8840150D01*
X12199300Y-8800150D02*
X12159300Y-8840150D01*
X12286300Y-7600000D02*
X12326300Y-7640000D01*
X12326300Y-7600000D02*
X12286300Y-7640000D01*
X12311700Y-12591100D02*
X12351700Y-12631100D01*
X12351700Y-12591100D02*
X12311700Y-12631100D01*
X12826050Y-8800150D02*
X12866050Y-8840150D01*
X12866050Y-8800150D02*
X12826050Y-8840150D01*
X12832400Y-9625650D02*
X12872400Y-9665650D01*
X12872400Y-9625650D02*
X12832400Y-9665650D01*
X12870500Y-8069900D02*
X12910500Y-8109900D01*
X12910500Y-8069900D02*
X12870500Y-8109900D01*
X12870500Y-10540050D02*
X12910500Y-10580050D01*
X12910500Y-10540050D02*
X12870500Y-10580050D01*
X12870500Y-11270300D02*
X12910500Y-11310300D01*
X12910500Y-11270300D02*
X12870500Y-11310300D01*
X12883200Y-12172000D02*
X12923200Y-12212000D01*
X12923200Y-12172000D02*
X12883200Y-12212000D01*
X13162600Y-12159300D02*
X13202600Y-12199300D01*
X13202600Y-12159300D02*
X13162600Y-12199300D01*
X13340400Y-12591100D02*
X13380400Y-12631100D01*
X13380400Y-12591100D02*
X13340400Y-12631100D01*
X13353100Y-7765100D02*
X13393100Y-7805100D01*
X13393100Y-7765100D02*
X13353100Y-7805100D01*
X13683300Y-11981500D02*
X13723300Y-12021500D01*
X13723300Y-11981500D02*
X13683300Y-12021500D01*
X13727750Y-8679500D02*
X13767750Y-8719500D01*
X13767750Y-8679500D02*
X13727750Y-8719500D01*
X13734100Y-9695500D02*
X13774100Y-9735500D01*
X13774100Y-9695500D02*
X13734100Y-9735500D01*
X13797600Y-8863650D02*
X13837600Y-8903650D01*
X13837600Y-8863650D02*
X13797600Y-8903650D01*
X13950000Y-10038400D02*
X13990000Y-10078400D01*
X13990000Y-10038400D02*
X13950000Y-10078400D01*
X14280200Y-9162100D02*
X14320200Y-9202100D01*
X14320200Y-9162100D02*
X14280200Y-9202100D01*
X14305600Y-12578400D02*
X14345600Y-12618400D01*
X14345600Y-12578400D02*
X14305600Y-12618400D01*
X14610400Y-10673400D02*
X14650400Y-10713400D01*
X14650400Y-10673400D02*
X14610400Y-10713400D01*
X14762800Y-9263700D02*
X14802800Y-9303700D01*
X14802800Y-9263700D02*
X14762800Y-9303700D01*
X14991400Y-12159300D02*
X15031400Y-12199300D01*
X15031400Y-12159300D02*
X14991400Y-12199300D01*
X15054900Y-12641900D02*
X15094900Y-12681900D01*
X15094900Y-12641900D02*
X15054900Y-12681900D01*
X15181900Y-9327200D02*
X15221900Y-9367200D01*
X15221900Y-9327200D02*
X15181900Y-9367200D01*
X15385100Y-8793800D02*
X15425100Y-8833800D01*
X15425100Y-8793800D02*
X15385100Y-8833800D01*
X15689900Y-8793800D02*
X15729900Y-8833800D01*
X15729900Y-8793800D02*
X15689900Y-8833800D01*
X15689900Y-9339900D02*
X15729900Y-9379900D01*
X15729900Y-9339900D02*
X15689900Y-9379900D01*
X15689900Y-9860600D02*
X15729900Y-9900600D01*
X15729900Y-9860600D02*
X15689900Y-9900600D01*
X15689900Y-10343200D02*
X15729900Y-10383200D01*
X15729900Y-10343200D02*
X15689900Y-10383200D01*
X15689900Y-10863900D02*
X15729900Y-10903900D01*
X15729900Y-10863900D02*
X15689900Y-10903900D01*
X5753100Y-5143500D02*
G75*
G03X5753100Y-5143500I-38100J0D01*
G01*
X5753100Y-5651500D02*
G75*
G03X5753100Y-5651500I-38100J0D01*
G01*
X5753100Y-6159500D02*
G75*
G03X5753100Y-6159500I-38100J0D01*
G01*
X5753100Y-6921500D02*
G75*
G03X5753100Y-6921500I-38100J0D01*
G01*
X6515100Y-5143500D02*
G75*
G03X6515100Y-5143500I-38100J0D01*
G01*
X6515100Y-5651500D02*
G75*
G03X6515100Y-5651500I-38100J0D01*
G01*
X6515100Y-6159500D02*
G75*
G03X6515100Y-6159500I-38100J0D01*
G01*
X6515100Y-6921500D02*
G75*
G03X6515100Y-6921500I-38100J0D01*
G01*
X6896100Y-5143500D02*
G75*
G03X6896100Y-5143500I-38100J0D01*
G01*
X6896100Y-5651500D02*
G75*
G03X6896100Y-5651500I-38100J0D01*
G01*
X6896100Y-6159500D02*
G75*
G03X6896100Y-6159500I-38100J0D01*
G01*
X6896100Y-6921500D02*
G75*
G03X6896100Y-6921500I-38100J0D01*
G01*
X7658100Y-5143500D02*
G75*
G03X7658100Y-5143500I-38100J0D01*
G01*
X7658100Y-5651500D02*
G75*
G03X7658100Y-5651500I-38100J0D01*
G01*
X7658100Y-6159500D02*
G75*
G03X7658100Y-6159500I-38100J0D01*
G01*
X7658100Y-6921500D02*
G75*
G03X7658100Y-6921500I-38100J0D01*
G01*
X8039576Y-5141250D02*
G75*
G03X8039576Y-5141250I-38100J0D01*
G01*
X8039576Y-5649250D02*
G75*
G03X8039576Y-5649250I-38100J0D01*
G01*
X8039576Y-6157250D02*
G75*
G03X8039576Y-6157250I-38100J0D01*
G01*
X8039576Y-6919250D02*
G75*
G03X8039576Y-6919250I-38100J0D01*
G01*
X8801576Y-5141250D02*
G75*
G03X8801576Y-5141250I-38100J0D01*
G01*
X8801576Y-5649250D02*
G75*
G03X8801576Y-5649250I-38100J0D01*
G01*
X8801576Y-6157250D02*
G75*
G03X8801576Y-6157250I-38100J0D01*
G01*
X8801576Y-6919250D02*
G75*
G03X8801576Y-6919250I-38100J0D01*
G01*
X9180876Y-5134900D02*
G75*
G03X9180876Y-5134900I-38100J0D01*
G01*
X9180876Y-5642900D02*
G75*
G03X9180876Y-5642900I-38100J0D01*
G01*
X9180876Y-6150900D02*
G75*
G03X9180876Y-6150900I-38100J0D01*
G01*
X9180876Y-6912900D02*
G75*
G03X9180876Y-6912900I-38100J0D01*
G01*
X9942876Y-5134900D02*
G75*
G03X9942876Y-5134900I-38100J0D01*
G01*
X9942876Y-5642900D02*
G75*
G03X9942876Y-5642900I-38100J0D01*
G01*
X9942876Y-6150900D02*
G75*
G03X9942876Y-6150900I-38100J0D01*
G01*
X9942876Y-6912900D02*
G75*
G03X9942876Y-6912900I-38100J0D01*
G01*
X10322176Y-5141250D02*
G75*
G03X10322176Y-5141250I-38100J0D01*
G01*
X10322176Y-5649250D02*
G75*
G03X10322176Y-5649250I-38100J0D01*
G01*
X10322176Y-6157250D02*
G75*
G03X10322176Y-6157250I-38100J0D01*
G01*
X10322176Y-6919250D02*
G75*
G03X10322176Y-6919250I-38100J0D01*
G01*
X11084176Y-5141250D02*
G75*
G03X11084176Y-5141250I-38100J0D01*
G01*
X11084176Y-5649250D02*
G75*
G03X11084176Y-5649250I-38100J0D01*
G01*
X11084176Y-6157250D02*
G75*
G03X11084176Y-6157250I-38100J0D01*
G01*
X11084176Y-6919250D02*
G75*
G03X11084176Y-6919250I-38100J0D01*
G01*
X11463476Y-5141250D02*
G75*
G03X11463476Y-5141250I-38100J0D01*
G01*
X11463476Y-5649250D02*
G75*
G03X11463476Y-5649250I-38100J0D01*
G01*
X11463476Y-6157250D02*
G75*
G03X11463476Y-6157250I-38100J0D01*
G01*
X11463476Y-6919250D02*
G75*
G03X11463476Y-6919250I-38100J0D01*
G01*
X12225476Y-5141250D02*
G75*
G03X12225476Y-5141250I-38100J0D01*
G01*
X12225476Y-5649250D02*
G75*
G03X12225476Y-5649250I-38100J0D01*
G01*
X12225476Y-6157250D02*
G75*
G03X12225476Y-6157250I-38100J0D01*
G01*
X12225476Y-6919250D02*
G75*
G03X12225476Y-6919250I-38100J0D01*
G01*
X12547600Y-5143500D02*
G75*
G03X12547600Y-5143500I-38100J0D01*
G01*
X12547600Y-5651500D02*
G75*
G03X12547600Y-5651500I-38100J0D01*
G01*
X12547600Y-6159500D02*
G75*
G03X12547600Y-6159500I-38100J0D01*
G01*
X12547600Y-6921500D02*
G75*
G03X12547600Y-6921500I-38100J0D01*
G01*
X13309600Y-5143500D02*
G75*
G03X13309600Y-5143500I-38100J0D01*
G01*
X13309600Y-5651500D02*
G75*
G03X13309600Y-5651500I-38100J0D01*
G01*
X13309600Y-6159500D02*
G75*
G03X13309600Y-6159500I-38100J0D01*
G01*
X13309600Y-6921500D02*
G75*
G03X13309600Y-6921500I-38100J0D01*
G01*
X13693226Y-5142400D02*
G75*
G03X13693226Y-5142400I-38100J0D01*
G01*
X13693226Y-5650400D02*
G75*
G03X13693226Y-5650400I-38100J0D01*
G01*
X13693226Y-6158400D02*
G75*
G03X13693226Y-6158400I-38100J0D01*
G01*
X13693226Y-6920400D02*
G75*
G03X13693226Y-6920400I-38100J0D01*
G01*
X14455226Y-5142400D02*
G75*
G03X14455226Y-5142400I-38100J0D01*
G01*
X14455226Y-5650400D02*
G75*
G03X14455226Y-5650400I-38100J0D01*
G01*
X14455226Y-6158400D02*
G75*
G03X14455226Y-6158400I-38100J0D01*
G01*
X14455226Y-6920400D02*
G75*
G03X14455226Y-6920400I-38100J0D01*
G01*
X10058400Y-11161400D02*
X10058400Y-11241400D01*
X10018400Y-11201400D02*
X10098400Y-11201400D01*
X10546400Y-11161400D02*
X10546400Y-11241400D01*
X10506400Y-11201400D02*
X10586400Y-11201400D01*
X7528356Y-8290356D02*
X7528356Y-8219644D01*
X7457644Y-8219644D01*
X7457644Y-8290356D01*
X7528356Y-8290356D01*
X7528356Y-8544356D02*
X7528356Y-8473644D01*
X7457644Y-8473644D01*
X7457644Y-8544356D01*
X7528356Y-8544356D01*
X7528356Y-8798356D02*
X7528356Y-8727644D01*
X7457644Y-8727644D01*
X7457644Y-8798356D01*
X7528356Y-8798356D01*
X7528356Y-9052356D02*
X7528356Y-8981644D01*
X7457644Y-8981644D01*
X7457644Y-9052356D01*
X7528356Y-9052356D01*
X7528356Y-9306356D02*
X7528356Y-9235644D01*
X7457644Y-9235644D01*
X7457644Y-9306356D01*
X7528356Y-9306356D01*
X7528356Y-9560356D02*
X7528356Y-9489644D01*
X7457644Y-9489644D01*
X7457644Y-9560356D01*
X7528356Y-9560356D01*
X7528356Y-9814356D02*
X7528356Y-9743644D01*
X7457644Y-9743644D01*
X7457644Y-9814356D01*
X7528356Y-9814356D01*
X7528356Y-10068356D02*
X7528356Y-9997644D01*
X7457644Y-9997644D01*
X7457644Y-10068356D01*
X7528356Y-10068356D01*
X7528356Y-10322356D02*
X7528356Y-10251644D01*
X7457644Y-10251644D01*
X7457644Y-10322356D01*
X7528356Y-10322356D01*
X7528356Y-10576356D02*
X7528356Y-10505644D01*
X7457644Y-10505644D01*
X7457644Y-10576356D01*
X7528356Y-10576356D01*
X7528356Y-10830356D02*
X7528356Y-10759644D01*
X7457644Y-10759644D01*
X7457644Y-10830356D01*
X7528356Y-10830356D01*
X7528356Y-11084356D02*
X7528356Y-11013644D01*
X7457644Y-11013644D01*
X7457644Y-11084356D01*
X7528356Y-11084356D01*
X7528356Y-11338356D02*
X7528356Y-11267644D01*
X7457644Y-11267644D01*
X7457644Y-11338356D01*
X7528356Y-11338356D01*
X7528356Y-11592356D02*
X7528356Y-11521644D01*
X7457644Y-11521644D01*
X7457644Y-11592356D01*
X7528356Y-11592356D01*
X7528356Y-11846356D02*
X7528356Y-11775644D01*
X7457644Y-11775644D01*
X7457644Y-11846356D01*
X7528356Y-11846356D01*
X7528356Y-12100356D02*
X7528356Y-12029644D01*
X7457644Y-12029644D01*
X7457644Y-12100356D01*
X7528356Y-12100356D01*
X7528356Y-12354356D02*
X7528356Y-12283644D01*
X7457644Y-12283644D01*
X7457644Y-12354356D01*
X7528356Y-12354356D01*
X7528356Y-12608356D02*
X7528356Y-12537644D01*
X7457644Y-12537644D01*
X7457644Y-12608356D01*
X7528356Y-12608356D01*
X7528356Y-12862356D02*
X7528356Y-12791644D01*
X7457644Y-12791644D01*
X7457644Y-12862356D01*
X7528356Y-12862356D01*
X7528356Y-13116356D02*
X7528356Y-13045644D01*
X7457644Y-13045644D01*
X7457644Y-13116356D01*
X7528356Y-13116356D01*
X7782356Y-8290356D02*
X7782356Y-8219644D01*
X7711644Y-8219644D01*
X7711644Y-8290356D01*
X7782356Y-8290356D01*
X7782356Y-8544356D02*
X7782356Y-8473644D01*
X7711644Y-8473644D01*
X7711644Y-8544356D01*
X7782356Y-8544356D01*
X7782356Y-8798356D02*
X7782356Y-8727644D01*
X7711644Y-8727644D01*
X7711644Y-8798356D01*
X7782356Y-8798356D01*
X7782356Y-9052356D02*
X7782356Y-8981644D01*
X7711644Y-8981644D01*
X7711644Y-9052356D01*
X7782356Y-9052356D01*
X7782356Y-9306356D02*
X7782356Y-9235644D01*
X7711644Y-9235644D01*
X7711644Y-9306356D01*
X7782356Y-9306356D01*
X7782356Y-9560356D02*
X7782356Y-9489644D01*
X7711644Y-9489644D01*
X7711644Y-9560356D01*
X7782356Y-9560356D01*
X7782356Y-9814356D02*
X7782356Y-9743644D01*
X7711644Y-9743644D01*
X7711644Y-9814356D01*
X7782356Y-9814356D01*
X7782356Y-10068356D02*
X7782356Y-9997644D01*
X7711644Y-9997644D01*
X7711644Y-10068356D01*
X7782356Y-10068356D01*
X7782356Y-10322356D02*
X7782356Y-10251644D01*
X7711644Y-10251644D01*
X7711644Y-10322356D01*
X7782356Y-10322356D01*
X7782356Y-10576356D02*
X7782356Y-10505644D01*
X7711644Y-10505644D01*
X7711644Y-10576356D01*
X7782356Y-10576356D01*
X7782356Y-10830356D02*
X7782356Y-10759644D01*
X7711644Y-10759644D01*
X7711644Y-10830356D01*
X7782356Y-10830356D01*
X7782356Y-11084356D02*
X7782356Y-11013644D01*
X7711644Y-11013644D01*
X7711644Y-11084356D01*
X7782356Y-11084356D01*
X7782356Y-11338356D02*
X7782356Y-11267644D01*
X7711644Y-11267644D01*
X7711644Y-11338356D01*
X7782356Y-11338356D01*
X7782356Y-11592356D02*
X7782356Y-11521644D01*
X7711644Y-11521644D01*
X7711644Y-11592356D01*
X7782356Y-11592356D01*
X7782356Y-11846356D02*
X7782356Y-11775644D01*
X7711644Y-11775644D01*
X7711644Y-11846356D01*
X7782356Y-11846356D01*
X7782356Y-12100356D02*
X7782356Y-12029644D01*
X7711644Y-12029644D01*
X7711644Y-12100356D01*
X7782356Y-12100356D01*
X7782356Y-12354356D02*
X7782356Y-12283644D01*
X7711644Y-12283644D01*
X7711644Y-12354356D01*
X7782356Y-12354356D01*
X7782356Y-12608356D02*
X7782356Y-12537644D01*
X7711644Y-12537644D01*
X7711644Y-12608356D01*
X7782356Y-12608356D01*
X7782356Y-12862356D02*
X7782356Y-12791644D01*
X7711644Y-12791644D01*
X7711644Y-12862356D01*
X7782356Y-12862356D01*
X7782356Y-13116356D02*
X7782356Y-13045644D01*
X7711644Y-13045644D01*
X7711644Y-13116356D01*
X7782356Y-13116356D01*
X5842000Y-12814300D02*
X5892800Y-12763500D01*
X5842000Y-12712700D01*
X5791200Y-12763500D01*
X5842000Y-12814300D01*
X5842000Y-13068300D02*
X5892800Y-13017500D01*
X5842000Y-12966700D01*
X5791200Y-13017500D01*
X5842000Y-13068300D01*
X5842000Y-13322300D02*
X5892800Y-13271500D01*
X5842000Y-13220700D01*
X5791200Y-13271500D01*
X5842000Y-13322300D01*
X5842000Y-13576300D02*
X5892800Y-13525500D01*
X5842000Y-13474700D01*
X5791200Y-13525500D01*
X5842000Y-13576300D01*
X5842000Y-13830300D02*
X5892800Y-13779500D01*
X5842000Y-13728700D01*
X5791200Y-13779500D01*
X5842000Y-13830300D01*
X6096000Y-12814300D02*
X6146800Y-12763500D01*
X6096000Y-12712700D01*
X6045200Y-12763500D01*
X6096000Y-12814300D01*
X6096000Y-13068300D02*
X6146800Y-13017500D01*
X6096000Y-12966700D01*
X6045200Y-13017500D01*
X6096000Y-13068300D01*
X6096000Y-13322300D02*
X6146800Y-13271500D01*
X6096000Y-13220700D01*
X6045200Y-13271500D01*
X6096000Y-13322300D01*
X6096000Y-13576300D02*
X6146800Y-13525500D01*
X6096000Y-13474700D01*
X6045200Y-13525500D01*
X6096000Y-13576300D01*
X6096000Y-13830300D02*
X6146800Y-13779500D01*
X6096000Y-13728700D01*
X6045200Y-13779500D01*
X6096000Y-13830300D01*
X5706000Y-4316500D02*
X5836000Y-4446500D01*
X5836000Y-4316500D02*
X5706000Y-4446500D01*
X5836000Y-4381500D02*
G75*
G03X5836000Y-4381500I-65000J0D01*
G01*
X5967500Y-8182500D02*
X6097500Y-8312500D01*
X6097500Y-8182500D02*
X5967500Y-8312500D01*
X6097500Y-8247500D02*
G75*
G03X6097500Y-8247500I-65000J0D01*
G01*
X5967500Y-8682500D02*
X6097500Y-8812500D01*
X6097500Y-8682500D02*
X5967500Y-8812500D01*
X6097500Y-8747500D02*
G75*
G03X6097500Y-8747500I-65000J0D01*
G01*
X5967500Y-9182500D02*
X6097500Y-9312500D01*
X6097500Y-9182500D02*
X5967500Y-9312500D01*
X6097500Y-9247500D02*
G75*
G03X6097500Y-9247500I-65000J0D01*
G01*
X5967500Y-9682500D02*
X6097500Y-9812500D01*
X6097500Y-9682500D02*
X5967500Y-9812500D01*
X6097500Y-9747500D02*
G75*
G03X6097500Y-9747500I-65000J0D01*
G01*
X5967500Y-10182500D02*
X6097500Y-10312500D01*
X6097500Y-10182500D02*
X5967500Y-10312500D01*
X6097500Y-10247500D02*
G75*
G03X6097500Y-10247500I-65000J0D01*
G01*
X5967500Y-10682500D02*
X6097500Y-10812500D01*
X6097500Y-10682500D02*
X5967500Y-10812500D01*
X6097500Y-10747500D02*
G75*
G03X6097500Y-10747500I-65000J0D01*
G01*
X5967500Y-11182500D02*
X6097500Y-11312500D01*
X6097500Y-11182500D02*
X5967500Y-11312500D01*
X6097500Y-11247500D02*
G75*
G03X6097500Y-11247500I-65000J0D01*
G01*
X5967500Y-11682500D02*
X6097500Y-11812500D01*
X6097500Y-11682500D02*
X5967500Y-11812500D01*
X6097500Y-11747500D02*
G75*
G03X6097500Y-11747500I-65000J0D01*
G01*
X6206000Y-4316500D02*
X6336000Y-4446500D01*
X6336000Y-4316500D02*
X6206000Y-4446500D01*
X6336000Y-4381500D02*
G75*
G03X6336000Y-4381500I-65000J0D01*
G01*
X6706000Y-4316500D02*
X6836000Y-4446500D01*
X6836000Y-4316500D02*
X6706000Y-4446500D01*
X6836000Y-4381500D02*
G75*
G03X6836000Y-4381500I-65000J0D01*
G01*
X6785380Y-14098040D02*
X6915380Y-14228040D01*
X6915380Y-14098040D02*
X6785380Y-14228040D01*
X6915380Y-14163040D02*
G75*
G03X6915380Y-14163040I-65000J0D01*
G01*
X7206000Y-4316500D02*
X7336000Y-4446500D01*
X7336000Y-4316500D02*
X7206000Y-4446500D01*
X7336000Y-4381500D02*
G75*
G03X7336000Y-4381500I-65000J0D01*
G01*
X7285380Y-14098040D02*
X7415380Y-14228040D01*
X7415380Y-14098040D02*
X7285380Y-14228040D01*
X7415380Y-14163040D02*
G75*
G03X7415380Y-14163040I-65000J0D01*
G01*
X7706000Y-4316500D02*
X7836000Y-4446500D01*
X7836000Y-4316500D02*
X7706000Y-4446500D01*
X7836000Y-4381500D02*
G75*
G03X7836000Y-4381500I-65000J0D01*
G01*
X7785380Y-14098040D02*
X7915380Y-14228040D01*
X7915380Y-14098040D02*
X7785380Y-14228040D01*
X7915380Y-14163040D02*
G75*
G03X7915380Y-14163040I-65000J0D01*
G01*
X8206000Y-4316500D02*
X8336000Y-4446500D01*
X8336000Y-4316500D02*
X8206000Y-4446500D01*
X8336000Y-4381500D02*
G75*
G03X8336000Y-4381500I-65000J0D01*
G01*
X8285380Y-14098040D02*
X8415380Y-14228040D01*
X8415380Y-14098040D02*
X8285380Y-14228040D01*
X8415380Y-14163040D02*
G75*
G03X8415380Y-14163040I-65000J0D01*
G01*
X8706000Y-4316500D02*
X8836000Y-4446500D01*
X8836000Y-4316500D02*
X8706000Y-4446500D01*
X8836000Y-4381500D02*
G75*
G03X8836000Y-4381500I-65000J0D01*
G01*
X8785380Y-14098040D02*
X8915380Y-14228040D01*
X8915380Y-14098040D02*
X8785380Y-14228040D01*
X8915380Y-14163040D02*
G75*
G03X8915380Y-14163040I-65000J0D01*
G01*
X9206000Y-4316500D02*
X9336000Y-4446500D01*
X9336000Y-4316500D02*
X9206000Y-4446500D01*
X9336000Y-4381500D02*
G75*
G03X9336000Y-4381500I-65000J0D01*
G01*
X9285380Y-14098040D02*
X9415380Y-14228040D01*
X9415380Y-14098040D02*
X9285380Y-14228040D01*
X9415380Y-14163040D02*
G75*
G03X9415380Y-14163040I-65000J0D01*
G01*
X9785380Y-14098040D02*
X9915380Y-14228040D01*
X9915380Y-14098040D02*
X9785380Y-14228040D01*
X9915380Y-14163040D02*
G75*
G03X9915380Y-14163040I-65000J0D01*
G01*
X9833500Y-4316500D02*
X9963500Y-4446500D01*
X9963500Y-4316500D02*
X9833500Y-4446500D01*
X9963500Y-4381500D02*
G75*
G03X9963500Y-4381500I-65000J0D01*
G01*
X10285380Y-14098040D02*
X10415380Y-14228040D01*
X10415380Y-14098040D02*
X10285380Y-14228040D01*
X10415380Y-14163040D02*
G75*
G03X10415380Y-14163040I-65000J0D01*
G01*
X10333500Y-4316500D02*
X10463500Y-4446500D01*
X10463500Y-4316500D02*
X10333500Y-4446500D01*
X10463500Y-4381500D02*
G75*
G03X10463500Y-4381500I-65000J0D01*
G01*
X10833500Y-4316500D02*
X10963500Y-4446500D01*
X10963500Y-4316500D02*
X10833500Y-4446500D01*
X10963500Y-4381500D02*
G75*
G03X10963500Y-4381500I-65000J0D01*
G01*
X10920500Y-14095500D02*
X11050500Y-14225500D01*
X11050500Y-14095500D02*
X10920500Y-14225500D01*
X11050500Y-14160500D02*
G75*
G03X11050500Y-14160500I-65000J0D01*
G01*
X11333500Y-4316500D02*
X11463500Y-4446500D01*
X11463500Y-4316500D02*
X11333500Y-4446500D01*
X11463500Y-4381500D02*
G75*
G03X11463500Y-4381500I-65000J0D01*
G01*
X11420500Y-14095500D02*
X11550500Y-14225500D01*
X11550500Y-14095500D02*
X11420500Y-14225500D01*
X11550500Y-14160500D02*
G75*
G03X11550500Y-14160500I-65000J0D01*
G01*
X11833500Y-4316500D02*
X11963500Y-4446500D01*
X11963500Y-4316500D02*
X11833500Y-4446500D01*
X11963500Y-4381500D02*
G75*
G03X11963500Y-4381500I-65000J0D01*
G01*
X11920500Y-14095500D02*
X12050500Y-14225500D01*
X12050500Y-14095500D02*
X11920500Y-14225500D01*
X12050500Y-14160500D02*
G75*
G03X12050500Y-14160500I-65000J0D01*
G01*
X12333500Y-4316500D02*
X12463500Y-4446500D01*
X12463500Y-4316500D02*
X12333500Y-4446500D01*
X12463500Y-4381500D02*
G75*
G03X12463500Y-4381500I-65000J0D01*
G01*
X12420500Y-14095500D02*
X12550500Y-14225500D01*
X12550500Y-14095500D02*
X12420500Y-14225500D01*
X12550500Y-14160500D02*
G75*
G03X12550500Y-14160500I-65000J0D01*
G01*
X12833500Y-4316500D02*
X12963500Y-4446500D01*
X12963500Y-4316500D02*
X12833500Y-4446500D01*
X12963500Y-4381500D02*
G75*
G03X12963500Y-4381500I-65000J0D01*
G01*
X12920500Y-14095500D02*
X13050500Y-14225500D01*
X13050500Y-14095500D02*
X12920500Y-14225500D01*
X13050500Y-14160500D02*
G75*
G03X13050500Y-14160500I-65000J0D01*
G01*
X13333500Y-4316500D02*
X13463500Y-4446500D01*
X13463500Y-4316500D02*
X13333500Y-4446500D01*
X13463500Y-4381500D02*
G75*
G03X13463500Y-4381500I-65000J0D01*
G01*
X13420500Y-14095500D02*
X13550500Y-14225500D01*
X13550500Y-14095500D02*
X13420500Y-14225500D01*
X13550500Y-14160500D02*
G75*
G03X13550500Y-14160500I-65000J0D01*
G01*
X13920500Y-14095500D02*
X14050500Y-14225500D01*
X14050500Y-14095500D02*
X13920500Y-14225500D01*
X14050500Y-14160500D02*
G75*
G03X14050500Y-14160500I-65000J0D01*
G01*
X14420500Y-14095500D02*
X14550500Y-14225500D01*
X14550500Y-14095500D02*
X14420500Y-14225500D01*
X14550500Y-14160500D02*
G75*
G03X14550500Y-14160500I-65000J0D01*
G01*
X15035300Y-14095500D02*
X15165300Y-14225500D01*
X15165300Y-14095500D02*
X15035300Y-14225500D01*
X15165300Y-14160500D02*
G75*
G03X15165300Y-14160500I-65000J0D01*
G01*
X15251200Y-4004200D02*
X15381200Y-4134200D01*
X15381200Y-4004200D02*
X15251200Y-4134200D01*
X15381200Y-4069200D02*
G75*
G03X15381200Y-4069200I-65000J0D01*
G01*
X15251200Y-4504200D02*
X15381200Y-4634200D01*
X15381200Y-4504200D02*
X15251200Y-4634200D01*
X15381200Y-4569200D02*
G75*
G03X15381200Y-4569200I-65000J0D01*
G01*
X15251200Y-5004200D02*
X15381200Y-5134200D01*
X15381200Y-5004200D02*
X15251200Y-5134200D01*
X15381200Y-5069200D02*
G75*
G03X15381200Y-5069200I-65000J0D01*
G01*
X15251200Y-5504200D02*
X15381200Y-5634200D01*
X15381200Y-5504200D02*
X15251200Y-5634200D01*
X15381200Y-5569200D02*
G75*
G03X15381200Y-5569200I-65000J0D01*
G01*
X15251200Y-6004200D02*
X15381200Y-6134200D01*
X15381200Y-6004200D02*
X15251200Y-6134200D01*
X15381200Y-6069200D02*
G75*
G03X15381200Y-6069200I-65000J0D01*
G01*
X15251200Y-6504200D02*
X15381200Y-6634200D01*
X15381200Y-6504200D02*
X15251200Y-6634200D01*
X15381200Y-6569200D02*
G75*
G03X15381200Y-6569200I-65000J0D01*
G01*
X15251200Y-7004200D02*
X15381200Y-7134200D01*
X15381200Y-7004200D02*
X15251200Y-7134200D01*
X15381200Y-7069200D02*
G75*
G03X15381200Y-7069200I-65000J0D01*
G01*
X15251200Y-7504200D02*
X15381200Y-7634200D01*
X15381200Y-7504200D02*
X15251200Y-7634200D01*
X15381200Y-7569200D02*
G75*
G03X15381200Y-7569200I-65000J0D01*
G01*
X15535300Y-14095500D02*
X15665300Y-14225500D01*
X15665300Y-14095500D02*
X15535300Y-14225500D01*
X15665300Y-14160500D02*
G75*
G03X15665300Y-14160500I-65000J0D01*
G01*
D13*
X4863929Y-15573214D02*
X4863929Y-15273214D01*
X4935357Y-15273214D01*
X4978214Y-15287500D01*
X5006786Y-15316071D01*
X5021071Y-15344643D01*
X5035357Y-15401786D01*
X5035357Y-15444643D01*
X5021071Y-15501786D01*
X5006786Y-15530357D01*
X4978214Y-15558929D01*
X4935357Y-15573214D01*
X4863929Y-15573214D01*
X5163929Y-15573214D02*
X5163929Y-15373214D01*
X5163929Y-15430357D02*
X5178214Y-15401786D01*
X5192500Y-15387500D01*
X5221071Y-15373214D01*
X5249643Y-15373214D01*
X5349643Y-15573214D02*
X5349643Y-15373214D01*
X5349643Y-15273214D02*
X5335357Y-15287500D01*
X5349643Y-15301786D01*
X5363929Y-15287500D01*
X5349643Y-15273214D01*
X5349643Y-15301786D01*
X5535357Y-15573214D02*
X5506786Y-15558929D01*
X5492500Y-15530357D01*
X5492500Y-15273214D01*
X5692500Y-15573214D02*
X5663928Y-15558929D01*
X5649643Y-15530357D01*
X5649643Y-15273214D01*
X6035357Y-15573214D02*
X6035357Y-15273214D01*
X6135357Y-15487500D01*
X6235357Y-15273214D01*
X6235357Y-15573214D01*
X6506786Y-15573214D02*
X6506786Y-15416071D01*
X6492500Y-15387500D01*
X6463928Y-15373214D01*
X6406786Y-15373214D01*
X6378214Y-15387500D01*
X6506786Y-15558929D02*
X6478214Y-15573214D01*
X6406786Y-15573214D01*
X6378214Y-15558929D01*
X6363928Y-15530357D01*
X6363928Y-15501786D01*
X6378214Y-15473214D01*
X6406786Y-15458929D01*
X6478214Y-15458929D01*
X6506786Y-15444643D01*
X6649643Y-15373214D02*
X6649643Y-15673214D01*
X6649643Y-15387500D02*
X6678214Y-15373214D01*
X6735357Y-15373214D01*
X6763928Y-15387500D01*
X6778214Y-15401786D01*
X6792500Y-15430357D01*
X6792500Y-15516071D01*
X6778214Y-15544643D01*
X6763928Y-15558929D01*
X6735357Y-15573214D01*
X6678214Y-15573214D01*
X6649643Y-15558929D01*
X6921071Y-15544643D02*
X6935357Y-15558929D01*
X6921071Y-15573214D01*
X6906786Y-15558929D01*
X6921071Y-15544643D01*
X6921071Y-15573214D01*
X6921071Y-15387500D02*
X6935357Y-15401786D01*
X6921071Y-15416071D01*
X6906786Y-15401786D01*
X6921071Y-15387500D01*
X6921071Y-15416071D01*
X4552500Y-16047500D02*
X4592500Y-16087500D01*
X4592500Y-16047500D02*
X4552500Y-16087500D01*
X4921071Y-15903214D02*
X4949643Y-15903214D01*
X4978214Y-15917500D01*
X4992500Y-15931786D01*
X5006786Y-15960357D01*
X5021071Y-16017500D01*
X5021071Y-16088929D01*
X5006786Y-16146071D01*
X4992500Y-16174643D01*
X4978214Y-16188929D01*
X4949643Y-16203214D01*
X4921071Y-16203214D01*
X4892500Y-16188929D01*
X4878214Y-16174643D01*
X4863929Y-16146071D01*
X4849643Y-16088929D01*
X4849643Y-16017500D01*
X4863929Y-15960357D01*
X4878214Y-15931786D01*
X4892500Y-15917500D01*
X4921071Y-15903214D01*
X5149643Y-16174643D02*
X5163929Y-16188929D01*
X5149643Y-16203214D01*
X5135357Y-16188929D01*
X5149643Y-16174643D01*
X5149643Y-16203214D01*
X5421071Y-16003214D02*
X5421071Y-16203214D01*
X5349643Y-15888929D02*
X5278214Y-16103214D01*
X5463928Y-16103214D01*
X5635357Y-15903214D02*
X5663928Y-15903214D01*
X5692500Y-15917500D01*
X5706786Y-15931786D01*
X5721071Y-15960357D01*
X5735357Y-16017500D01*
X5735357Y-16088929D01*
X5721071Y-16146071D01*
X5706786Y-16174643D01*
X5692500Y-16188929D01*
X5663928Y-16203214D01*
X5635357Y-16203214D01*
X5606786Y-16188929D01*
X5592500Y-16174643D01*
X5578214Y-16146071D01*
X5563929Y-16088929D01*
X5563929Y-16017500D01*
X5578214Y-15960357D01*
X5592500Y-15931786D01*
X5606786Y-15917500D01*
X5635357Y-15903214D01*
X5863928Y-16203214D02*
X5863928Y-16003214D01*
X5863928Y-16031786D02*
X5878214Y-16017500D01*
X5906786Y-16003214D01*
X5949643Y-16003214D01*
X5978214Y-16017500D01*
X5992500Y-16046071D01*
X5992500Y-16203214D01*
X5992500Y-16046071D02*
X6006786Y-16017500D01*
X6035357Y-16003214D01*
X6078214Y-16003214D01*
X6106786Y-16017500D01*
X6121071Y-16046071D01*
X6121071Y-16203214D01*
X6263928Y-16203214D02*
X6263928Y-16003214D01*
X6263928Y-16031786D02*
X6278214Y-16017500D01*
X6306786Y-16003214D01*
X6349643Y-16003214D01*
X6378214Y-16017500D01*
X6392500Y-16046071D01*
X6392500Y-16203214D01*
X6392500Y-16046071D02*
X6406786Y-16017500D01*
X6435357Y-16003214D01*
X6478214Y-16003214D01*
X6506786Y-16017500D01*
X6521071Y-16046071D01*
X6521071Y-16203214D01*
X7106786Y-15888929D02*
X6849643Y-16274643D01*
X7492500Y-15903214D02*
X7521071Y-15903214D01*
X7549643Y-15917500D01*
X7563928Y-15931786D01*
X7578214Y-15960357D01*
X7592500Y-16017500D01*
X7592500Y-16088929D01*
X7578214Y-16146071D01*
X7563928Y-16174643D01*
X7549643Y-16188929D01*
X7521071Y-16203214D01*
X7492500Y-16203214D01*
X7463928Y-16188929D01*
X7449643Y-16174643D01*
X7435357Y-16146071D01*
X7421071Y-16088929D01*
X7421071Y-16017500D01*
X7435357Y-15960357D01*
X7449643Y-15931786D01*
X7463928Y-15917500D01*
X7492500Y-15903214D01*
X7721071Y-16174643D02*
X7735357Y-16188929D01*
X7721071Y-16203214D01*
X7706786Y-16188929D01*
X7721071Y-16174643D01*
X7721071Y-16203214D01*
X7921071Y-15903214D02*
X7949643Y-15903214D01*
X7978214Y-15917500D01*
X7992500Y-15931786D01*
X8006785Y-15960357D01*
X8021071Y-16017500D01*
X8021071Y-16088929D01*
X8006785Y-16146071D01*
X7992500Y-16174643D01*
X7978214Y-16188929D01*
X7949643Y-16203214D01*
X7921071Y-16203214D01*
X7892500Y-16188929D01*
X7878214Y-16174643D01*
X7863928Y-16146071D01*
X7849643Y-16088929D01*
X7849643Y-16017500D01*
X7863928Y-15960357D01*
X7878214Y-15931786D01*
X7892500Y-15917500D01*
X7921071Y-15903214D01*
X8306785Y-16203214D02*
X8135357Y-16203214D01*
X8221071Y-16203214D02*
X8221071Y-15903214D01*
X8192500Y-15946071D01*
X8163928Y-15974643D01*
X8135357Y-15988929D01*
X8563928Y-15903214D02*
X8506786Y-15903214D01*
X8478214Y-15917500D01*
X8463928Y-15931786D01*
X8435357Y-15974643D01*
X8421071Y-16031786D01*
X8421071Y-16146071D01*
X8435357Y-16174643D01*
X8449643Y-16188929D01*
X8478214Y-16203214D01*
X8535357Y-16203214D01*
X8563928Y-16188929D01*
X8578214Y-16174643D01*
X8592500Y-16146071D01*
X8592500Y-16074643D01*
X8578214Y-16046071D01*
X8563928Y-16031786D01*
X8535357Y-16017500D01*
X8478214Y-16017500D01*
X8449643Y-16031786D01*
X8435357Y-16046071D01*
X8421071Y-16074643D01*
X8706786Y-15903214D02*
X8706786Y-15960357D01*
X8821071Y-15903214D02*
X8821071Y-15960357D01*
X9263928Y-16317500D02*
X9249643Y-16303214D01*
X9221071Y-16260357D01*
X9206786Y-16231786D01*
X9192500Y-16188929D01*
X9178214Y-16117500D01*
X9178214Y-16060357D01*
X9192500Y-15988929D01*
X9206786Y-15946071D01*
X9221071Y-15917500D01*
X9249643Y-15874643D01*
X9263928Y-15860357D01*
X9421071Y-16031786D02*
X9392500Y-16017500D01*
X9378214Y-16003214D01*
X9363928Y-15974643D01*
X9363928Y-15960357D01*
X9378214Y-15931786D01*
X9392500Y-15917500D01*
X9421071Y-15903214D01*
X9478214Y-15903214D01*
X9506786Y-15917500D01*
X9521071Y-15931786D01*
X9535357Y-15960357D01*
X9535357Y-15974643D01*
X9521071Y-16003214D01*
X9506786Y-16017500D01*
X9478214Y-16031786D01*
X9421071Y-16031786D01*
X9392500Y-16046071D01*
X9378214Y-16060357D01*
X9363928Y-16088929D01*
X9363928Y-16146071D01*
X9378214Y-16174643D01*
X9392500Y-16188929D01*
X9421071Y-16203214D01*
X9478214Y-16203214D01*
X9506786Y-16188929D01*
X9521071Y-16174643D01*
X9535357Y-16146071D01*
X9535357Y-16088929D01*
X9521071Y-16060357D01*
X9506786Y-16046071D01*
X9478214Y-16031786D01*
X9792500Y-16003214D02*
X9792500Y-16203214D01*
X9721071Y-15888929D02*
X9649643Y-16103214D01*
X9835357Y-16103214D01*
X10178214Y-16203214D02*
X10178214Y-15903214D01*
X10306786Y-16203214D02*
X10306786Y-16046071D01*
X10292500Y-16017500D01*
X10263928Y-16003214D01*
X10221071Y-16003214D01*
X10192500Y-16017500D01*
X10178214Y-16031786D01*
X10492500Y-16203214D02*
X10463928Y-16188929D01*
X10449643Y-16174643D01*
X10435357Y-16146071D01*
X10435357Y-16060357D01*
X10449643Y-16031786D01*
X10463928Y-16017500D01*
X10492500Y-16003214D01*
X10535357Y-16003214D01*
X10563928Y-16017500D01*
X10578214Y-16031786D01*
X10592500Y-16060357D01*
X10592500Y-16146071D01*
X10578214Y-16174643D01*
X10563928Y-16188929D01*
X10535357Y-16203214D01*
X10492500Y-16203214D01*
X10763928Y-16203214D02*
X10735357Y-16188929D01*
X10721071Y-16160357D01*
X10721071Y-15903214D01*
X10992500Y-16188929D02*
X10963929Y-16203214D01*
X10906786Y-16203214D01*
X10878214Y-16188929D01*
X10863929Y-16160357D01*
X10863929Y-16046071D01*
X10878214Y-16017500D01*
X10906786Y-16003214D01*
X10963929Y-16003214D01*
X10992500Y-16017500D01*
X11006786Y-16046071D01*
X11006786Y-16074643D01*
X10863929Y-16103214D01*
X11121071Y-16188929D02*
X11149643Y-16203214D01*
X11206786Y-16203214D01*
X11235357Y-16188929D01*
X11249643Y-16160357D01*
X11249643Y-16146071D01*
X11235357Y-16117500D01*
X11206786Y-16103214D01*
X11163929Y-16103214D01*
X11135357Y-16088929D01*
X11121071Y-16060357D01*
X11121071Y-16046071D01*
X11135357Y-16017500D01*
X11163929Y-16003214D01*
X11206786Y-16003214D01*
X11235357Y-16017500D01*
X11349643Y-16317500D02*
X11363928Y-16303214D01*
X11392500Y-16260357D01*
X11406786Y-16231786D01*
X11421071Y-16188929D01*
X11435357Y-16117500D01*
X11435357Y-16060357D01*
X11421071Y-15988929D01*
X11406786Y-15946071D01*
X11392500Y-15917500D01*
X11363928Y-15874643D01*
X11349643Y-15860357D01*
X4592500Y-16463500D02*
G75*
G03X4592500Y-16463500I-38100J0D01*
G01*
X4921071Y-16299214D02*
X4949643Y-16299214D01*
X4978214Y-16313500D01*
X4992500Y-16327786D01*
X5006786Y-16356357D01*
X5021071Y-16413500D01*
X5021071Y-16484929D01*
X5006786Y-16542071D01*
X4992500Y-16570643D01*
X4978214Y-16584929D01*
X4949643Y-16599214D01*
X4921071Y-16599214D01*
X4892500Y-16584929D01*
X4878214Y-16570643D01*
X4863929Y-16542071D01*
X4849643Y-16484929D01*
X4849643Y-16413500D01*
X4863929Y-16356357D01*
X4878214Y-16327786D01*
X4892500Y-16313500D01*
X4921071Y-16299214D01*
X5149643Y-16570643D02*
X5163929Y-16584929D01*
X5149643Y-16599214D01*
X5135357Y-16584929D01*
X5149643Y-16570643D01*
X5149643Y-16599214D01*
X5263928Y-16299214D02*
X5463928Y-16299214D01*
X5335357Y-16599214D01*
X5706786Y-16299214D02*
X5649643Y-16299214D01*
X5621071Y-16313500D01*
X5606786Y-16327786D01*
X5578214Y-16370643D01*
X5563929Y-16427786D01*
X5563929Y-16542071D01*
X5578214Y-16570643D01*
X5592500Y-16584929D01*
X5621071Y-16599214D01*
X5678214Y-16599214D01*
X5706786Y-16584929D01*
X5721071Y-16570643D01*
X5735357Y-16542071D01*
X5735357Y-16470643D01*
X5721071Y-16442071D01*
X5706786Y-16427786D01*
X5678214Y-16413500D01*
X5621071Y-16413500D01*
X5592500Y-16427786D01*
X5578214Y-16442071D01*
X5563929Y-16470643D01*
X5863928Y-16599214D02*
X5863928Y-16399214D01*
X5863928Y-16427786D02*
X5878214Y-16413500D01*
X5906786Y-16399214D01*
X5949643Y-16399214D01*
X5978214Y-16413500D01*
X5992500Y-16442071D01*
X5992500Y-16599214D01*
X5992500Y-16442071D02*
X6006786Y-16413500D01*
X6035357Y-16399214D01*
X6078214Y-16399214D01*
X6106786Y-16413500D01*
X6121071Y-16442071D01*
X6121071Y-16599214D01*
X6263928Y-16599214D02*
X6263928Y-16399214D01*
X6263928Y-16427786D02*
X6278214Y-16413500D01*
X6306786Y-16399214D01*
X6349643Y-16399214D01*
X6378214Y-16413500D01*
X6392500Y-16442071D01*
X6392500Y-16599214D01*
X6392500Y-16442071D02*
X6406786Y-16413500D01*
X6435357Y-16399214D01*
X6478214Y-16399214D01*
X6506786Y-16413500D01*
X6521071Y-16442071D01*
X6521071Y-16599214D01*
X7106786Y-16284929D02*
X6849643Y-16670643D01*
X7492500Y-16299214D02*
X7521071Y-16299214D01*
X7549643Y-16313500D01*
X7563928Y-16327786D01*
X7578214Y-16356357D01*
X7592500Y-16413500D01*
X7592500Y-16484929D01*
X7578214Y-16542071D01*
X7563928Y-16570643D01*
X7549643Y-16584929D01*
X7521071Y-16599214D01*
X7492500Y-16599214D01*
X7463928Y-16584929D01*
X7449643Y-16570643D01*
X7435357Y-16542071D01*
X7421071Y-16484929D01*
X7421071Y-16413500D01*
X7435357Y-16356357D01*
X7449643Y-16327786D01*
X7463928Y-16313500D01*
X7492500Y-16299214D01*
X7721071Y-16570643D02*
X7735357Y-16584929D01*
X7721071Y-16599214D01*
X7706786Y-16584929D01*
X7721071Y-16570643D01*
X7721071Y-16599214D01*
X7921071Y-16299214D02*
X7949643Y-16299214D01*
X7978214Y-16313500D01*
X7992500Y-16327786D01*
X8006785Y-16356357D01*
X8021071Y-16413500D01*
X8021071Y-16484929D01*
X8006785Y-16542071D01*
X7992500Y-16570643D01*
X7978214Y-16584929D01*
X7949643Y-16599214D01*
X7921071Y-16599214D01*
X7892500Y-16584929D01*
X7878214Y-16570643D01*
X7863928Y-16542071D01*
X7849643Y-16484929D01*
X7849643Y-16413500D01*
X7863928Y-16356357D01*
X7878214Y-16327786D01*
X7892500Y-16313500D01*
X7921071Y-16299214D01*
X8121071Y-16299214D02*
X8306785Y-16299214D01*
X8206785Y-16413500D01*
X8249643Y-16413500D01*
X8278214Y-16427786D01*
X8292500Y-16442071D01*
X8306785Y-16470643D01*
X8306785Y-16542071D01*
X8292500Y-16570643D01*
X8278214Y-16584929D01*
X8249643Y-16599214D01*
X8163928Y-16599214D01*
X8135357Y-16584929D01*
X8121071Y-16570643D01*
X8492500Y-16299214D02*
X8521071Y-16299214D01*
X8549643Y-16313500D01*
X8563928Y-16327786D01*
X8578214Y-16356357D01*
X8592500Y-16413500D01*
X8592500Y-16484929D01*
X8578214Y-16542071D01*
X8563928Y-16570643D01*
X8549643Y-16584929D01*
X8521071Y-16599214D01*
X8492500Y-16599214D01*
X8463928Y-16584929D01*
X8449643Y-16570643D01*
X8435357Y-16542071D01*
X8421071Y-16484929D01*
X8421071Y-16413500D01*
X8435357Y-16356357D01*
X8449643Y-16327786D01*
X8463928Y-16313500D01*
X8492500Y-16299214D01*
X8706786Y-16299214D02*
X8706786Y-16356357D01*
X8821071Y-16299214D02*
X8821071Y-16356357D01*
X9263928Y-16713500D02*
X9249643Y-16699214D01*
X9221071Y-16656357D01*
X9206786Y-16627786D01*
X9192500Y-16584929D01*
X9178214Y-16513500D01*
X9178214Y-16456357D01*
X9192500Y-16384929D01*
X9206786Y-16342071D01*
X9221071Y-16313500D01*
X9249643Y-16270643D01*
X9263928Y-16256357D01*
X9506786Y-16299214D02*
X9449643Y-16299214D01*
X9421071Y-16313500D01*
X9406786Y-16327786D01*
X9378214Y-16370643D01*
X9363928Y-16427786D01*
X9363928Y-16542071D01*
X9378214Y-16570643D01*
X9392500Y-16584929D01*
X9421071Y-16599214D01*
X9478214Y-16599214D01*
X9506786Y-16584929D01*
X9521071Y-16570643D01*
X9535357Y-16542071D01*
X9535357Y-16470643D01*
X9521071Y-16442071D01*
X9506786Y-16427786D01*
X9478214Y-16413500D01*
X9421071Y-16413500D01*
X9392500Y-16427786D01*
X9378214Y-16442071D01*
X9363928Y-16470643D01*
X9792500Y-16399214D02*
X9792500Y-16599214D01*
X9721071Y-16284929D02*
X9649643Y-16499214D01*
X9835357Y-16499214D01*
X10178214Y-16599214D02*
X10178214Y-16299214D01*
X10306786Y-16599214D02*
X10306786Y-16442071D01*
X10292500Y-16413500D01*
X10263928Y-16399214D01*
X10221071Y-16399214D01*
X10192500Y-16413500D01*
X10178214Y-16427786D01*
X10492500Y-16599214D02*
X10463928Y-16584929D01*
X10449643Y-16570643D01*
X10435357Y-16542071D01*
X10435357Y-16456357D01*
X10449643Y-16427786D01*
X10463928Y-16413500D01*
X10492500Y-16399214D01*
X10535357Y-16399214D01*
X10563928Y-16413500D01*
X10578214Y-16427786D01*
X10592500Y-16456357D01*
X10592500Y-16542071D01*
X10578214Y-16570643D01*
X10563928Y-16584929D01*
X10535357Y-16599214D01*
X10492500Y-16599214D01*
X10763928Y-16599214D02*
X10735357Y-16584929D01*
X10721071Y-16556357D01*
X10721071Y-16299214D01*
X10992500Y-16584929D02*
X10963929Y-16599214D01*
X10906786Y-16599214D01*
X10878214Y-16584929D01*
X10863929Y-16556357D01*
X10863929Y-16442071D01*
X10878214Y-16413500D01*
X10906786Y-16399214D01*
X10963929Y-16399214D01*
X10992500Y-16413500D01*
X11006786Y-16442071D01*
X11006786Y-16470643D01*
X10863929Y-16499214D01*
X11121071Y-16584929D02*
X11149643Y-16599214D01*
X11206786Y-16599214D01*
X11235357Y-16584929D01*
X11249643Y-16556357D01*
X11249643Y-16542071D01*
X11235357Y-16513500D01*
X11206786Y-16499214D01*
X11163929Y-16499214D01*
X11135357Y-16484929D01*
X11121071Y-16456357D01*
X11121071Y-16442071D01*
X11135357Y-16413500D01*
X11163929Y-16399214D01*
X11206786Y-16399214D01*
X11235357Y-16413500D01*
X11349643Y-16713500D02*
X11363928Y-16699214D01*
X11392500Y-16656357D01*
X11406786Y-16627786D01*
X11421071Y-16584929D01*
X11435357Y-16513500D01*
X11435357Y-16456357D01*
X11421071Y-16384929D01*
X11406786Y-16342071D01*
X11392500Y-16313500D01*
X11363928Y-16270643D01*
X11349643Y-16256357D01*
X4552500Y-16819500D02*
X4552500Y-16899500D01*
X4512500Y-16859500D02*
X4592500Y-16859500D01*
X4921071Y-16695214D02*
X4949643Y-16695214D01*
X4978214Y-16709500D01*
X4992500Y-16723786D01*
X5006786Y-16752357D01*
X5021071Y-16809500D01*
X5021071Y-16880929D01*
X5006786Y-16938072D01*
X4992500Y-16966643D01*
X4978214Y-16980929D01*
X4949643Y-16995214D01*
X4921071Y-16995214D01*
X4892500Y-16980929D01*
X4878214Y-16966643D01*
X4863929Y-16938072D01*
X4849643Y-16880929D01*
X4849643Y-16809500D01*
X4863929Y-16752357D01*
X4878214Y-16723786D01*
X4892500Y-16709500D01*
X4921071Y-16695214D01*
X5149643Y-16966643D02*
X5163929Y-16980929D01*
X5149643Y-16995214D01*
X5135357Y-16980929D01*
X5149643Y-16966643D01*
X5149643Y-16995214D01*
X5335357Y-16823786D02*
X5306786Y-16809500D01*
X5292500Y-16795214D01*
X5278214Y-16766643D01*
X5278214Y-16752357D01*
X5292500Y-16723786D01*
X5306786Y-16709500D01*
X5335357Y-16695214D01*
X5392500Y-16695214D01*
X5421071Y-16709500D01*
X5435357Y-16723786D01*
X5449643Y-16752357D01*
X5449643Y-16766643D01*
X5435357Y-16795214D01*
X5421071Y-16809500D01*
X5392500Y-16823786D01*
X5335357Y-16823786D01*
X5306786Y-16838072D01*
X5292500Y-16852357D01*
X5278214Y-16880929D01*
X5278214Y-16938072D01*
X5292500Y-16966643D01*
X5306786Y-16980929D01*
X5335357Y-16995214D01*
X5392500Y-16995214D01*
X5421071Y-16980929D01*
X5435357Y-16966643D01*
X5449643Y-16938072D01*
X5449643Y-16880929D01*
X5435357Y-16852357D01*
X5421071Y-16838072D01*
X5392500Y-16823786D01*
X5635357Y-16695214D02*
X5663928Y-16695214D01*
X5692500Y-16709500D01*
X5706786Y-16723786D01*
X5721071Y-16752357D01*
X5735357Y-16809500D01*
X5735357Y-16880929D01*
X5721071Y-16938072D01*
X5706786Y-16966643D01*
X5692500Y-16980929D01*
X5663928Y-16995214D01*
X5635357Y-16995214D01*
X5606786Y-16980929D01*
X5592500Y-16966643D01*
X5578214Y-16938072D01*
X5563929Y-16880929D01*
X5563929Y-16809500D01*
X5578214Y-16752357D01*
X5592500Y-16723786D01*
X5606786Y-16709500D01*
X5635357Y-16695214D01*
X5863928Y-16995214D02*
X5863928Y-16795214D01*
X5863928Y-16823786D02*
X5878214Y-16809500D01*
X5906786Y-16795214D01*
X5949643Y-16795214D01*
X5978214Y-16809500D01*
X5992500Y-16838072D01*
X5992500Y-16995214D01*
X5992500Y-16838072D02*
X6006786Y-16809500D01*
X6035357Y-16795214D01*
X6078214Y-16795214D01*
X6106786Y-16809500D01*
X6121071Y-16838072D01*
X6121071Y-16995214D01*
X6263928Y-16995214D02*
X6263928Y-16795214D01*
X6263928Y-16823786D02*
X6278214Y-16809500D01*
X6306786Y-16795214D01*
X6349643Y-16795214D01*
X6378214Y-16809500D01*
X6392500Y-16838072D01*
X6392500Y-16995214D01*
X6392500Y-16838072D02*
X6406786Y-16809500D01*
X6435357Y-16795214D01*
X6478214Y-16795214D01*
X6506786Y-16809500D01*
X6521071Y-16838072D01*
X6521071Y-16995214D01*
X7106786Y-16680929D02*
X6849643Y-17066643D01*
X7492500Y-16695214D02*
X7521071Y-16695214D01*
X7549643Y-16709500D01*
X7563928Y-16723786D01*
X7578214Y-16752357D01*
X7592500Y-16809500D01*
X7592500Y-16880929D01*
X7578214Y-16938072D01*
X7563928Y-16966643D01*
X7549643Y-16980929D01*
X7521071Y-16995214D01*
X7492500Y-16995214D01*
X7463928Y-16980929D01*
X7449643Y-16966643D01*
X7435357Y-16938072D01*
X7421071Y-16880929D01*
X7421071Y-16809500D01*
X7435357Y-16752357D01*
X7449643Y-16723786D01*
X7463928Y-16709500D01*
X7492500Y-16695214D01*
X7721071Y-16966643D02*
X7735357Y-16980929D01*
X7721071Y-16995214D01*
X7706786Y-16980929D01*
X7721071Y-16966643D01*
X7721071Y-16995214D01*
X7921071Y-16695214D02*
X7949643Y-16695214D01*
X7978214Y-16709500D01*
X7992500Y-16723786D01*
X8006785Y-16752357D01*
X8021071Y-16809500D01*
X8021071Y-16880929D01*
X8006785Y-16938072D01*
X7992500Y-16966643D01*
X7978214Y-16980929D01*
X7949643Y-16995214D01*
X7921071Y-16995214D01*
X7892500Y-16980929D01*
X7878214Y-16966643D01*
X7863928Y-16938072D01*
X7849643Y-16880929D01*
X7849643Y-16809500D01*
X7863928Y-16752357D01*
X7878214Y-16723786D01*
X7892500Y-16709500D01*
X7921071Y-16695214D01*
X8121071Y-16695214D02*
X8306785Y-16695214D01*
X8206785Y-16809500D01*
X8249643Y-16809500D01*
X8278214Y-16823786D01*
X8292500Y-16838072D01*
X8306785Y-16866643D01*
X8306785Y-16938072D01*
X8292500Y-16966643D01*
X8278214Y-16980929D01*
X8249643Y-16995214D01*
X8163928Y-16995214D01*
X8135357Y-16980929D01*
X8121071Y-16966643D01*
X8592500Y-16995214D02*
X8421071Y-16995214D01*
X8506786Y-16995214D02*
X8506786Y-16695214D01*
X8478214Y-16738071D01*
X8449643Y-16766643D01*
X8421071Y-16780929D01*
X8706786Y-16695214D02*
X8706786Y-16752357D01*
X8821071Y-16695214D02*
X8821071Y-16752357D01*
X9263928Y-17109500D02*
X9249643Y-17095214D01*
X9221071Y-17052357D01*
X9206786Y-17023786D01*
X9192500Y-16980929D01*
X9178214Y-16909500D01*
X9178214Y-16852357D01*
X9192500Y-16780929D01*
X9206786Y-16738071D01*
X9221071Y-16709500D01*
X9249643Y-16666643D01*
X9263928Y-16652357D01*
X9363928Y-16723786D02*
X9378214Y-16709500D01*
X9406786Y-16695214D01*
X9478214Y-16695214D01*
X9506786Y-16709500D01*
X9521071Y-16723786D01*
X9535357Y-16752357D01*
X9535357Y-16780929D01*
X9521071Y-16823786D01*
X9349643Y-16995214D01*
X9535357Y-16995214D01*
X9892500Y-16995214D02*
X9892500Y-16695214D01*
X10021071Y-16995214D02*
X10021071Y-16838072D01*
X10006786Y-16809500D01*
X9978214Y-16795214D01*
X9935357Y-16795214D01*
X9906786Y-16809500D01*
X9892500Y-16823786D01*
X10206786Y-16995214D02*
X10178214Y-16980929D01*
X10163928Y-16966643D01*
X10149643Y-16938072D01*
X10149643Y-16852357D01*
X10163928Y-16823786D01*
X10178214Y-16809500D01*
X10206786Y-16795214D01*
X10249643Y-16795214D01*
X10278214Y-16809500D01*
X10292500Y-16823786D01*
X10306786Y-16852357D01*
X10306786Y-16938072D01*
X10292500Y-16966643D01*
X10278214Y-16980929D01*
X10249643Y-16995214D01*
X10206786Y-16995214D01*
X10478214Y-16995214D02*
X10449643Y-16980929D01*
X10435357Y-16952357D01*
X10435357Y-16695214D01*
X10706786Y-16980929D02*
X10678214Y-16995214D01*
X10621071Y-16995214D01*
X10592500Y-16980929D01*
X10578214Y-16952357D01*
X10578214Y-16838072D01*
X10592500Y-16809500D01*
X10621071Y-16795214D01*
X10678214Y-16795214D01*
X10706786Y-16809500D01*
X10721071Y-16838072D01*
X10721071Y-16866643D01*
X10578214Y-16895214D01*
X10835357Y-16980929D02*
X10863929Y-16995214D01*
X10921071Y-16995214D01*
X10949643Y-16980929D01*
X10963929Y-16952357D01*
X10963929Y-16938072D01*
X10949643Y-16909500D01*
X10921071Y-16895214D01*
X10878214Y-16895214D01*
X10849643Y-16880929D01*
X10835357Y-16852357D01*
X10835357Y-16838072D01*
X10849643Y-16809500D01*
X10878214Y-16795214D01*
X10921071Y-16795214D01*
X10949643Y-16809500D01*
X11063928Y-17109500D02*
X11078214Y-17095214D01*
X11106786Y-17052357D01*
X11121071Y-17023786D01*
X11135357Y-16980929D01*
X11149643Y-16909500D01*
X11149643Y-16852357D01*
X11135357Y-16780929D01*
X11121071Y-16738071D01*
X11106786Y-16709500D01*
X11078214Y-16666643D01*
X11063928Y-16652357D01*
X4577856Y-17290856D02*
X4577856Y-17220144D01*
X4507144Y-17220144D01*
X4507144Y-17290856D01*
X4577856Y-17290856D01*
X5021071Y-17391214D02*
X4849643Y-17391214D01*
X4935357Y-17391214D02*
X4935357Y-17091214D01*
X4906786Y-17134072D01*
X4878214Y-17162643D01*
X4849643Y-17176929D01*
X5149643Y-17362643D02*
X5163929Y-17376929D01*
X5149643Y-17391214D01*
X5135357Y-17376929D01*
X5149643Y-17362643D01*
X5149643Y-17391214D01*
X5349643Y-17091214D02*
X5378214Y-17091214D01*
X5406786Y-17105500D01*
X5421071Y-17119786D01*
X5435357Y-17148357D01*
X5449643Y-17205500D01*
X5449643Y-17276929D01*
X5435357Y-17334072D01*
X5421071Y-17362643D01*
X5406786Y-17376929D01*
X5378214Y-17391214D01*
X5349643Y-17391214D01*
X5321071Y-17376929D01*
X5306786Y-17362643D01*
X5292500Y-17334072D01*
X5278214Y-17276929D01*
X5278214Y-17205500D01*
X5292500Y-17148357D01*
X5306786Y-17119786D01*
X5321071Y-17105500D01*
X5349643Y-17091214D01*
X5635357Y-17091214D02*
X5663928Y-17091214D01*
X5692500Y-17105500D01*
X5706786Y-17119786D01*
X5721071Y-17148357D01*
X5735357Y-17205500D01*
X5735357Y-17276929D01*
X5721071Y-17334072D01*
X5706786Y-17362643D01*
X5692500Y-17376929D01*
X5663928Y-17391214D01*
X5635357Y-17391214D01*
X5606786Y-17376929D01*
X5592500Y-17362643D01*
X5578214Y-17334072D01*
X5563929Y-17276929D01*
X5563929Y-17205500D01*
X5578214Y-17148357D01*
X5592500Y-17119786D01*
X5606786Y-17105500D01*
X5635357Y-17091214D01*
X5863928Y-17391214D02*
X5863928Y-17191214D01*
X5863928Y-17219786D02*
X5878214Y-17205500D01*
X5906786Y-17191214D01*
X5949643Y-17191214D01*
X5978214Y-17205500D01*
X5992500Y-17234072D01*
X5992500Y-17391214D01*
X5992500Y-17234072D02*
X6006786Y-17205500D01*
X6035357Y-17191214D01*
X6078214Y-17191214D01*
X6106786Y-17205500D01*
X6121071Y-17234072D01*
X6121071Y-17391214D01*
X6263928Y-17391214D02*
X6263928Y-17191214D01*
X6263928Y-17219786D02*
X6278214Y-17205500D01*
X6306786Y-17191214D01*
X6349643Y-17191214D01*
X6378214Y-17205500D01*
X6392500Y-17234072D01*
X6392500Y-17391214D01*
X6392500Y-17234072D02*
X6406786Y-17205500D01*
X6435357Y-17191214D01*
X6478214Y-17191214D01*
X6506786Y-17205500D01*
X6521071Y-17234072D01*
X6521071Y-17391214D01*
X7106786Y-17076929D02*
X6849643Y-17462643D01*
X7492500Y-17091214D02*
X7521071Y-17091214D01*
X7549643Y-17105500D01*
X7563928Y-17119786D01*
X7578214Y-17148357D01*
X7592500Y-17205500D01*
X7592500Y-17276929D01*
X7578214Y-17334072D01*
X7563928Y-17362643D01*
X7549643Y-17376929D01*
X7521071Y-17391214D01*
X7492500Y-17391214D01*
X7463928Y-17376929D01*
X7449643Y-17362643D01*
X7435357Y-17334072D01*
X7421071Y-17276929D01*
X7421071Y-17205500D01*
X7435357Y-17148357D01*
X7449643Y-17119786D01*
X7463928Y-17105500D01*
X7492500Y-17091214D01*
X7721071Y-17362643D02*
X7735357Y-17376929D01*
X7721071Y-17391214D01*
X7706786Y-17376929D01*
X7721071Y-17362643D01*
X7721071Y-17391214D01*
X7921071Y-17091214D02*
X7949643Y-17091214D01*
X7978214Y-17105500D01*
X7992500Y-17119786D01*
X8006785Y-17148357D01*
X8021071Y-17205500D01*
X8021071Y-17276929D01*
X8006785Y-17334072D01*
X7992500Y-17362643D01*
X7978214Y-17376929D01*
X7949643Y-17391214D01*
X7921071Y-17391214D01*
X7892500Y-17376929D01*
X7878214Y-17362643D01*
X7863928Y-17334072D01*
X7849643Y-17276929D01*
X7849643Y-17205500D01*
X7863928Y-17148357D01*
X7878214Y-17119786D01*
X7892500Y-17105500D01*
X7921071Y-17091214D01*
X8121071Y-17091214D02*
X8306785Y-17091214D01*
X8206785Y-17205500D01*
X8249643Y-17205500D01*
X8278214Y-17219786D01*
X8292500Y-17234072D01*
X8306785Y-17262643D01*
X8306785Y-17334072D01*
X8292500Y-17362643D01*
X8278214Y-17376929D01*
X8249643Y-17391214D01*
X8163928Y-17391214D01*
X8135357Y-17376929D01*
X8121071Y-17362643D01*
X8449643Y-17391214D02*
X8506786Y-17391214D01*
X8535357Y-17376929D01*
X8549643Y-17362643D01*
X8578214Y-17319786D01*
X8592500Y-17262643D01*
X8592500Y-17148357D01*
X8578214Y-17119786D01*
X8563928Y-17105500D01*
X8535357Y-17091214D01*
X8478214Y-17091214D01*
X8449643Y-17105500D01*
X8435357Y-17119786D01*
X8421071Y-17148357D01*
X8421071Y-17219786D01*
X8435357Y-17248357D01*
X8449643Y-17262643D01*
X8478214Y-17276929D01*
X8535357Y-17276929D01*
X8563928Y-17262643D01*
X8578214Y-17248357D01*
X8592500Y-17219786D01*
X8706786Y-17091214D02*
X8706786Y-17148357D01*
X8821071Y-17091214D02*
X8821071Y-17148357D01*
X9263928Y-17505500D02*
X9249643Y-17491214D01*
X9221071Y-17448357D01*
X9206786Y-17419786D01*
X9192500Y-17376929D01*
X9178214Y-17305500D01*
X9178214Y-17248357D01*
X9192500Y-17176929D01*
X9206786Y-17134072D01*
X9221071Y-17105500D01*
X9249643Y-17062643D01*
X9263928Y-17048357D01*
X9506786Y-17191214D02*
X9506786Y-17391214D01*
X9435357Y-17076929D02*
X9363928Y-17291214D01*
X9549643Y-17291214D01*
X9721071Y-17091214D02*
X9749643Y-17091214D01*
X9778214Y-17105500D01*
X9792500Y-17119786D01*
X9806786Y-17148357D01*
X9821071Y-17205500D01*
X9821071Y-17276929D01*
X9806786Y-17334072D01*
X9792500Y-17362643D01*
X9778214Y-17376929D01*
X9749643Y-17391214D01*
X9721071Y-17391214D01*
X9692500Y-17376929D01*
X9678214Y-17362643D01*
X9663928Y-17334072D01*
X9649643Y-17276929D01*
X9649643Y-17205500D01*
X9663928Y-17148357D01*
X9678214Y-17119786D01*
X9692500Y-17105500D01*
X9721071Y-17091214D01*
X10178214Y-17391214D02*
X10178214Y-17091214D01*
X10306786Y-17391214D02*
X10306786Y-17234072D01*
X10292500Y-17205500D01*
X10263928Y-17191214D01*
X10221071Y-17191214D01*
X10192500Y-17205500D01*
X10178214Y-17219786D01*
X10492500Y-17391214D02*
X10463928Y-17376929D01*
X10449643Y-17362643D01*
X10435357Y-17334072D01*
X10435357Y-17248357D01*
X10449643Y-17219786D01*
X10463928Y-17205500D01*
X10492500Y-17191214D01*
X10535357Y-17191214D01*
X10563928Y-17205500D01*
X10578214Y-17219786D01*
X10592500Y-17248357D01*
X10592500Y-17334072D01*
X10578214Y-17362643D01*
X10563928Y-17376929D01*
X10535357Y-17391214D01*
X10492500Y-17391214D01*
X10763928Y-17391214D02*
X10735357Y-17376929D01*
X10721071Y-17348357D01*
X10721071Y-17091214D01*
X10992500Y-17376929D02*
X10963929Y-17391214D01*
X10906786Y-17391214D01*
X10878214Y-17376929D01*
X10863929Y-17348357D01*
X10863929Y-17234072D01*
X10878214Y-17205500D01*
X10906786Y-17191214D01*
X10963929Y-17191214D01*
X10992500Y-17205500D01*
X11006786Y-17234072D01*
X11006786Y-17262643D01*
X10863929Y-17291214D01*
X11121071Y-17376929D02*
X11149643Y-17391214D01*
X11206786Y-17391214D01*
X11235357Y-17376929D01*
X11249643Y-17348357D01*
X11249643Y-17334072D01*
X11235357Y-17305500D01*
X11206786Y-17291214D01*
X11163929Y-17291214D01*
X11135357Y-17276929D01*
X11121071Y-17248357D01*
X11121071Y-17234072D01*
X11135357Y-17205500D01*
X11163929Y-17191214D01*
X11206786Y-17191214D01*
X11235357Y-17205500D01*
X11349643Y-17505500D02*
X11363928Y-17491214D01*
X11392500Y-17448357D01*
X11406786Y-17419786D01*
X11421071Y-17376929D01*
X11435357Y-17305500D01*
X11435357Y-17248357D01*
X11421071Y-17176929D01*
X11406786Y-17134072D01*
X11392500Y-17105500D01*
X11363928Y-17062643D01*
X11349643Y-17048357D01*
X4541700Y-17702300D02*
X4592500Y-17651500D01*
X4541700Y-17600700D01*
X4490900Y-17651500D01*
X4541700Y-17702300D01*
X5021071Y-17787214D02*
X4849643Y-17787214D01*
X4935357Y-17787214D02*
X4935357Y-17487214D01*
X4906786Y-17530072D01*
X4878214Y-17558643D01*
X4849643Y-17572929D01*
X5149643Y-17758643D02*
X5163929Y-17772929D01*
X5149643Y-17787214D01*
X5135357Y-17772929D01*
X5149643Y-17758643D01*
X5149643Y-17787214D01*
X5349643Y-17487214D02*
X5378214Y-17487214D01*
X5406786Y-17501500D01*
X5421071Y-17515786D01*
X5435357Y-17544357D01*
X5449643Y-17601500D01*
X5449643Y-17672929D01*
X5435357Y-17730072D01*
X5421071Y-17758643D01*
X5406786Y-17772929D01*
X5378214Y-17787214D01*
X5349643Y-17787214D01*
X5321071Y-17772929D01*
X5306786Y-17758643D01*
X5292500Y-17730072D01*
X5278214Y-17672929D01*
X5278214Y-17601500D01*
X5292500Y-17544357D01*
X5306786Y-17515786D01*
X5321071Y-17501500D01*
X5349643Y-17487214D01*
X5563929Y-17515786D02*
X5578214Y-17501500D01*
X5606786Y-17487214D01*
X5678214Y-17487214D01*
X5706786Y-17501500D01*
X5721071Y-17515786D01*
X5735357Y-17544357D01*
X5735357Y-17572929D01*
X5721071Y-17615786D01*
X5549643Y-17787214D01*
X5735357Y-17787214D01*
X5863928Y-17787214D02*
X5863928Y-17587214D01*
X5863928Y-17615786D02*
X5878214Y-17601500D01*
X5906786Y-17587214D01*
X5949643Y-17587214D01*
X5978214Y-17601500D01*
X5992500Y-17630072D01*
X5992500Y-17787214D01*
X5992500Y-17630072D02*
X6006786Y-17601500D01*
X6035357Y-17587214D01*
X6078214Y-17587214D01*
X6106786Y-17601500D01*
X6121071Y-17630072D01*
X6121071Y-17787214D01*
X6263928Y-17787214D02*
X6263928Y-17587214D01*
X6263928Y-17615786D02*
X6278214Y-17601500D01*
X6306786Y-17587214D01*
X6349643Y-17587214D01*
X6378214Y-17601500D01*
X6392500Y-17630072D01*
X6392500Y-17787214D01*
X6392500Y-17630072D02*
X6406786Y-17601500D01*
X6435357Y-17587214D01*
X6478214Y-17587214D01*
X6506786Y-17601500D01*
X6521071Y-17630072D01*
X6521071Y-17787214D01*
X7106786Y-17472929D02*
X6849643Y-17858643D01*
X7492500Y-17487214D02*
X7521071Y-17487214D01*
X7549643Y-17501500D01*
X7563928Y-17515786D01*
X7578214Y-17544357D01*
X7592500Y-17601500D01*
X7592500Y-17672929D01*
X7578214Y-17730072D01*
X7563928Y-17758643D01*
X7549643Y-17772929D01*
X7521071Y-17787214D01*
X7492500Y-17787214D01*
X7463928Y-17772929D01*
X7449643Y-17758643D01*
X7435357Y-17730072D01*
X7421071Y-17672929D01*
X7421071Y-17601500D01*
X7435357Y-17544357D01*
X7449643Y-17515786D01*
X7463928Y-17501500D01*
X7492500Y-17487214D01*
X7721071Y-17758643D02*
X7735357Y-17772929D01*
X7721071Y-17787214D01*
X7706786Y-17772929D01*
X7721071Y-17758643D01*
X7721071Y-17787214D01*
X7921071Y-17487214D02*
X7949643Y-17487214D01*
X7978214Y-17501500D01*
X7992500Y-17515786D01*
X8006785Y-17544357D01*
X8021071Y-17601500D01*
X8021071Y-17672929D01*
X8006785Y-17730072D01*
X7992500Y-17758643D01*
X7978214Y-17772929D01*
X7949643Y-17787214D01*
X7921071Y-17787214D01*
X7892500Y-17772929D01*
X7878214Y-17758643D01*
X7863928Y-17730072D01*
X7849643Y-17672929D01*
X7849643Y-17601500D01*
X7863928Y-17544357D01*
X7878214Y-17515786D01*
X7892500Y-17501500D01*
X7921071Y-17487214D01*
X8278214Y-17587214D02*
X8278214Y-17787214D01*
X8206785Y-17472929D02*
X8135357Y-17687214D01*
X8321071Y-17687214D01*
X8492500Y-17487214D02*
X8521071Y-17487214D01*
X8549643Y-17501500D01*
X8563928Y-17515786D01*
X8578214Y-17544357D01*
X8592500Y-17601500D01*
X8592500Y-17672929D01*
X8578214Y-17730072D01*
X8563928Y-17758643D01*
X8549643Y-17772929D01*
X8521071Y-17787214D01*
X8492500Y-17787214D01*
X8463928Y-17772929D01*
X8449643Y-17758643D01*
X8435357Y-17730072D01*
X8421071Y-17672929D01*
X8421071Y-17601500D01*
X8435357Y-17544357D01*
X8449643Y-17515786D01*
X8463928Y-17501500D01*
X8492500Y-17487214D01*
X8706786Y-17487214D02*
X8706786Y-17544357D01*
X8821071Y-17487214D02*
X8821071Y-17544357D01*
X9263928Y-17901500D02*
X9249643Y-17887214D01*
X9221071Y-17844357D01*
X9206786Y-17815786D01*
X9192500Y-17772929D01*
X9178214Y-17701500D01*
X9178214Y-17644357D01*
X9192500Y-17572929D01*
X9206786Y-17530072D01*
X9221071Y-17501500D01*
X9249643Y-17458643D01*
X9263928Y-17444357D01*
X9535357Y-17787214D02*
X9363928Y-17787214D01*
X9449643Y-17787214D02*
X9449643Y-17487214D01*
X9421071Y-17530072D01*
X9392500Y-17558643D01*
X9363928Y-17572929D01*
X9721071Y-17487214D02*
X9749643Y-17487214D01*
X9778214Y-17501500D01*
X9792500Y-17515786D01*
X9806786Y-17544357D01*
X9821071Y-17601500D01*
X9821071Y-17672929D01*
X9806786Y-17730072D01*
X9792500Y-17758643D01*
X9778214Y-17772929D01*
X9749643Y-17787214D01*
X9721071Y-17787214D01*
X9692500Y-17772929D01*
X9678214Y-17758643D01*
X9663928Y-17730072D01*
X9649643Y-17672929D01*
X9649643Y-17601500D01*
X9663928Y-17544357D01*
X9678214Y-17515786D01*
X9692500Y-17501500D01*
X9721071Y-17487214D01*
X10178214Y-17787214D02*
X10178214Y-17487214D01*
X10306786Y-17787214D02*
X10306786Y-17630072D01*
X10292500Y-17601500D01*
X10263928Y-17587214D01*
X10221071Y-17587214D01*
X10192500Y-17601500D01*
X10178214Y-17615786D01*
X10492500Y-17787214D02*
X10463928Y-17772929D01*
X10449643Y-17758643D01*
X10435357Y-17730072D01*
X10435357Y-17644357D01*
X10449643Y-17615786D01*
X10463928Y-17601500D01*
X10492500Y-17587214D01*
X10535357Y-17587214D01*
X10563928Y-17601500D01*
X10578214Y-17615786D01*
X10592500Y-17644357D01*
X10592500Y-17730072D01*
X10578214Y-17758643D01*
X10563928Y-17772929D01*
X10535357Y-17787214D01*
X10492500Y-17787214D01*
X10763928Y-17787214D02*
X10735357Y-17772929D01*
X10721071Y-17744357D01*
X10721071Y-17487214D01*
X10992500Y-17772929D02*
X10963929Y-17787214D01*
X10906786Y-17787214D01*
X10878214Y-17772929D01*
X10863929Y-17744357D01*
X10863929Y-17630072D01*
X10878214Y-17601500D01*
X10906786Y-17587214D01*
X10963929Y-17587214D01*
X10992500Y-17601500D01*
X11006786Y-17630072D01*
X11006786Y-17658643D01*
X10863929Y-17687214D01*
X11121071Y-17772929D02*
X11149643Y-17787214D01*
X11206786Y-17787214D01*
X11235357Y-17772929D01*
X11249643Y-17744357D01*
X11249643Y-17730072D01*
X11235357Y-17701500D01*
X11206786Y-17687214D01*
X11163929Y-17687214D01*
X11135357Y-17672929D01*
X11121071Y-17644357D01*
X11121071Y-17630072D01*
X11135357Y-17601500D01*
X11163929Y-17587214D01*
X11206786Y-17587214D01*
X11235357Y-17601500D01*
X11349643Y-17901500D02*
X11363928Y-17887214D01*
X11392500Y-17844357D01*
X11406786Y-17815786D01*
X11421071Y-17772929D01*
X11435357Y-17701500D01*
X11435357Y-17644357D01*
X11421071Y-17572929D01*
X11406786Y-17530072D01*
X11392500Y-17501500D01*
X11363928Y-17458643D01*
X11349643Y-17444357D01*
X4462500Y-17982500D02*
X4592500Y-18112500D01*
X4592500Y-17982500D02*
X4462500Y-18112500D01*
X4592500Y-18047500D02*
G75*
G03X4592500Y-18047500I-65000J0D01*
G01*
X5021071Y-18183214D02*
X4849643Y-18183214D01*
X4935357Y-18183214D02*
X4935357Y-17883214D01*
X4906786Y-17926072D01*
X4878214Y-17954643D01*
X4849643Y-17968929D01*
X5149643Y-18154643D02*
X5163929Y-18168929D01*
X5149643Y-18183214D01*
X5135357Y-18168929D01*
X5149643Y-18154643D01*
X5149643Y-18183214D01*
X5263928Y-17883214D02*
X5449643Y-17883214D01*
X5349643Y-17997500D01*
X5392500Y-17997500D01*
X5421071Y-18011786D01*
X5435357Y-18026072D01*
X5449643Y-18054643D01*
X5449643Y-18126072D01*
X5435357Y-18154643D01*
X5421071Y-18168929D01*
X5392500Y-18183214D01*
X5306786Y-18183214D01*
X5278214Y-18168929D01*
X5263928Y-18154643D01*
X5635357Y-17883214D02*
X5663928Y-17883214D01*
X5692500Y-17897500D01*
X5706786Y-17911786D01*
X5721071Y-17940357D01*
X5735357Y-17997500D01*
X5735357Y-18068929D01*
X5721071Y-18126072D01*
X5706786Y-18154643D01*
X5692500Y-18168929D01*
X5663928Y-18183214D01*
X5635357Y-18183214D01*
X5606786Y-18168929D01*
X5592500Y-18154643D01*
X5578214Y-18126072D01*
X5563929Y-18068929D01*
X5563929Y-17997500D01*
X5578214Y-17940357D01*
X5592500Y-17911786D01*
X5606786Y-17897500D01*
X5635357Y-17883214D01*
X5863928Y-18183214D02*
X5863928Y-17983214D01*
X5863928Y-18011786D02*
X5878214Y-17997500D01*
X5906786Y-17983214D01*
X5949643Y-17983214D01*
X5978214Y-17997500D01*
X5992500Y-18026072D01*
X5992500Y-18183214D01*
X5992500Y-18026072D02*
X6006786Y-17997500D01*
X6035357Y-17983214D01*
X6078214Y-17983214D01*
X6106786Y-17997500D01*
X6121071Y-18026072D01*
X6121071Y-18183214D01*
X6263928Y-18183214D02*
X6263928Y-17983214D01*
X6263928Y-18011786D02*
X6278214Y-17997500D01*
X6306786Y-17983214D01*
X6349643Y-17983214D01*
X6378214Y-17997500D01*
X6392500Y-18026072D01*
X6392500Y-18183214D01*
X6392500Y-18026072D02*
X6406786Y-17997500D01*
X6435357Y-17983214D01*
X6478214Y-17983214D01*
X6506786Y-17997500D01*
X6521071Y-18026072D01*
X6521071Y-18183214D01*
X7106786Y-17868929D02*
X6849643Y-18254643D01*
X7492500Y-17883214D02*
X7521071Y-17883214D01*
X7549643Y-17897500D01*
X7563928Y-17911786D01*
X7578214Y-17940357D01*
X7592500Y-17997500D01*
X7592500Y-18068929D01*
X7578214Y-18126072D01*
X7563928Y-18154643D01*
X7549643Y-18168929D01*
X7521071Y-18183214D01*
X7492500Y-18183214D01*
X7463928Y-18168929D01*
X7449643Y-18154643D01*
X7435357Y-18126072D01*
X7421071Y-18068929D01*
X7421071Y-17997500D01*
X7435357Y-17940357D01*
X7449643Y-17911786D01*
X7463928Y-17897500D01*
X7492500Y-17883214D01*
X7721071Y-18154643D02*
X7735357Y-18168929D01*
X7721071Y-18183214D01*
X7706786Y-18168929D01*
X7721071Y-18154643D01*
X7721071Y-18183214D01*
X7921071Y-17883214D02*
X7949643Y-17883214D01*
X7978214Y-17897500D01*
X7992500Y-17911786D01*
X8006785Y-17940357D01*
X8021071Y-17997500D01*
X8021071Y-18068929D01*
X8006785Y-18126072D01*
X7992500Y-18154643D01*
X7978214Y-18168929D01*
X7949643Y-18183214D01*
X7921071Y-18183214D01*
X7892500Y-18168929D01*
X7878214Y-18154643D01*
X7863928Y-18126072D01*
X7849643Y-18068929D01*
X7849643Y-17997500D01*
X7863928Y-17940357D01*
X7878214Y-17911786D01*
X7892500Y-17897500D01*
X7921071Y-17883214D01*
X8292500Y-17883214D02*
X8149643Y-17883214D01*
X8135357Y-18026072D01*
X8149643Y-18011786D01*
X8178214Y-17997500D01*
X8249643Y-17997500D01*
X8278214Y-18011786D01*
X8292500Y-18026072D01*
X8306785Y-18054643D01*
X8306785Y-18126072D01*
X8292500Y-18154643D01*
X8278214Y-18168929D01*
X8249643Y-18183214D01*
X8178214Y-18183214D01*
X8149643Y-18168929D01*
X8135357Y-18154643D01*
X8592500Y-18183214D02*
X8421071Y-18183214D01*
X8506786Y-18183214D02*
X8506786Y-17883214D01*
X8478214Y-17926072D01*
X8449643Y-17954643D01*
X8421071Y-17968929D01*
X8706786Y-17883214D02*
X8706786Y-17940357D01*
X8821071Y-17883214D02*
X8821071Y-17940357D01*
X9263928Y-18297500D02*
X9249643Y-18283214D01*
X9221071Y-18240357D01*
X9206786Y-18211786D01*
X9192500Y-18168929D01*
X9178214Y-18097500D01*
X9178214Y-18040357D01*
X9192500Y-17968929D01*
X9206786Y-17926072D01*
X9221071Y-17897500D01*
X9249643Y-17854643D01*
X9263928Y-17840357D01*
X9521071Y-17883214D02*
X9378214Y-17883214D01*
X9363928Y-18026072D01*
X9378214Y-18011786D01*
X9406786Y-17997500D01*
X9478214Y-17997500D01*
X9506786Y-18011786D01*
X9521071Y-18026072D01*
X9535357Y-18054643D01*
X9535357Y-18126072D01*
X9521071Y-18154643D01*
X9506786Y-18168929D01*
X9478214Y-18183214D01*
X9406786Y-18183214D01*
X9378214Y-18168929D01*
X9363928Y-18154643D01*
X9721071Y-17883214D02*
X9749643Y-17883214D01*
X9778214Y-17897500D01*
X9792500Y-17911786D01*
X9806786Y-17940357D01*
X9821071Y-17997500D01*
X9821071Y-18068929D01*
X9806786Y-18126072D01*
X9792500Y-18154643D01*
X9778214Y-18168929D01*
X9749643Y-18183214D01*
X9721071Y-18183214D01*
X9692500Y-18168929D01*
X9678214Y-18154643D01*
X9663928Y-18126072D01*
X9649643Y-18068929D01*
X9649643Y-17997500D01*
X9663928Y-17940357D01*
X9678214Y-17911786D01*
X9692500Y-17897500D01*
X9721071Y-17883214D01*
X10178214Y-18183214D02*
X10178214Y-17883214D01*
X10306786Y-18183214D02*
X10306786Y-18026072D01*
X10292500Y-17997500D01*
X10263928Y-17983214D01*
X10221071Y-17983214D01*
X10192500Y-17997500D01*
X10178214Y-18011786D01*
X10492500Y-18183214D02*
X10463928Y-18168929D01*
X10449643Y-18154643D01*
X10435357Y-18126072D01*
X10435357Y-18040357D01*
X10449643Y-18011786D01*
X10463928Y-17997500D01*
X10492500Y-17983214D01*
X10535357Y-17983214D01*
X10563928Y-17997500D01*
X10578214Y-18011786D01*
X10592500Y-18040357D01*
X10592500Y-18126072D01*
X10578214Y-18154643D01*
X10563928Y-18168929D01*
X10535357Y-18183214D01*
X10492500Y-18183214D01*
X10763928Y-18183214D02*
X10735357Y-18168929D01*
X10721071Y-18140357D01*
X10721071Y-17883214D01*
X10992500Y-18168929D02*
X10963929Y-18183214D01*
X10906786Y-18183214D01*
X10878214Y-18168929D01*
X10863929Y-18140357D01*
X10863929Y-18026072D01*
X10878214Y-17997500D01*
X10906786Y-17983214D01*
X10963929Y-17983214D01*
X10992500Y-17997500D01*
X11006786Y-18026072D01*
X11006786Y-18054643D01*
X10863929Y-18083214D01*
X11121071Y-18168929D02*
X11149643Y-18183214D01*
X11206786Y-18183214D01*
X11235357Y-18168929D01*
X11249643Y-18140357D01*
X11249643Y-18126072D01*
X11235357Y-18097500D01*
X11206786Y-18083214D01*
X11163929Y-18083214D01*
X11135357Y-18068929D01*
X11121071Y-18040357D01*
X11121071Y-18026072D01*
X11135357Y-17997500D01*
X11163929Y-17983214D01*
X11206786Y-17983214D01*
X11235357Y-17997500D01*
X11349643Y-18297500D02*
X11363928Y-18283214D01*
X11392500Y-18240357D01*
X11406786Y-18211786D01*
X11421071Y-18168929D01*
X11435357Y-18097500D01*
X11435357Y-18040357D01*
X11421071Y-17968929D01*
X11406786Y-17926072D01*
X11392500Y-17897500D01*
X11363928Y-17854643D01*
X11349643Y-17840357D01*
M02*
