M48
;DRILL file {KiCad 4.0.5} date 03/02/17 14:55:24
;FORMAT={-:-/ absolute / metric / decimal}
FMAT,2
METRIC,TZ
T1C0.400
T2C0.762
T3C0.800
T4C1.000
T5C1.016
T6C1.300
%
G90
G05
M71
T1
X65.024Y-75.184
X66.421Y-77.851
X70.802Y-122.618
X72.136Y-120.65
X75.819Y-75.184
X77.47Y-77.724
X80.772Y-87.63
X82.042Y-116.332
X83.058Y-116.332
X83.566Y-113.03
X84.582Y-113.03
X85.395Y-99.06
X86.106Y-114.3
X86.36Y-99.187
X87.249Y-115.443
X87.503Y-99.187
X88.138Y-79.248
X88.519Y-121.92
X88.646Y-99.187
X88.9Y-75.946
X89.916Y-99.822
X89.916Y-104.14
X89.916Y-105.41
X90.424Y-98.806
X91.313Y-121.92
X92.583Y-126.111
X92.964Y-104.14
X92.964Y-105.41
X98.044Y-87.122
X98.044Y-121.92
X98.171Y-100.012
X98.273Y-98.298
X99.466Y-87.859
X99.568Y-78.994
X100.33Y-75.692
X100.584Y-110.363
X100.838Y-101.981
X101.854Y-121.92
X102.362Y-103.124
X102.489Y-95.377
X102.743Y-126.111
X105.093Y-97.346
X105.232Y-99.416
X108.204Y-82.169
X108.458Y-121.92
X110.617Y-108.712
X111.76Y-75.946
X113.157Y-126.111
X117.348Y-82.55
X118.745Y-121.92
X121.602Y-112.903
X121.666Y-105.6
X121.666Y-121.92
X121.73Y-96.456
X121.793Y-88.201
X123.063Y-76.2
X123.317Y-126.111
X128.46Y-88.201
X128.524Y-96.456
X128.905Y-80.899
X128.905Y-105.6
X128.905Y-112.903
X129.032Y-121.92
X131.826Y-121.793
X133.604Y-126.111
X133.731Y-77.851
X137.033Y-120.015
X137.477Y-86.995
X137.541Y-97.155
X138.176Y-88.837
X139.7Y-100.584
X143.002Y-91.821
X143.256Y-125.984
X146.304Y-106.934
X147.828Y-92.837
X150.114Y-121.793
X150.749Y-126.619
X152.019Y-93.472
X154.051Y-88.138
X157.099Y-88.138
X157.099Y-93.599
X157.099Y-98.806
X157.099Y-103.632
X157.099Y-108.839
T2
X57.15Y-51.435
X57.15Y-56.515
X57.15Y-61.595
X57.15Y-69.215
X64.77Y-51.435
X64.77Y-56.515
X64.77Y-61.595
X64.77Y-69.215
X68.58Y-51.435
X68.58Y-56.515
X68.58Y-61.595
X68.58Y-69.215
X76.2Y-51.435
X76.2Y-56.515
X76.2Y-61.595
X76.2Y-69.215
X80.015Y-51.412
X80.015Y-56.492
X80.015Y-61.572
X80.015Y-69.192
X87.635Y-51.412
X87.635Y-56.492
X87.635Y-61.572
X87.635Y-69.192
X91.428Y-51.349
X91.428Y-56.429
X91.428Y-61.509
X91.428Y-69.129
X99.048Y-51.349
X99.048Y-56.429
X99.048Y-61.509
X99.048Y-69.129
X102.841Y-51.412
X102.841Y-56.492
X102.841Y-61.572
X102.841Y-69.192
X110.461Y-51.412
X110.461Y-56.492
X110.461Y-61.572
X110.461Y-69.192
X114.254Y-51.412
X114.254Y-56.492
X114.254Y-61.572
X114.254Y-69.192
X121.874Y-51.412
X121.874Y-56.492
X121.874Y-61.572
X121.874Y-69.192
X125.095Y-51.435
X125.095Y-56.515
X125.095Y-61.595
X125.095Y-69.215
X132.715Y-51.435
X132.715Y-56.515
X132.715Y-61.595
X132.715Y-69.215
X136.551Y-51.424
X136.551Y-56.504
X136.551Y-61.584
X136.551Y-69.204
X144.171Y-51.424
X144.171Y-56.504
X144.171Y-61.584
X144.171Y-69.204
T3
X100.584Y-112.014
X105.464Y-112.014
T4
X74.93Y-82.55
X74.93Y-85.09
X74.93Y-87.63
X74.93Y-90.17
X74.93Y-92.71
X74.93Y-95.25
X74.93Y-97.79
X74.93Y-100.33
X74.93Y-102.87
X74.93Y-105.41
X74.93Y-107.95
X74.93Y-110.49
X74.93Y-113.03
X74.93Y-115.57
X74.93Y-118.11
X74.93Y-120.65
X74.93Y-123.19
X74.93Y-125.73
X74.93Y-128.27
X74.93Y-130.81
X77.47Y-82.55
X77.47Y-85.09
X77.47Y-87.63
X77.47Y-90.17
X77.47Y-92.71
X77.47Y-95.25
X77.47Y-97.79
X77.47Y-100.33
X77.47Y-102.87
X77.47Y-105.41
X77.47Y-107.95
X77.47Y-110.49
X77.47Y-113.03
X77.47Y-115.57
X77.47Y-118.11
X77.47Y-120.65
X77.47Y-123.19
X77.47Y-125.73
X77.47Y-128.27
X77.47Y-130.81
T5
X58.42Y-127.635
X58.42Y-130.175
X58.42Y-132.715
X58.42Y-135.255
X58.42Y-137.795
X60.96Y-127.635
X60.96Y-130.175
X60.96Y-132.715
X60.96Y-135.255
X60.96Y-137.795
T6
X57.71Y-43.815
X60.325Y-82.475
X60.325Y-87.475
X60.325Y-92.475
X60.325Y-97.475
X60.325Y-102.475
X60.325Y-107.475
X60.325Y-112.475
X60.325Y-117.475
X62.71Y-43.815
X67.71Y-43.815
X68.504Y-141.63
X72.71Y-43.815
X73.504Y-141.63
X77.71Y-43.815
X78.504Y-141.63
X82.71Y-43.815
X83.504Y-141.63
X87.71Y-43.815
X88.504Y-141.63
X92.71Y-43.815
X93.504Y-141.63
X98.504Y-141.63
X98.985Y-43.815
X103.504Y-141.63
X103.985Y-43.815
X108.985Y-43.815
X109.855Y-141.605
X113.985Y-43.815
X114.855Y-141.605
X118.985Y-43.815
X119.855Y-141.605
X123.985Y-43.815
X124.855Y-141.605
X128.985Y-43.815
X129.855Y-141.605
X133.985Y-43.815
X134.855Y-141.605
X139.855Y-141.605
X144.855Y-141.605
X151.003Y-141.605
X153.162Y-40.692
X153.162Y-45.692
X153.162Y-50.692
X153.162Y-55.692
X153.162Y-60.692
X153.162Y-65.692
X153.162Y-70.692
X153.162Y-75.692
X156.003Y-141.605
T0
M30
