%FSLAX45Y45*%
G04 Gerber Fmt 4.5, Leading zero omitted, Abs format (unit mm)*
G04 Created by KiCad (PCBNEW 4.0.5) date 03/01/17 15:40:58*
%MOMM*%
%LPD*%
G01*
G04 APERTURE LIST*
%ADD10C,0.127000*%
%ADD11C,0.150000*%
%ADD12C,0.200000*%
%ADD13C,0.300000*%
G04 APERTURE END LIST*
D10*
D11*
X4851400Y-3302000D02*
X4851400Y-3327400D01*
X16408400Y-3302000D02*
X16408400Y-3327400D01*
X4851400Y-14884400D02*
X4851400Y-3327400D01*
X16408400Y-14884400D02*
X4851400Y-14884400D01*
X16408400Y-3327400D02*
X16408400Y-14884400D01*
X4851400Y-3302000D02*
X16408400Y-3302000D01*
D12*
X6482400Y-7498400D02*
X6522400Y-7538400D01*
X6522400Y-7498400D02*
X6482400Y-7538400D01*
X6622100Y-7765100D02*
X6662100Y-7805100D01*
X6662100Y-7765100D02*
X6622100Y-7805100D01*
X7060250Y-12241850D02*
X7100250Y-12281850D01*
X7100250Y-12241850D02*
X7060250Y-12281850D01*
X7193600Y-12045000D02*
X7233600Y-12085000D01*
X7233600Y-12045000D02*
X7193600Y-12085000D01*
X7561900Y-7498400D02*
X7601900Y-7538400D01*
X7601900Y-7498400D02*
X7561900Y-7538400D01*
X7727000Y-7752400D02*
X7767000Y-7792400D01*
X7767000Y-7752400D02*
X7727000Y-7792400D01*
X8057200Y-8743000D02*
X8097200Y-8783000D01*
X8097200Y-8743000D02*
X8057200Y-8783000D01*
X8184200Y-11613200D02*
X8224200Y-11653200D01*
X8224200Y-11613200D02*
X8184200Y-11653200D01*
X8285800Y-11613200D02*
X8325800Y-11653200D01*
X8325800Y-11613200D02*
X8285800Y-11653200D01*
X8336600Y-11283000D02*
X8376600Y-11323000D01*
X8376600Y-11283000D02*
X8336600Y-11323000D01*
X8438200Y-11283000D02*
X8478200Y-11323000D01*
X8478200Y-11283000D02*
X8438200Y-11323000D01*
X8519480Y-9886000D02*
X8559480Y-9926000D01*
X8559480Y-9886000D02*
X8519480Y-9926000D01*
X8590600Y-11410000D02*
X8630600Y-11450000D01*
X8630600Y-11410000D02*
X8590600Y-11450000D01*
X8616000Y-9898700D02*
X8656000Y-9938700D01*
X8656000Y-9898700D02*
X8616000Y-9938700D01*
X8704900Y-11524300D02*
X8744900Y-11564300D01*
X8744900Y-11524300D02*
X8704900Y-11564300D01*
X8730300Y-9898700D02*
X8770300Y-9938700D01*
X8770300Y-9898700D02*
X8730300Y-9938700D01*
X8793800Y-7904800D02*
X8833800Y-7944800D01*
X8833800Y-7904800D02*
X8793800Y-7944800D01*
X8831900Y-12172000D02*
X8871900Y-12212000D01*
X8871900Y-12172000D02*
X8831900Y-12212000D01*
X8844600Y-9898700D02*
X8884600Y-9938700D01*
X8884600Y-9898700D02*
X8844600Y-9938700D01*
X8870000Y-7574600D02*
X8910000Y-7614600D01*
X8910000Y-7574600D02*
X8870000Y-7614600D01*
X8971600Y-9962200D02*
X9011600Y-10002200D01*
X9011600Y-9962200D02*
X8971600Y-10002200D01*
X8971600Y-10394000D02*
X9011600Y-10434000D01*
X9011600Y-10394000D02*
X8971600Y-10434000D01*
X8971600Y-10521000D02*
X9011600Y-10561000D01*
X9011600Y-10521000D02*
X8971600Y-10561000D01*
X9022400Y-9860600D02*
X9062400Y-9900600D01*
X9062400Y-9860600D02*
X9022400Y-9900600D01*
X9111300Y-12172000D02*
X9151300Y-12212000D01*
X9151300Y-12172000D02*
X9111300Y-12212000D01*
X9238300Y-12591100D02*
X9278300Y-12631100D01*
X9278300Y-12591100D02*
X9238300Y-12631100D01*
X9276400Y-10394000D02*
X9316400Y-10434000D01*
X9316400Y-10394000D02*
X9276400Y-10434000D01*
X9276400Y-10521000D02*
X9316400Y-10561000D01*
X9316400Y-10521000D02*
X9276400Y-10561000D01*
X9784400Y-8692200D02*
X9824400Y-8732200D01*
X9824400Y-8692200D02*
X9784400Y-8732200D01*
X9784400Y-12172000D02*
X9824400Y-12212000D01*
X9824400Y-12172000D02*
X9784400Y-12212000D01*
X9797100Y-9981250D02*
X9837100Y-10021250D01*
X9837100Y-9981250D02*
X9797100Y-10021250D01*
X9807260Y-9809800D02*
X9847260Y-9849800D01*
X9847260Y-9809800D02*
X9807260Y-9849800D01*
X9926640Y-8765860D02*
X9966640Y-8805860D01*
X9966640Y-8765860D02*
X9926640Y-8805860D01*
X9936800Y-7879400D02*
X9976800Y-7919400D01*
X9976800Y-7879400D02*
X9936800Y-7919400D01*
X10013000Y-7549200D02*
X10053000Y-7589200D01*
X10053000Y-7549200D02*
X10013000Y-7589200D01*
X10038400Y-11016300D02*
X10078400Y-11056300D01*
X10078400Y-11016300D02*
X10038400Y-11056300D01*
X10063800Y-10178100D02*
X10103800Y-10218100D01*
X10103800Y-10178100D02*
X10063800Y-10218100D01*
X10165400Y-12172000D02*
X10205400Y-12212000D01*
X10205400Y-12172000D02*
X10165400Y-12212000D01*
X10216200Y-10292400D02*
X10256200Y-10332400D01*
X10256200Y-10292400D02*
X10216200Y-10332400D01*
X10228900Y-9517700D02*
X10268900Y-9557700D01*
X10268900Y-9517700D02*
X10228900Y-9557700D01*
X10254300Y-12591100D02*
X10294300Y-12631100D01*
X10294300Y-12591100D02*
X10254300Y-12631100D01*
X10489250Y-9714550D02*
X10529250Y-9754550D01*
X10529250Y-9714550D02*
X10489250Y-9754550D01*
X10503220Y-9921560D02*
X10543220Y-9961560D01*
X10543220Y-9921560D02*
X10503220Y-9961560D01*
X10800400Y-8196900D02*
X10840400Y-8236900D01*
X10840400Y-8196900D02*
X10800400Y-8236900D01*
X10825800Y-12172000D02*
X10865800Y-12212000D01*
X10865800Y-12172000D02*
X10825800Y-12212000D01*
X11041700Y-10851200D02*
X11081700Y-10891200D01*
X11081700Y-10851200D02*
X11041700Y-10891200D01*
X11156000Y-7574600D02*
X11196000Y-7614600D01*
X11196000Y-7574600D02*
X11156000Y-7614600D01*
X11295700Y-12591100D02*
X11335700Y-12631100D01*
X11335700Y-12591100D02*
X11295700Y-12631100D01*
X11714800Y-8235000D02*
X11754800Y-8275000D01*
X11754800Y-8235000D02*
X11714800Y-8275000D01*
X11854500Y-12172000D02*
X11894500Y-12212000D01*
X11894500Y-12172000D02*
X11854500Y-12212000D01*
X12140250Y-11270300D02*
X12180250Y-11310300D01*
X12180250Y-11270300D02*
X12140250Y-11310300D01*
X12146600Y-10540050D02*
X12186600Y-10580050D01*
X12186600Y-10540050D02*
X12146600Y-10580050D01*
X12146600Y-12172000D02*
X12186600Y-12212000D01*
X12186600Y-12172000D02*
X12146600Y-12212000D01*
X12152950Y-9625650D02*
X12192950Y-9665650D01*
X12192950Y-9625650D02*
X12152950Y-9665650D01*
X12159300Y-8800150D02*
X12199300Y-8840150D01*
X12199300Y-8800150D02*
X12159300Y-8840150D01*
X12286300Y-7600000D02*
X12326300Y-7640000D01*
X12326300Y-7600000D02*
X12286300Y-7640000D01*
X12311700Y-12591100D02*
X12351700Y-12631100D01*
X12351700Y-12591100D02*
X12311700Y-12631100D01*
X12826050Y-8800150D02*
X12866050Y-8840150D01*
X12866050Y-8800150D02*
X12826050Y-8840150D01*
X12832400Y-9625650D02*
X12872400Y-9665650D01*
X12872400Y-9625650D02*
X12832400Y-9665650D01*
X12870500Y-8069900D02*
X12910500Y-8109900D01*
X12910500Y-8069900D02*
X12870500Y-8109900D01*
X12870500Y-10540050D02*
X12910500Y-10580050D01*
X12910500Y-10540050D02*
X12870500Y-10580050D01*
X12870500Y-11270300D02*
X12910500Y-11310300D01*
X12910500Y-11270300D02*
X12870500Y-11310300D01*
X12883200Y-12172000D02*
X12923200Y-12212000D01*
X12923200Y-12172000D02*
X12883200Y-12212000D01*
X13162600Y-12159300D02*
X13202600Y-12199300D01*
X13202600Y-12159300D02*
X13162600Y-12199300D01*
X13340400Y-12591100D02*
X13380400Y-12631100D01*
X13380400Y-12591100D02*
X13340400Y-12631100D01*
X13353100Y-7765100D02*
X13393100Y-7805100D01*
X13393100Y-7765100D02*
X13353100Y-7805100D01*
X13683300Y-11981500D02*
X13723300Y-12021500D01*
X13723300Y-11981500D02*
X13683300Y-12021500D01*
X13727750Y-8679500D02*
X13767750Y-8719500D01*
X13767750Y-8679500D02*
X13727750Y-8719500D01*
X13734100Y-9695500D02*
X13774100Y-9735500D01*
X13774100Y-9695500D02*
X13734100Y-9735500D01*
X13797600Y-8863650D02*
X13837600Y-8903650D01*
X13837600Y-8863650D02*
X13797600Y-8903650D01*
X13950000Y-10038400D02*
X13990000Y-10078400D01*
X13990000Y-10038400D02*
X13950000Y-10078400D01*
X14280200Y-9162100D02*
X14320200Y-9202100D01*
X14320200Y-9162100D02*
X14280200Y-9202100D01*
X14305600Y-12578400D02*
X14345600Y-12618400D01*
X14345600Y-12578400D02*
X14305600Y-12618400D01*
X14610400Y-10673400D02*
X14650400Y-10713400D01*
X14650400Y-10673400D02*
X14610400Y-10713400D01*
X14762800Y-9263700D02*
X14802800Y-9303700D01*
X14802800Y-9263700D02*
X14762800Y-9303700D01*
X14991400Y-12159300D02*
X15031400Y-12199300D01*
X15031400Y-12159300D02*
X14991400Y-12199300D01*
X15054900Y-12641900D02*
X15094900Y-12681900D01*
X15094900Y-12641900D02*
X15054900Y-12681900D01*
X15181900Y-9327200D02*
X15221900Y-9367200D01*
X15221900Y-9327200D02*
X15181900Y-9367200D01*
X5753100Y-5143500D02*
G75*
G03X5753100Y-5143500I-38100J0D01*
G01*
X5753100Y-5651500D02*
G75*
G03X5753100Y-5651500I-38100J0D01*
G01*
X5753100Y-6159500D02*
G75*
G03X5753100Y-6159500I-38100J0D01*
G01*
X5753100Y-6921500D02*
G75*
G03X5753100Y-6921500I-38100J0D01*
G01*
X6515100Y-5143500D02*
G75*
G03X6515100Y-5143500I-38100J0D01*
G01*
X6515100Y-5651500D02*
G75*
G03X6515100Y-5651500I-38100J0D01*
G01*
X6515100Y-6159500D02*
G75*
G03X6515100Y-6159500I-38100J0D01*
G01*
X6515100Y-6921500D02*
G75*
G03X6515100Y-6921500I-38100J0D01*
G01*
X6896100Y-5143500D02*
G75*
G03X6896100Y-5143500I-38100J0D01*
G01*
X6896100Y-5651500D02*
G75*
G03X6896100Y-5651500I-38100J0D01*
G01*
X6896100Y-6159500D02*
G75*
G03X6896100Y-6159500I-38100J0D01*
G01*
X6896100Y-6921500D02*
G75*
G03X6896100Y-6921500I-38100J0D01*
G01*
X7658100Y-5143500D02*
G75*
G03X7658100Y-5143500I-38100J0D01*
G01*
X7658100Y-5651500D02*
G75*
G03X7658100Y-5651500I-38100J0D01*
G01*
X7658100Y-6159500D02*
G75*
G03X7658100Y-6159500I-38100J0D01*
G01*
X7658100Y-6921500D02*
G75*
G03X7658100Y-6921500I-38100J0D01*
G01*
X8039576Y-5141250D02*
G75*
G03X8039576Y-5141250I-38100J0D01*
G01*
X8039576Y-5649250D02*
G75*
G03X8039576Y-5649250I-38100J0D01*
G01*
X8039576Y-6157250D02*
G75*
G03X8039576Y-6157250I-38100J0D01*
G01*
X8039576Y-6919250D02*
G75*
G03X8039576Y-6919250I-38100J0D01*
G01*
X8801576Y-5141250D02*
G75*
G03X8801576Y-5141250I-38100J0D01*
G01*
X8801576Y-5649250D02*
G75*
G03X8801576Y-5649250I-38100J0D01*
G01*
X8801576Y-6157250D02*
G75*
G03X8801576Y-6157250I-38100J0D01*
G01*
X8801576Y-6919250D02*
G75*
G03X8801576Y-6919250I-38100J0D01*
G01*
X9180876Y-5134900D02*
G75*
G03X9180876Y-5134900I-38100J0D01*
G01*
X9180876Y-5642900D02*
G75*
G03X9180876Y-5642900I-38100J0D01*
G01*
X9180876Y-6150900D02*
G75*
G03X9180876Y-6150900I-38100J0D01*
G01*
X9180876Y-6912900D02*
G75*
G03X9180876Y-6912900I-38100J0D01*
G01*
X9942876Y-5134900D02*
G75*
G03X9942876Y-5134900I-38100J0D01*
G01*
X9942876Y-5642900D02*
G75*
G03X9942876Y-5642900I-38100J0D01*
G01*
X9942876Y-6150900D02*
G75*
G03X9942876Y-6150900I-38100J0D01*
G01*
X9942876Y-6912900D02*
G75*
G03X9942876Y-6912900I-38100J0D01*
G01*
X10322176Y-5141250D02*
G75*
G03X10322176Y-5141250I-38100J0D01*
G01*
X10322176Y-5649250D02*
G75*
G03X10322176Y-5649250I-38100J0D01*
G01*
X10322176Y-6157250D02*
G75*
G03X10322176Y-6157250I-38100J0D01*
G01*
X10322176Y-6919250D02*
G75*
G03X10322176Y-6919250I-38100J0D01*
G01*
X11084176Y-5141250D02*
G75*
G03X11084176Y-5141250I-38100J0D01*
G01*
X11084176Y-5649250D02*
G75*
G03X11084176Y-5649250I-38100J0D01*
G01*
X11084176Y-6157250D02*
G75*
G03X11084176Y-6157250I-38100J0D01*
G01*
X11084176Y-6919250D02*
G75*
G03X11084176Y-6919250I-38100J0D01*
G01*
X11463476Y-5141250D02*
G75*
G03X11463476Y-5141250I-38100J0D01*
G01*
X11463476Y-5649250D02*
G75*
G03X11463476Y-5649250I-38100J0D01*
G01*
X11463476Y-6157250D02*
G75*
G03X11463476Y-6157250I-38100J0D01*
G01*
X11463476Y-6919250D02*
G75*
G03X11463476Y-6919250I-38100J0D01*
G01*
X12225476Y-5141250D02*
G75*
G03X12225476Y-5141250I-38100J0D01*
G01*
X12225476Y-5649250D02*
G75*
G03X12225476Y-5649250I-38100J0D01*
G01*
X12225476Y-6157250D02*
G75*
G03X12225476Y-6157250I-38100J0D01*
G01*
X12225476Y-6919250D02*
G75*
G03X12225476Y-6919250I-38100J0D01*
G01*
X12547600Y-5143500D02*
G75*
G03X12547600Y-5143500I-38100J0D01*
G01*
X12547600Y-5651500D02*
G75*
G03X12547600Y-5651500I-38100J0D01*
G01*
X12547600Y-6159500D02*
G75*
G03X12547600Y-6159500I-38100J0D01*
G01*
X12547600Y-6921500D02*
G75*
G03X12547600Y-6921500I-38100J0D01*
G01*
X13309600Y-5143500D02*
G75*
G03X13309600Y-5143500I-38100J0D01*
G01*
X13309600Y-5651500D02*
G75*
G03X13309600Y-5651500I-38100J0D01*
G01*
X13309600Y-6159500D02*
G75*
G03X13309600Y-6159500I-38100J0D01*
G01*
X13309600Y-6921500D02*
G75*
G03X13309600Y-6921500I-38100J0D01*
G01*
X13693226Y-5142400D02*
G75*
G03X13693226Y-5142400I-38100J0D01*
G01*
X13693226Y-5650400D02*
G75*
G03X13693226Y-5650400I-38100J0D01*
G01*
X13693226Y-6158400D02*
G75*
G03X13693226Y-6158400I-38100J0D01*
G01*
X13693226Y-6920400D02*
G75*
G03X13693226Y-6920400I-38100J0D01*
G01*
X14455226Y-5142400D02*
G75*
G03X14455226Y-5142400I-38100J0D01*
G01*
X14455226Y-5650400D02*
G75*
G03X14455226Y-5650400I-38100J0D01*
G01*
X14455226Y-6158400D02*
G75*
G03X14455226Y-6158400I-38100J0D01*
G01*
X14455226Y-6920400D02*
G75*
G03X14455226Y-6920400I-38100J0D01*
G01*
X10058400Y-11161400D02*
X10058400Y-11241400D01*
X10018400Y-11201400D02*
X10098400Y-11201400D01*
X10546400Y-11161400D02*
X10546400Y-11241400D01*
X10506400Y-11201400D02*
X10586400Y-11201400D01*
X7528356Y-8290356D02*
X7528356Y-8219644D01*
X7457644Y-8219644D01*
X7457644Y-8290356D01*
X7528356Y-8290356D01*
X7528356Y-8544356D02*
X7528356Y-8473644D01*
X7457644Y-8473644D01*
X7457644Y-8544356D01*
X7528356Y-8544356D01*
X7528356Y-8798356D02*
X7528356Y-8727644D01*
X7457644Y-8727644D01*
X7457644Y-8798356D01*
X7528356Y-8798356D01*
X7528356Y-9052356D02*
X7528356Y-8981644D01*
X7457644Y-8981644D01*
X7457644Y-9052356D01*
X7528356Y-9052356D01*
X7528356Y-9306356D02*
X7528356Y-9235644D01*
X7457644Y-9235644D01*
X7457644Y-9306356D01*
X7528356Y-9306356D01*
X7528356Y-9560356D02*
X7528356Y-9489644D01*
X7457644Y-9489644D01*
X7457644Y-9560356D01*
X7528356Y-9560356D01*
X7528356Y-9814356D02*
X7528356Y-9743644D01*
X7457644Y-9743644D01*
X7457644Y-9814356D01*
X7528356Y-9814356D01*
X7528356Y-10068356D02*
X7528356Y-9997644D01*
X7457644Y-9997644D01*
X7457644Y-10068356D01*
X7528356Y-10068356D01*
X7528356Y-10322356D02*
X7528356Y-10251644D01*
X7457644Y-10251644D01*
X7457644Y-10322356D01*
X7528356Y-10322356D01*
X7528356Y-10576356D02*
X7528356Y-10505644D01*
X7457644Y-10505644D01*
X7457644Y-10576356D01*
X7528356Y-10576356D01*
X7528356Y-10830356D02*
X7528356Y-10759644D01*
X7457644Y-10759644D01*
X7457644Y-10830356D01*
X7528356Y-10830356D01*
X7528356Y-11084356D02*
X7528356Y-11013644D01*
X7457644Y-11013644D01*
X7457644Y-11084356D01*
X7528356Y-11084356D01*
X7528356Y-11338356D02*
X7528356Y-11267644D01*
X7457644Y-11267644D01*
X7457644Y-11338356D01*
X7528356Y-11338356D01*
X7528356Y-11592356D02*
X7528356Y-11521644D01*
X7457644Y-11521644D01*
X7457644Y-11592356D01*
X7528356Y-11592356D01*
X7528356Y-11846356D02*
X7528356Y-11775644D01*
X7457644Y-11775644D01*
X7457644Y-11846356D01*
X7528356Y-11846356D01*
X7528356Y-12100356D02*
X7528356Y-12029644D01*
X7457644Y-12029644D01*
X7457644Y-12100356D01*
X7528356Y-12100356D01*
X7528356Y-12354356D02*
X7528356Y-12283644D01*
X7457644Y-12283644D01*
X7457644Y-12354356D01*
X7528356Y-12354356D01*
X7528356Y-12608356D02*
X7528356Y-12537644D01*
X7457644Y-12537644D01*
X7457644Y-12608356D01*
X7528356Y-12608356D01*
X7528356Y-12862356D02*
X7528356Y-12791644D01*
X7457644Y-12791644D01*
X7457644Y-12862356D01*
X7528356Y-12862356D01*
X7528356Y-13116356D02*
X7528356Y-13045644D01*
X7457644Y-13045644D01*
X7457644Y-13116356D01*
X7528356Y-13116356D01*
X7782356Y-8290356D02*
X7782356Y-8219644D01*
X7711644Y-8219644D01*
X7711644Y-8290356D01*
X7782356Y-8290356D01*
X7782356Y-8544356D02*
X7782356Y-8473644D01*
X7711644Y-8473644D01*
X7711644Y-8544356D01*
X7782356Y-8544356D01*
X7782356Y-8798356D02*
X7782356Y-8727644D01*
X7711644Y-8727644D01*
X7711644Y-8798356D01*
X7782356Y-8798356D01*
X7782356Y-9052356D02*
X7782356Y-8981644D01*
X7711644Y-8981644D01*
X7711644Y-9052356D01*
X7782356Y-9052356D01*
X7782356Y-9306356D02*
X7782356Y-9235644D01*
X7711644Y-9235644D01*
X7711644Y-9306356D01*
X7782356Y-9306356D01*
X7782356Y-9560356D02*
X7782356Y-9489644D01*
X7711644Y-9489644D01*
X7711644Y-9560356D01*
X7782356Y-9560356D01*
X7782356Y-9814356D02*
X7782356Y-9743644D01*
X7711644Y-9743644D01*
X7711644Y-9814356D01*
X7782356Y-9814356D01*
X7782356Y-10068356D02*
X7782356Y-9997644D01*
X7711644Y-9997644D01*
X7711644Y-10068356D01*
X7782356Y-10068356D01*
X7782356Y-10322356D02*
X7782356Y-10251644D01*
X7711644Y-10251644D01*
X7711644Y-10322356D01*
X7782356Y-10322356D01*
X7782356Y-10576356D02*
X7782356Y-10505644D01*
X7711644Y-10505644D01*
X7711644Y-10576356D01*
X7782356Y-10576356D01*
X7782356Y-10830356D02*
X7782356Y-10759644D01*
X7711644Y-10759644D01*
X7711644Y-10830356D01*
X7782356Y-10830356D01*
X7782356Y-11084356D02*
X7782356Y-11013644D01*
X7711644Y-11013644D01*
X7711644Y-11084356D01*
X7782356Y-11084356D01*
X7782356Y-11338356D02*
X7782356Y-11267644D01*
X7711644Y-11267644D01*
X7711644Y-11338356D01*
X7782356Y-11338356D01*
X7782356Y-11592356D02*
X7782356Y-11521644D01*
X7711644Y-11521644D01*
X7711644Y-11592356D01*
X7782356Y-11592356D01*
X7782356Y-11846356D02*
X7782356Y-11775644D01*
X7711644Y-11775644D01*
X7711644Y-11846356D01*
X7782356Y-11846356D01*
X7782356Y-12100356D02*
X7782356Y-12029644D01*
X7711644Y-12029644D01*
X7711644Y-12100356D01*
X7782356Y-12100356D01*
X7782356Y-12354356D02*
X7782356Y-12283644D01*
X7711644Y-12283644D01*
X7711644Y-12354356D01*
X7782356Y-12354356D01*
X7782356Y-12608356D02*
X7782356Y-12537644D01*
X7711644Y-12537644D01*
X7711644Y-12608356D01*
X7782356Y-12608356D01*
X7782356Y-12862356D02*
X7782356Y-12791644D01*
X7711644Y-12791644D01*
X7711644Y-12862356D01*
X7782356Y-12862356D01*
X7782356Y-13116356D02*
X7782356Y-13045644D01*
X7711644Y-13045644D01*
X7711644Y-13116356D01*
X7782356Y-13116356D01*
X5842000Y-12814300D02*
X5892800Y-12763500D01*
X5842000Y-12712700D01*
X5791200Y-12763500D01*
X5842000Y-12814300D01*
X5842000Y-13068300D02*
X5892800Y-13017500D01*
X5842000Y-12966700D01*
X5791200Y-13017500D01*
X5842000Y-13068300D01*
X5842000Y-13322300D02*
X5892800Y-13271500D01*
X5842000Y-13220700D01*
X5791200Y-13271500D01*
X5842000Y-13322300D01*
X5842000Y-13576300D02*
X5892800Y-13525500D01*
X5842000Y-13474700D01*
X5791200Y-13525500D01*
X5842000Y-13576300D01*
X5842000Y-13830300D02*
X5892800Y-13779500D01*
X5842000Y-13728700D01*
X5791200Y-13779500D01*
X5842000Y-13830300D01*
X6096000Y-12814300D02*
X6146800Y-12763500D01*
X6096000Y-12712700D01*
X6045200Y-12763500D01*
X6096000Y-12814300D01*
X6096000Y-13068300D02*
X6146800Y-13017500D01*
X6096000Y-12966700D01*
X6045200Y-13017500D01*
X6096000Y-13068300D01*
X6096000Y-13322300D02*
X6146800Y-13271500D01*
X6096000Y-13220700D01*
X6045200Y-13271500D01*
X6096000Y-13322300D01*
X6096000Y-13576300D02*
X6146800Y-13525500D01*
X6096000Y-13474700D01*
X6045200Y-13525500D01*
X6096000Y-13576300D01*
X6096000Y-13830300D02*
X6146800Y-13779500D01*
X6096000Y-13728700D01*
X6045200Y-13779500D01*
X6096000Y-13830300D01*
X5706000Y-4316500D02*
X5836000Y-4446500D01*
X5836000Y-4316500D02*
X5706000Y-4446500D01*
X5836000Y-4381500D02*
G75*
G03X5836000Y-4381500I-65000J0D01*
G01*
X5967500Y-8182500D02*
X6097500Y-8312500D01*
X6097500Y-8182500D02*
X5967500Y-8312500D01*
X6097500Y-8247500D02*
G75*
G03X6097500Y-8247500I-65000J0D01*
G01*
X5967500Y-8682500D02*
X6097500Y-8812500D01*
X6097500Y-8682500D02*
X5967500Y-8812500D01*
X6097500Y-8747500D02*
G75*
G03X6097500Y-8747500I-65000J0D01*
G01*
X5967500Y-9182500D02*
X6097500Y-9312500D01*
X6097500Y-9182500D02*
X5967500Y-9312500D01*
X6097500Y-9247500D02*
G75*
G03X6097500Y-9247500I-65000J0D01*
G01*
X5967500Y-9682500D02*
X6097500Y-9812500D01*
X6097500Y-9682500D02*
X5967500Y-9812500D01*
X6097500Y-9747500D02*
G75*
G03X6097500Y-9747500I-65000J0D01*
G01*
X5967500Y-10182500D02*
X6097500Y-10312500D01*
X6097500Y-10182500D02*
X5967500Y-10312500D01*
X6097500Y-10247500D02*
G75*
G03X6097500Y-10247500I-65000J0D01*
G01*
X5967500Y-10682500D02*
X6097500Y-10812500D01*
X6097500Y-10682500D02*
X5967500Y-10812500D01*
X6097500Y-10747500D02*
G75*
G03X6097500Y-10747500I-65000J0D01*
G01*
X5967500Y-11182500D02*
X6097500Y-11312500D01*
X6097500Y-11182500D02*
X5967500Y-11312500D01*
X6097500Y-11247500D02*
G75*
G03X6097500Y-11247500I-65000J0D01*
G01*
X5967500Y-11682500D02*
X6097500Y-11812500D01*
X6097500Y-11682500D02*
X5967500Y-11812500D01*
X6097500Y-11747500D02*
G75*
G03X6097500Y-11747500I-65000J0D01*
G01*
X6206000Y-4316500D02*
X6336000Y-4446500D01*
X6336000Y-4316500D02*
X6206000Y-4446500D01*
X6336000Y-4381500D02*
G75*
G03X6336000Y-4381500I-65000J0D01*
G01*
X6706000Y-4316500D02*
X6836000Y-4446500D01*
X6836000Y-4316500D02*
X6706000Y-4446500D01*
X6836000Y-4381500D02*
G75*
G03X6836000Y-4381500I-65000J0D01*
G01*
X6785380Y-14098040D02*
X6915380Y-14228040D01*
X6915380Y-14098040D02*
X6785380Y-14228040D01*
X6915380Y-14163040D02*
G75*
G03X6915380Y-14163040I-65000J0D01*
G01*
X7206000Y-4316500D02*
X7336000Y-4446500D01*
X7336000Y-4316500D02*
X7206000Y-4446500D01*
X7336000Y-4381500D02*
G75*
G03X7336000Y-4381500I-65000J0D01*
G01*
X7285380Y-14098040D02*
X7415380Y-14228040D01*
X7415380Y-14098040D02*
X7285380Y-14228040D01*
X7415380Y-14163040D02*
G75*
G03X7415380Y-14163040I-65000J0D01*
G01*
X7706000Y-4316500D02*
X7836000Y-4446500D01*
X7836000Y-4316500D02*
X7706000Y-4446500D01*
X7836000Y-4381500D02*
G75*
G03X7836000Y-4381500I-65000J0D01*
G01*
X7785380Y-14098040D02*
X7915380Y-14228040D01*
X7915380Y-14098040D02*
X7785380Y-14228040D01*
X7915380Y-14163040D02*
G75*
G03X7915380Y-14163040I-65000J0D01*
G01*
X8206000Y-4316500D02*
X8336000Y-4446500D01*
X8336000Y-4316500D02*
X8206000Y-4446500D01*
X8336000Y-4381500D02*
G75*
G03X8336000Y-4381500I-65000J0D01*
G01*
X8285380Y-14098040D02*
X8415380Y-14228040D01*
X8415380Y-14098040D02*
X8285380Y-14228040D01*
X8415380Y-14163040D02*
G75*
G03X8415380Y-14163040I-65000J0D01*
G01*
X8706000Y-4316500D02*
X8836000Y-4446500D01*
X8836000Y-4316500D02*
X8706000Y-4446500D01*
X8836000Y-4381500D02*
G75*
G03X8836000Y-4381500I-65000J0D01*
G01*
X8785380Y-14098040D02*
X8915380Y-14228040D01*
X8915380Y-14098040D02*
X8785380Y-14228040D01*
X8915380Y-14163040D02*
G75*
G03X8915380Y-14163040I-65000J0D01*
G01*
X9206000Y-4316500D02*
X9336000Y-4446500D01*
X9336000Y-4316500D02*
X9206000Y-4446500D01*
X9336000Y-4381500D02*
G75*
G03X9336000Y-4381500I-65000J0D01*
G01*
X9285380Y-14098040D02*
X9415380Y-14228040D01*
X9415380Y-14098040D02*
X9285380Y-14228040D01*
X9415380Y-14163040D02*
G75*
G03X9415380Y-14163040I-65000J0D01*
G01*
X9785380Y-14098040D02*
X9915380Y-14228040D01*
X9915380Y-14098040D02*
X9785380Y-14228040D01*
X9915380Y-14163040D02*
G75*
G03X9915380Y-14163040I-65000J0D01*
G01*
X9833500Y-4316500D02*
X9963500Y-4446500D01*
X9963500Y-4316500D02*
X9833500Y-4446500D01*
X9963500Y-4381500D02*
G75*
G03X9963500Y-4381500I-65000J0D01*
G01*
X10285380Y-14098040D02*
X10415380Y-14228040D01*
X10415380Y-14098040D02*
X10285380Y-14228040D01*
X10415380Y-14163040D02*
G75*
G03X10415380Y-14163040I-65000J0D01*
G01*
X10333500Y-4316500D02*
X10463500Y-4446500D01*
X10463500Y-4316500D02*
X10333500Y-4446500D01*
X10463500Y-4381500D02*
G75*
G03X10463500Y-4381500I-65000J0D01*
G01*
X10833500Y-4316500D02*
X10963500Y-4446500D01*
X10963500Y-4316500D02*
X10833500Y-4446500D01*
X10963500Y-4381500D02*
G75*
G03X10963500Y-4381500I-65000J0D01*
G01*
X10920500Y-14095500D02*
X11050500Y-14225500D01*
X11050500Y-14095500D02*
X10920500Y-14225500D01*
X11050500Y-14160500D02*
G75*
G03X11050500Y-14160500I-65000J0D01*
G01*
X11333500Y-4316500D02*
X11463500Y-4446500D01*
X11463500Y-4316500D02*
X11333500Y-4446500D01*
X11463500Y-4381500D02*
G75*
G03X11463500Y-4381500I-65000J0D01*
G01*
X11420500Y-14095500D02*
X11550500Y-14225500D01*
X11550500Y-14095500D02*
X11420500Y-14225500D01*
X11550500Y-14160500D02*
G75*
G03X11550500Y-14160500I-65000J0D01*
G01*
X11833500Y-4316500D02*
X11963500Y-4446500D01*
X11963500Y-4316500D02*
X11833500Y-4446500D01*
X11963500Y-4381500D02*
G75*
G03X11963500Y-4381500I-65000J0D01*
G01*
X11920500Y-14095500D02*
X12050500Y-14225500D01*
X12050500Y-14095500D02*
X11920500Y-14225500D01*
X12050500Y-14160500D02*
G75*
G03X12050500Y-14160500I-65000J0D01*
G01*
X12333500Y-4316500D02*
X12463500Y-4446500D01*
X12463500Y-4316500D02*
X12333500Y-4446500D01*
X12463500Y-4381500D02*
G75*
G03X12463500Y-4381500I-65000J0D01*
G01*
X12420500Y-14095500D02*
X12550500Y-14225500D01*
X12550500Y-14095500D02*
X12420500Y-14225500D01*
X12550500Y-14160500D02*
G75*
G03X12550500Y-14160500I-65000J0D01*
G01*
X12833500Y-4316500D02*
X12963500Y-4446500D01*
X12963500Y-4316500D02*
X12833500Y-4446500D01*
X12963500Y-4381500D02*
G75*
G03X12963500Y-4381500I-65000J0D01*
G01*
X12920500Y-14095500D02*
X13050500Y-14225500D01*
X13050500Y-14095500D02*
X12920500Y-14225500D01*
X13050500Y-14160500D02*
G75*
G03X13050500Y-14160500I-65000J0D01*
G01*
X13333500Y-4316500D02*
X13463500Y-4446500D01*
X13463500Y-4316500D02*
X13333500Y-4446500D01*
X13463500Y-4381500D02*
G75*
G03X13463500Y-4381500I-65000J0D01*
G01*
X13420500Y-14095500D02*
X13550500Y-14225500D01*
X13550500Y-14095500D02*
X13420500Y-14225500D01*
X13550500Y-14160500D02*
G75*
G03X13550500Y-14160500I-65000J0D01*
G01*
X13920500Y-14095500D02*
X14050500Y-14225500D01*
X14050500Y-14095500D02*
X13920500Y-14225500D01*
X14050500Y-14160500D02*
G75*
G03X14050500Y-14160500I-65000J0D01*
G01*
X14420500Y-14095500D02*
X14550500Y-14225500D01*
X14550500Y-14095500D02*
X14420500Y-14225500D01*
X14550500Y-14160500D02*
G75*
G03X14550500Y-14160500I-65000J0D01*
G01*
X15035300Y-14095500D02*
X15165300Y-14225500D01*
X15165300Y-14095500D02*
X15035300Y-14225500D01*
X15165300Y-14160500D02*
G75*
G03X15165300Y-14160500I-65000J0D01*
G01*
X15238500Y-4118500D02*
X15368500Y-4248500D01*
X15368500Y-4118500D02*
X15238500Y-4248500D01*
X15368500Y-4183500D02*
G75*
G03X15368500Y-4183500I-65000J0D01*
G01*
X15238500Y-4618500D02*
X15368500Y-4748500D01*
X15368500Y-4618500D02*
X15238500Y-4748500D01*
X15368500Y-4683500D02*
G75*
G03X15368500Y-4683500I-65000J0D01*
G01*
X15238500Y-5118500D02*
X15368500Y-5248500D01*
X15368500Y-5118500D02*
X15238500Y-5248500D01*
X15368500Y-5183500D02*
G75*
G03X15368500Y-5183500I-65000J0D01*
G01*
X15238500Y-5618500D02*
X15368500Y-5748500D01*
X15368500Y-5618500D02*
X15238500Y-5748500D01*
X15368500Y-5683500D02*
G75*
G03X15368500Y-5683500I-65000J0D01*
G01*
X15238500Y-6118500D02*
X15368500Y-6248500D01*
X15368500Y-6118500D02*
X15238500Y-6248500D01*
X15368500Y-6183500D02*
G75*
G03X15368500Y-6183500I-65000J0D01*
G01*
X15238500Y-6618500D02*
X15368500Y-6748500D01*
X15368500Y-6618500D02*
X15238500Y-6748500D01*
X15368500Y-6683500D02*
G75*
G03X15368500Y-6683500I-65000J0D01*
G01*
X15238500Y-7118500D02*
X15368500Y-7248500D01*
X15368500Y-7118500D02*
X15238500Y-7248500D01*
X15368500Y-7183500D02*
G75*
G03X15368500Y-7183500I-65000J0D01*
G01*
X15238500Y-7618500D02*
X15368500Y-7748500D01*
X15368500Y-7618500D02*
X15238500Y-7748500D01*
X15368500Y-7683500D02*
G75*
G03X15368500Y-7683500I-65000J0D01*
G01*
X15535300Y-14095500D02*
X15665300Y-14225500D01*
X15665300Y-14095500D02*
X15535300Y-14225500D01*
X15665300Y-14160500D02*
G75*
G03X15665300Y-14160500I-65000J0D01*
G01*
D13*
X5115329Y-15357614D02*
X5115329Y-15057614D01*
X5186757Y-15057614D01*
X5229614Y-15071900D01*
X5258186Y-15100471D01*
X5272471Y-15129043D01*
X5286757Y-15186186D01*
X5286757Y-15229043D01*
X5272471Y-15286186D01*
X5258186Y-15314757D01*
X5229614Y-15343329D01*
X5186757Y-15357614D01*
X5115329Y-15357614D01*
X5415329Y-15357614D02*
X5415329Y-15157614D01*
X5415329Y-15214757D02*
X5429614Y-15186186D01*
X5443900Y-15171900D01*
X5472471Y-15157614D01*
X5501043Y-15157614D01*
X5601043Y-15357614D02*
X5601043Y-15157614D01*
X5601043Y-15057614D02*
X5586757Y-15071900D01*
X5601043Y-15086186D01*
X5615328Y-15071900D01*
X5601043Y-15057614D01*
X5601043Y-15086186D01*
X5786757Y-15357614D02*
X5758186Y-15343329D01*
X5743900Y-15314757D01*
X5743900Y-15057614D01*
X5943900Y-15357614D02*
X5915328Y-15343329D01*
X5901043Y-15314757D01*
X5901043Y-15057614D01*
X6286757Y-15357614D02*
X6286757Y-15057614D01*
X6386757Y-15271900D01*
X6486757Y-15057614D01*
X6486757Y-15357614D01*
X6758186Y-15357614D02*
X6758186Y-15200471D01*
X6743900Y-15171900D01*
X6715328Y-15157614D01*
X6658186Y-15157614D01*
X6629614Y-15171900D01*
X6758186Y-15343329D02*
X6729614Y-15357614D01*
X6658186Y-15357614D01*
X6629614Y-15343329D01*
X6615328Y-15314757D01*
X6615328Y-15286186D01*
X6629614Y-15257614D01*
X6658186Y-15243329D01*
X6729614Y-15243329D01*
X6758186Y-15229043D01*
X6901043Y-15157614D02*
X6901043Y-15457614D01*
X6901043Y-15171900D02*
X6929614Y-15157614D01*
X6986757Y-15157614D01*
X7015328Y-15171900D01*
X7029614Y-15186186D01*
X7043900Y-15214757D01*
X7043900Y-15300471D01*
X7029614Y-15329043D01*
X7015328Y-15343329D01*
X6986757Y-15357614D01*
X6929614Y-15357614D01*
X6901043Y-15343329D01*
X7172471Y-15329043D02*
X7186757Y-15343329D01*
X7172471Y-15357614D01*
X7158186Y-15343329D01*
X7172471Y-15329043D01*
X7172471Y-15357614D01*
X7172471Y-15171900D02*
X7186757Y-15186186D01*
X7172471Y-15200471D01*
X7158186Y-15186186D01*
X7172471Y-15171900D01*
X7172471Y-15200471D01*
X4803900Y-15831900D02*
X4843900Y-15871900D01*
X4843900Y-15831900D02*
X4803900Y-15871900D01*
X5172471Y-15687614D02*
X5201043Y-15687614D01*
X5229614Y-15701900D01*
X5243900Y-15716186D01*
X5258186Y-15744757D01*
X5272471Y-15801900D01*
X5272471Y-15873329D01*
X5258186Y-15930471D01*
X5243900Y-15959043D01*
X5229614Y-15973329D01*
X5201043Y-15987614D01*
X5172471Y-15987614D01*
X5143900Y-15973329D01*
X5129614Y-15959043D01*
X5115329Y-15930471D01*
X5101043Y-15873329D01*
X5101043Y-15801900D01*
X5115329Y-15744757D01*
X5129614Y-15716186D01*
X5143900Y-15701900D01*
X5172471Y-15687614D01*
X5401043Y-15959043D02*
X5415329Y-15973329D01*
X5401043Y-15987614D01*
X5386757Y-15973329D01*
X5401043Y-15959043D01*
X5401043Y-15987614D01*
X5672471Y-15787614D02*
X5672471Y-15987614D01*
X5601043Y-15673329D02*
X5529614Y-15887614D01*
X5715328Y-15887614D01*
X5886757Y-15687614D02*
X5915328Y-15687614D01*
X5943900Y-15701900D01*
X5958186Y-15716186D01*
X5972471Y-15744757D01*
X5986757Y-15801900D01*
X5986757Y-15873329D01*
X5972471Y-15930471D01*
X5958186Y-15959043D01*
X5943900Y-15973329D01*
X5915328Y-15987614D01*
X5886757Y-15987614D01*
X5858186Y-15973329D01*
X5843900Y-15959043D01*
X5829614Y-15930471D01*
X5815328Y-15873329D01*
X5815328Y-15801900D01*
X5829614Y-15744757D01*
X5843900Y-15716186D01*
X5858186Y-15701900D01*
X5886757Y-15687614D01*
X6115328Y-15987614D02*
X6115328Y-15787614D01*
X6115328Y-15816186D02*
X6129614Y-15801900D01*
X6158186Y-15787614D01*
X6201043Y-15787614D01*
X6229614Y-15801900D01*
X6243900Y-15830471D01*
X6243900Y-15987614D01*
X6243900Y-15830471D02*
X6258186Y-15801900D01*
X6286757Y-15787614D01*
X6329614Y-15787614D01*
X6358186Y-15801900D01*
X6372471Y-15830471D01*
X6372471Y-15987614D01*
X6515328Y-15987614D02*
X6515328Y-15787614D01*
X6515328Y-15816186D02*
X6529614Y-15801900D01*
X6558186Y-15787614D01*
X6601043Y-15787614D01*
X6629614Y-15801900D01*
X6643900Y-15830471D01*
X6643900Y-15987614D01*
X6643900Y-15830471D02*
X6658186Y-15801900D01*
X6686757Y-15787614D01*
X6729614Y-15787614D01*
X6758186Y-15801900D01*
X6772471Y-15830471D01*
X6772471Y-15987614D01*
X7358186Y-15673329D02*
X7101043Y-16059043D01*
X7743900Y-15687614D02*
X7772471Y-15687614D01*
X7801043Y-15701900D01*
X7815328Y-15716186D01*
X7829614Y-15744757D01*
X7843900Y-15801900D01*
X7843900Y-15873329D01*
X7829614Y-15930471D01*
X7815328Y-15959043D01*
X7801043Y-15973329D01*
X7772471Y-15987614D01*
X7743900Y-15987614D01*
X7715328Y-15973329D01*
X7701043Y-15959043D01*
X7686757Y-15930471D01*
X7672471Y-15873329D01*
X7672471Y-15801900D01*
X7686757Y-15744757D01*
X7701043Y-15716186D01*
X7715328Y-15701900D01*
X7743900Y-15687614D01*
X7972471Y-15959043D02*
X7986757Y-15973329D01*
X7972471Y-15987614D01*
X7958186Y-15973329D01*
X7972471Y-15959043D01*
X7972471Y-15987614D01*
X8172471Y-15687614D02*
X8201043Y-15687614D01*
X8229614Y-15701900D01*
X8243900Y-15716186D01*
X8258185Y-15744757D01*
X8272471Y-15801900D01*
X8272471Y-15873329D01*
X8258185Y-15930471D01*
X8243900Y-15959043D01*
X8229614Y-15973329D01*
X8201043Y-15987614D01*
X8172471Y-15987614D01*
X8143900Y-15973329D01*
X8129614Y-15959043D01*
X8115328Y-15930471D01*
X8101043Y-15873329D01*
X8101043Y-15801900D01*
X8115328Y-15744757D01*
X8129614Y-15716186D01*
X8143900Y-15701900D01*
X8172471Y-15687614D01*
X8558186Y-15987614D02*
X8386757Y-15987614D01*
X8472471Y-15987614D02*
X8472471Y-15687614D01*
X8443900Y-15730471D01*
X8415328Y-15759043D01*
X8386757Y-15773329D01*
X8815328Y-15687614D02*
X8758186Y-15687614D01*
X8729614Y-15701900D01*
X8715328Y-15716186D01*
X8686757Y-15759043D01*
X8672471Y-15816186D01*
X8672471Y-15930471D01*
X8686757Y-15959043D01*
X8701043Y-15973329D01*
X8729614Y-15987614D01*
X8786757Y-15987614D01*
X8815328Y-15973329D01*
X8829614Y-15959043D01*
X8843900Y-15930471D01*
X8843900Y-15859043D01*
X8829614Y-15830471D01*
X8815328Y-15816186D01*
X8786757Y-15801900D01*
X8729614Y-15801900D01*
X8701043Y-15816186D01*
X8686757Y-15830471D01*
X8672471Y-15859043D01*
X8958186Y-15687614D02*
X8958186Y-15744757D01*
X9072471Y-15687614D02*
X9072471Y-15744757D01*
X9515328Y-16101900D02*
X9501043Y-16087614D01*
X9472471Y-16044757D01*
X9458186Y-16016186D01*
X9443900Y-15973329D01*
X9429614Y-15901900D01*
X9429614Y-15844757D01*
X9443900Y-15773329D01*
X9458186Y-15730471D01*
X9472471Y-15701900D01*
X9501043Y-15659043D01*
X9515328Y-15644757D01*
X9601043Y-15687614D02*
X9801043Y-15687614D01*
X9672471Y-15987614D01*
X9958186Y-15816186D02*
X9929614Y-15801900D01*
X9915328Y-15787614D01*
X9901043Y-15759043D01*
X9901043Y-15744757D01*
X9915328Y-15716186D01*
X9929614Y-15701900D01*
X9958186Y-15687614D01*
X10015328Y-15687614D01*
X10043900Y-15701900D01*
X10058186Y-15716186D01*
X10072471Y-15744757D01*
X10072471Y-15759043D01*
X10058186Y-15787614D01*
X10043900Y-15801900D01*
X10015328Y-15816186D01*
X9958186Y-15816186D01*
X9929614Y-15830471D01*
X9915328Y-15844757D01*
X9901043Y-15873329D01*
X9901043Y-15930471D01*
X9915328Y-15959043D01*
X9929614Y-15973329D01*
X9958186Y-15987614D01*
X10015328Y-15987614D01*
X10043900Y-15973329D01*
X10058186Y-15959043D01*
X10072471Y-15930471D01*
X10072471Y-15873329D01*
X10058186Y-15844757D01*
X10043900Y-15830471D01*
X10015328Y-15816186D01*
X10429614Y-15987614D02*
X10429614Y-15687614D01*
X10558186Y-15987614D02*
X10558186Y-15830471D01*
X10543900Y-15801900D01*
X10515328Y-15787614D01*
X10472471Y-15787614D01*
X10443900Y-15801900D01*
X10429614Y-15816186D01*
X10743900Y-15987614D02*
X10715328Y-15973329D01*
X10701043Y-15959043D01*
X10686757Y-15930471D01*
X10686757Y-15844757D01*
X10701043Y-15816186D01*
X10715328Y-15801900D01*
X10743900Y-15787614D01*
X10786757Y-15787614D01*
X10815328Y-15801900D01*
X10829614Y-15816186D01*
X10843900Y-15844757D01*
X10843900Y-15930471D01*
X10829614Y-15959043D01*
X10815328Y-15973329D01*
X10786757Y-15987614D01*
X10743900Y-15987614D01*
X11015328Y-15987614D02*
X10986757Y-15973329D01*
X10972471Y-15944757D01*
X10972471Y-15687614D01*
X11243900Y-15973329D02*
X11215328Y-15987614D01*
X11158186Y-15987614D01*
X11129614Y-15973329D01*
X11115329Y-15944757D01*
X11115329Y-15830471D01*
X11129614Y-15801900D01*
X11158186Y-15787614D01*
X11215328Y-15787614D01*
X11243900Y-15801900D01*
X11258186Y-15830471D01*
X11258186Y-15859043D01*
X11115329Y-15887614D01*
X11372471Y-15973329D02*
X11401043Y-15987614D01*
X11458186Y-15987614D01*
X11486757Y-15973329D01*
X11501043Y-15944757D01*
X11501043Y-15930471D01*
X11486757Y-15901900D01*
X11458186Y-15887614D01*
X11415328Y-15887614D01*
X11386757Y-15873329D01*
X11372471Y-15844757D01*
X11372471Y-15830471D01*
X11386757Y-15801900D01*
X11415328Y-15787614D01*
X11458186Y-15787614D01*
X11486757Y-15801900D01*
X11601043Y-16101900D02*
X11615328Y-16087614D01*
X11643900Y-16044757D01*
X11658186Y-16016186D01*
X11672471Y-15973329D01*
X11686757Y-15901900D01*
X11686757Y-15844757D01*
X11672471Y-15773329D01*
X11658186Y-15730471D01*
X11643900Y-15701900D01*
X11615328Y-15659043D01*
X11601043Y-15644757D01*
X4843900Y-16247900D02*
G75*
G03X4843900Y-16247900I-38100J0D01*
G01*
X5172471Y-16083614D02*
X5201043Y-16083614D01*
X5229614Y-16097900D01*
X5243900Y-16112186D01*
X5258186Y-16140757D01*
X5272471Y-16197900D01*
X5272471Y-16269329D01*
X5258186Y-16326471D01*
X5243900Y-16355043D01*
X5229614Y-16369329D01*
X5201043Y-16383614D01*
X5172471Y-16383614D01*
X5143900Y-16369329D01*
X5129614Y-16355043D01*
X5115329Y-16326471D01*
X5101043Y-16269329D01*
X5101043Y-16197900D01*
X5115329Y-16140757D01*
X5129614Y-16112186D01*
X5143900Y-16097900D01*
X5172471Y-16083614D01*
X5401043Y-16355043D02*
X5415329Y-16369329D01*
X5401043Y-16383614D01*
X5386757Y-16369329D01*
X5401043Y-16355043D01*
X5401043Y-16383614D01*
X5515328Y-16083614D02*
X5715328Y-16083614D01*
X5586757Y-16383614D01*
X5958186Y-16083614D02*
X5901043Y-16083614D01*
X5872471Y-16097900D01*
X5858186Y-16112186D01*
X5829614Y-16155043D01*
X5815328Y-16212186D01*
X5815328Y-16326471D01*
X5829614Y-16355043D01*
X5843900Y-16369329D01*
X5872471Y-16383614D01*
X5929614Y-16383614D01*
X5958186Y-16369329D01*
X5972471Y-16355043D01*
X5986757Y-16326471D01*
X5986757Y-16255043D01*
X5972471Y-16226471D01*
X5958186Y-16212186D01*
X5929614Y-16197900D01*
X5872471Y-16197900D01*
X5843900Y-16212186D01*
X5829614Y-16226471D01*
X5815328Y-16255043D01*
X6115328Y-16383614D02*
X6115328Y-16183614D01*
X6115328Y-16212186D02*
X6129614Y-16197900D01*
X6158186Y-16183614D01*
X6201043Y-16183614D01*
X6229614Y-16197900D01*
X6243900Y-16226471D01*
X6243900Y-16383614D01*
X6243900Y-16226471D02*
X6258186Y-16197900D01*
X6286757Y-16183614D01*
X6329614Y-16183614D01*
X6358186Y-16197900D01*
X6372471Y-16226471D01*
X6372471Y-16383614D01*
X6515328Y-16383614D02*
X6515328Y-16183614D01*
X6515328Y-16212186D02*
X6529614Y-16197900D01*
X6558186Y-16183614D01*
X6601043Y-16183614D01*
X6629614Y-16197900D01*
X6643900Y-16226471D01*
X6643900Y-16383614D01*
X6643900Y-16226471D02*
X6658186Y-16197900D01*
X6686757Y-16183614D01*
X6729614Y-16183614D01*
X6758186Y-16197900D01*
X6772471Y-16226471D01*
X6772471Y-16383614D01*
X7358186Y-16069329D02*
X7101043Y-16455043D01*
X7743900Y-16083614D02*
X7772471Y-16083614D01*
X7801043Y-16097900D01*
X7815328Y-16112186D01*
X7829614Y-16140757D01*
X7843900Y-16197900D01*
X7843900Y-16269329D01*
X7829614Y-16326471D01*
X7815328Y-16355043D01*
X7801043Y-16369329D01*
X7772471Y-16383614D01*
X7743900Y-16383614D01*
X7715328Y-16369329D01*
X7701043Y-16355043D01*
X7686757Y-16326471D01*
X7672471Y-16269329D01*
X7672471Y-16197900D01*
X7686757Y-16140757D01*
X7701043Y-16112186D01*
X7715328Y-16097900D01*
X7743900Y-16083614D01*
X7972471Y-16355043D02*
X7986757Y-16369329D01*
X7972471Y-16383614D01*
X7958186Y-16369329D01*
X7972471Y-16355043D01*
X7972471Y-16383614D01*
X8172471Y-16083614D02*
X8201043Y-16083614D01*
X8229614Y-16097900D01*
X8243900Y-16112186D01*
X8258185Y-16140757D01*
X8272471Y-16197900D01*
X8272471Y-16269329D01*
X8258185Y-16326471D01*
X8243900Y-16355043D01*
X8229614Y-16369329D01*
X8201043Y-16383614D01*
X8172471Y-16383614D01*
X8143900Y-16369329D01*
X8129614Y-16355043D01*
X8115328Y-16326471D01*
X8101043Y-16269329D01*
X8101043Y-16197900D01*
X8115328Y-16140757D01*
X8129614Y-16112186D01*
X8143900Y-16097900D01*
X8172471Y-16083614D01*
X8372471Y-16083614D02*
X8558186Y-16083614D01*
X8458186Y-16197900D01*
X8501043Y-16197900D01*
X8529614Y-16212186D01*
X8543900Y-16226471D01*
X8558186Y-16255043D01*
X8558186Y-16326471D01*
X8543900Y-16355043D01*
X8529614Y-16369329D01*
X8501043Y-16383614D01*
X8415328Y-16383614D01*
X8386757Y-16369329D01*
X8372471Y-16355043D01*
X8743900Y-16083614D02*
X8772471Y-16083614D01*
X8801043Y-16097900D01*
X8815328Y-16112186D01*
X8829614Y-16140757D01*
X8843900Y-16197900D01*
X8843900Y-16269329D01*
X8829614Y-16326471D01*
X8815328Y-16355043D01*
X8801043Y-16369329D01*
X8772471Y-16383614D01*
X8743900Y-16383614D01*
X8715328Y-16369329D01*
X8701043Y-16355043D01*
X8686757Y-16326471D01*
X8672471Y-16269329D01*
X8672471Y-16197900D01*
X8686757Y-16140757D01*
X8701043Y-16112186D01*
X8715328Y-16097900D01*
X8743900Y-16083614D01*
X8958186Y-16083614D02*
X8958186Y-16140757D01*
X9072471Y-16083614D02*
X9072471Y-16140757D01*
X9515328Y-16497900D02*
X9501043Y-16483614D01*
X9472471Y-16440757D01*
X9458186Y-16412186D01*
X9443900Y-16369329D01*
X9429614Y-16297900D01*
X9429614Y-16240757D01*
X9443900Y-16169329D01*
X9458186Y-16126471D01*
X9472471Y-16097900D01*
X9501043Y-16055043D01*
X9515328Y-16040757D01*
X9758186Y-16083614D02*
X9701043Y-16083614D01*
X9672471Y-16097900D01*
X9658186Y-16112186D01*
X9629614Y-16155043D01*
X9615328Y-16212186D01*
X9615328Y-16326471D01*
X9629614Y-16355043D01*
X9643900Y-16369329D01*
X9672471Y-16383614D01*
X9729614Y-16383614D01*
X9758186Y-16369329D01*
X9772471Y-16355043D01*
X9786757Y-16326471D01*
X9786757Y-16255043D01*
X9772471Y-16226471D01*
X9758186Y-16212186D01*
X9729614Y-16197900D01*
X9672471Y-16197900D01*
X9643900Y-16212186D01*
X9629614Y-16226471D01*
X9615328Y-16255043D01*
X10043900Y-16183614D02*
X10043900Y-16383614D01*
X9972471Y-16069329D02*
X9901043Y-16283614D01*
X10086757Y-16283614D01*
X10429614Y-16383614D02*
X10429614Y-16083614D01*
X10558186Y-16383614D02*
X10558186Y-16226471D01*
X10543900Y-16197900D01*
X10515328Y-16183614D01*
X10472471Y-16183614D01*
X10443900Y-16197900D01*
X10429614Y-16212186D01*
X10743900Y-16383614D02*
X10715328Y-16369329D01*
X10701043Y-16355043D01*
X10686757Y-16326471D01*
X10686757Y-16240757D01*
X10701043Y-16212186D01*
X10715328Y-16197900D01*
X10743900Y-16183614D01*
X10786757Y-16183614D01*
X10815328Y-16197900D01*
X10829614Y-16212186D01*
X10843900Y-16240757D01*
X10843900Y-16326471D01*
X10829614Y-16355043D01*
X10815328Y-16369329D01*
X10786757Y-16383614D01*
X10743900Y-16383614D01*
X11015328Y-16383614D02*
X10986757Y-16369329D01*
X10972471Y-16340757D01*
X10972471Y-16083614D01*
X11243900Y-16369329D02*
X11215328Y-16383614D01*
X11158186Y-16383614D01*
X11129614Y-16369329D01*
X11115329Y-16340757D01*
X11115329Y-16226471D01*
X11129614Y-16197900D01*
X11158186Y-16183614D01*
X11215328Y-16183614D01*
X11243900Y-16197900D01*
X11258186Y-16226471D01*
X11258186Y-16255043D01*
X11115329Y-16283614D01*
X11372471Y-16369329D02*
X11401043Y-16383614D01*
X11458186Y-16383614D01*
X11486757Y-16369329D01*
X11501043Y-16340757D01*
X11501043Y-16326471D01*
X11486757Y-16297900D01*
X11458186Y-16283614D01*
X11415328Y-16283614D01*
X11386757Y-16269329D01*
X11372471Y-16240757D01*
X11372471Y-16226471D01*
X11386757Y-16197900D01*
X11415328Y-16183614D01*
X11458186Y-16183614D01*
X11486757Y-16197900D01*
X11601043Y-16497900D02*
X11615328Y-16483614D01*
X11643900Y-16440757D01*
X11658186Y-16412186D01*
X11672471Y-16369329D01*
X11686757Y-16297900D01*
X11686757Y-16240757D01*
X11672471Y-16169329D01*
X11658186Y-16126471D01*
X11643900Y-16097900D01*
X11615328Y-16055043D01*
X11601043Y-16040757D01*
X4803900Y-16603900D02*
X4803900Y-16683900D01*
X4763900Y-16643900D02*
X4843900Y-16643900D01*
X5172471Y-16479614D02*
X5201043Y-16479614D01*
X5229614Y-16493900D01*
X5243900Y-16508186D01*
X5258186Y-16536757D01*
X5272471Y-16593900D01*
X5272471Y-16665329D01*
X5258186Y-16722471D01*
X5243900Y-16751043D01*
X5229614Y-16765329D01*
X5201043Y-16779614D01*
X5172471Y-16779614D01*
X5143900Y-16765329D01*
X5129614Y-16751043D01*
X5115329Y-16722471D01*
X5101043Y-16665329D01*
X5101043Y-16593900D01*
X5115329Y-16536757D01*
X5129614Y-16508186D01*
X5143900Y-16493900D01*
X5172471Y-16479614D01*
X5401043Y-16751043D02*
X5415329Y-16765329D01*
X5401043Y-16779614D01*
X5386757Y-16765329D01*
X5401043Y-16751043D01*
X5401043Y-16779614D01*
X5586757Y-16608186D02*
X5558186Y-16593900D01*
X5543900Y-16579614D01*
X5529614Y-16551043D01*
X5529614Y-16536757D01*
X5543900Y-16508186D01*
X5558186Y-16493900D01*
X5586757Y-16479614D01*
X5643900Y-16479614D01*
X5672471Y-16493900D01*
X5686757Y-16508186D01*
X5701043Y-16536757D01*
X5701043Y-16551043D01*
X5686757Y-16579614D01*
X5672471Y-16593900D01*
X5643900Y-16608186D01*
X5586757Y-16608186D01*
X5558186Y-16622471D01*
X5543900Y-16636757D01*
X5529614Y-16665329D01*
X5529614Y-16722471D01*
X5543900Y-16751043D01*
X5558186Y-16765329D01*
X5586757Y-16779614D01*
X5643900Y-16779614D01*
X5672471Y-16765329D01*
X5686757Y-16751043D01*
X5701043Y-16722471D01*
X5701043Y-16665329D01*
X5686757Y-16636757D01*
X5672471Y-16622471D01*
X5643900Y-16608186D01*
X5886757Y-16479614D02*
X5915328Y-16479614D01*
X5943900Y-16493900D01*
X5958186Y-16508186D01*
X5972471Y-16536757D01*
X5986757Y-16593900D01*
X5986757Y-16665329D01*
X5972471Y-16722471D01*
X5958186Y-16751043D01*
X5943900Y-16765329D01*
X5915328Y-16779614D01*
X5886757Y-16779614D01*
X5858186Y-16765329D01*
X5843900Y-16751043D01*
X5829614Y-16722471D01*
X5815328Y-16665329D01*
X5815328Y-16593900D01*
X5829614Y-16536757D01*
X5843900Y-16508186D01*
X5858186Y-16493900D01*
X5886757Y-16479614D01*
X6115328Y-16779614D02*
X6115328Y-16579614D01*
X6115328Y-16608186D02*
X6129614Y-16593900D01*
X6158186Y-16579614D01*
X6201043Y-16579614D01*
X6229614Y-16593900D01*
X6243900Y-16622471D01*
X6243900Y-16779614D01*
X6243900Y-16622471D02*
X6258186Y-16593900D01*
X6286757Y-16579614D01*
X6329614Y-16579614D01*
X6358186Y-16593900D01*
X6372471Y-16622471D01*
X6372471Y-16779614D01*
X6515328Y-16779614D02*
X6515328Y-16579614D01*
X6515328Y-16608186D02*
X6529614Y-16593900D01*
X6558186Y-16579614D01*
X6601043Y-16579614D01*
X6629614Y-16593900D01*
X6643900Y-16622471D01*
X6643900Y-16779614D01*
X6643900Y-16622471D02*
X6658186Y-16593900D01*
X6686757Y-16579614D01*
X6729614Y-16579614D01*
X6758186Y-16593900D01*
X6772471Y-16622471D01*
X6772471Y-16779614D01*
X7358186Y-16465329D02*
X7101043Y-16851043D01*
X7743900Y-16479614D02*
X7772471Y-16479614D01*
X7801043Y-16493900D01*
X7815328Y-16508186D01*
X7829614Y-16536757D01*
X7843900Y-16593900D01*
X7843900Y-16665329D01*
X7829614Y-16722471D01*
X7815328Y-16751043D01*
X7801043Y-16765329D01*
X7772471Y-16779614D01*
X7743900Y-16779614D01*
X7715328Y-16765329D01*
X7701043Y-16751043D01*
X7686757Y-16722471D01*
X7672471Y-16665329D01*
X7672471Y-16593900D01*
X7686757Y-16536757D01*
X7701043Y-16508186D01*
X7715328Y-16493900D01*
X7743900Y-16479614D01*
X7972471Y-16751043D02*
X7986757Y-16765329D01*
X7972471Y-16779614D01*
X7958186Y-16765329D01*
X7972471Y-16751043D01*
X7972471Y-16779614D01*
X8172471Y-16479614D02*
X8201043Y-16479614D01*
X8229614Y-16493900D01*
X8243900Y-16508186D01*
X8258185Y-16536757D01*
X8272471Y-16593900D01*
X8272471Y-16665329D01*
X8258185Y-16722471D01*
X8243900Y-16751043D01*
X8229614Y-16765329D01*
X8201043Y-16779614D01*
X8172471Y-16779614D01*
X8143900Y-16765329D01*
X8129614Y-16751043D01*
X8115328Y-16722471D01*
X8101043Y-16665329D01*
X8101043Y-16593900D01*
X8115328Y-16536757D01*
X8129614Y-16508186D01*
X8143900Y-16493900D01*
X8172471Y-16479614D01*
X8372471Y-16479614D02*
X8558186Y-16479614D01*
X8458186Y-16593900D01*
X8501043Y-16593900D01*
X8529614Y-16608186D01*
X8543900Y-16622471D01*
X8558186Y-16651043D01*
X8558186Y-16722471D01*
X8543900Y-16751043D01*
X8529614Y-16765329D01*
X8501043Y-16779614D01*
X8415328Y-16779614D01*
X8386757Y-16765329D01*
X8372471Y-16751043D01*
X8843900Y-16779614D02*
X8672471Y-16779614D01*
X8758186Y-16779614D02*
X8758186Y-16479614D01*
X8729614Y-16522471D01*
X8701043Y-16551043D01*
X8672471Y-16565329D01*
X8958186Y-16479614D02*
X8958186Y-16536757D01*
X9072471Y-16479614D02*
X9072471Y-16536757D01*
X9515328Y-16893900D02*
X9501043Y-16879614D01*
X9472471Y-16836757D01*
X9458186Y-16808186D01*
X9443900Y-16765329D01*
X9429614Y-16693900D01*
X9429614Y-16636757D01*
X9443900Y-16565329D01*
X9458186Y-16522471D01*
X9472471Y-16493900D01*
X9501043Y-16451043D01*
X9515328Y-16436757D01*
X9615328Y-16508186D02*
X9629614Y-16493900D01*
X9658186Y-16479614D01*
X9729614Y-16479614D01*
X9758186Y-16493900D01*
X9772471Y-16508186D01*
X9786757Y-16536757D01*
X9786757Y-16565329D01*
X9772471Y-16608186D01*
X9601043Y-16779614D01*
X9786757Y-16779614D01*
X10143900Y-16779614D02*
X10143900Y-16479614D01*
X10272471Y-16779614D02*
X10272471Y-16622471D01*
X10258186Y-16593900D01*
X10229614Y-16579614D01*
X10186757Y-16579614D01*
X10158186Y-16593900D01*
X10143900Y-16608186D01*
X10458186Y-16779614D02*
X10429614Y-16765329D01*
X10415328Y-16751043D01*
X10401043Y-16722471D01*
X10401043Y-16636757D01*
X10415328Y-16608186D01*
X10429614Y-16593900D01*
X10458186Y-16579614D01*
X10501043Y-16579614D01*
X10529614Y-16593900D01*
X10543900Y-16608186D01*
X10558186Y-16636757D01*
X10558186Y-16722471D01*
X10543900Y-16751043D01*
X10529614Y-16765329D01*
X10501043Y-16779614D01*
X10458186Y-16779614D01*
X10729614Y-16779614D02*
X10701043Y-16765329D01*
X10686757Y-16736757D01*
X10686757Y-16479614D01*
X10958186Y-16765329D02*
X10929614Y-16779614D01*
X10872471Y-16779614D01*
X10843900Y-16765329D01*
X10829614Y-16736757D01*
X10829614Y-16622471D01*
X10843900Y-16593900D01*
X10872471Y-16579614D01*
X10929614Y-16579614D01*
X10958186Y-16593900D01*
X10972471Y-16622471D01*
X10972471Y-16651043D01*
X10829614Y-16679614D01*
X11086757Y-16765329D02*
X11115329Y-16779614D01*
X11172471Y-16779614D01*
X11201043Y-16765329D01*
X11215328Y-16736757D01*
X11215328Y-16722471D01*
X11201043Y-16693900D01*
X11172471Y-16679614D01*
X11129614Y-16679614D01*
X11101043Y-16665329D01*
X11086757Y-16636757D01*
X11086757Y-16622471D01*
X11101043Y-16593900D01*
X11129614Y-16579614D01*
X11172471Y-16579614D01*
X11201043Y-16593900D01*
X11315328Y-16893900D02*
X11329614Y-16879614D01*
X11358186Y-16836757D01*
X11372471Y-16808186D01*
X11386757Y-16765329D01*
X11401043Y-16693900D01*
X11401043Y-16636757D01*
X11386757Y-16565329D01*
X11372471Y-16522471D01*
X11358186Y-16493900D01*
X11329614Y-16451043D01*
X11315328Y-16436757D01*
X4829256Y-17075256D02*
X4829256Y-17004544D01*
X4758544Y-17004544D01*
X4758544Y-17075256D01*
X4829256Y-17075256D01*
X5272471Y-17175614D02*
X5101043Y-17175614D01*
X5186757Y-17175614D02*
X5186757Y-16875614D01*
X5158186Y-16918472D01*
X5129614Y-16947043D01*
X5101043Y-16961329D01*
X5401043Y-17147043D02*
X5415329Y-17161329D01*
X5401043Y-17175614D01*
X5386757Y-17161329D01*
X5401043Y-17147043D01*
X5401043Y-17175614D01*
X5601043Y-16875614D02*
X5629614Y-16875614D01*
X5658186Y-16889900D01*
X5672471Y-16904186D01*
X5686757Y-16932757D01*
X5701043Y-16989900D01*
X5701043Y-17061329D01*
X5686757Y-17118472D01*
X5672471Y-17147043D01*
X5658186Y-17161329D01*
X5629614Y-17175614D01*
X5601043Y-17175614D01*
X5572471Y-17161329D01*
X5558186Y-17147043D01*
X5543900Y-17118472D01*
X5529614Y-17061329D01*
X5529614Y-16989900D01*
X5543900Y-16932757D01*
X5558186Y-16904186D01*
X5572471Y-16889900D01*
X5601043Y-16875614D01*
X5886757Y-16875614D02*
X5915328Y-16875614D01*
X5943900Y-16889900D01*
X5958186Y-16904186D01*
X5972471Y-16932757D01*
X5986757Y-16989900D01*
X5986757Y-17061329D01*
X5972471Y-17118472D01*
X5958186Y-17147043D01*
X5943900Y-17161329D01*
X5915328Y-17175614D01*
X5886757Y-17175614D01*
X5858186Y-17161329D01*
X5843900Y-17147043D01*
X5829614Y-17118472D01*
X5815328Y-17061329D01*
X5815328Y-16989900D01*
X5829614Y-16932757D01*
X5843900Y-16904186D01*
X5858186Y-16889900D01*
X5886757Y-16875614D01*
X6115328Y-17175614D02*
X6115328Y-16975614D01*
X6115328Y-17004186D02*
X6129614Y-16989900D01*
X6158186Y-16975614D01*
X6201043Y-16975614D01*
X6229614Y-16989900D01*
X6243900Y-17018472D01*
X6243900Y-17175614D01*
X6243900Y-17018472D02*
X6258186Y-16989900D01*
X6286757Y-16975614D01*
X6329614Y-16975614D01*
X6358186Y-16989900D01*
X6372471Y-17018472D01*
X6372471Y-17175614D01*
X6515328Y-17175614D02*
X6515328Y-16975614D01*
X6515328Y-17004186D02*
X6529614Y-16989900D01*
X6558186Y-16975614D01*
X6601043Y-16975614D01*
X6629614Y-16989900D01*
X6643900Y-17018472D01*
X6643900Y-17175614D01*
X6643900Y-17018472D02*
X6658186Y-16989900D01*
X6686757Y-16975614D01*
X6729614Y-16975614D01*
X6758186Y-16989900D01*
X6772471Y-17018472D01*
X6772471Y-17175614D01*
X7358186Y-16861329D02*
X7101043Y-17247043D01*
X7743900Y-16875614D02*
X7772471Y-16875614D01*
X7801043Y-16889900D01*
X7815328Y-16904186D01*
X7829614Y-16932757D01*
X7843900Y-16989900D01*
X7843900Y-17061329D01*
X7829614Y-17118472D01*
X7815328Y-17147043D01*
X7801043Y-17161329D01*
X7772471Y-17175614D01*
X7743900Y-17175614D01*
X7715328Y-17161329D01*
X7701043Y-17147043D01*
X7686757Y-17118472D01*
X7672471Y-17061329D01*
X7672471Y-16989900D01*
X7686757Y-16932757D01*
X7701043Y-16904186D01*
X7715328Y-16889900D01*
X7743900Y-16875614D01*
X7972471Y-17147043D02*
X7986757Y-17161329D01*
X7972471Y-17175614D01*
X7958186Y-17161329D01*
X7972471Y-17147043D01*
X7972471Y-17175614D01*
X8172471Y-16875614D02*
X8201043Y-16875614D01*
X8229614Y-16889900D01*
X8243900Y-16904186D01*
X8258185Y-16932757D01*
X8272471Y-16989900D01*
X8272471Y-17061329D01*
X8258185Y-17118472D01*
X8243900Y-17147043D01*
X8229614Y-17161329D01*
X8201043Y-17175614D01*
X8172471Y-17175614D01*
X8143900Y-17161329D01*
X8129614Y-17147043D01*
X8115328Y-17118472D01*
X8101043Y-17061329D01*
X8101043Y-16989900D01*
X8115328Y-16932757D01*
X8129614Y-16904186D01*
X8143900Y-16889900D01*
X8172471Y-16875614D01*
X8372471Y-16875614D02*
X8558186Y-16875614D01*
X8458186Y-16989900D01*
X8501043Y-16989900D01*
X8529614Y-17004186D01*
X8543900Y-17018472D01*
X8558186Y-17047043D01*
X8558186Y-17118472D01*
X8543900Y-17147043D01*
X8529614Y-17161329D01*
X8501043Y-17175614D01*
X8415328Y-17175614D01*
X8386757Y-17161329D01*
X8372471Y-17147043D01*
X8701043Y-17175614D02*
X8758186Y-17175614D01*
X8786757Y-17161329D01*
X8801043Y-17147043D01*
X8829614Y-17104186D01*
X8843900Y-17047043D01*
X8843900Y-16932757D01*
X8829614Y-16904186D01*
X8815328Y-16889900D01*
X8786757Y-16875614D01*
X8729614Y-16875614D01*
X8701043Y-16889900D01*
X8686757Y-16904186D01*
X8672471Y-16932757D01*
X8672471Y-17004186D01*
X8686757Y-17032757D01*
X8701043Y-17047043D01*
X8729614Y-17061329D01*
X8786757Y-17061329D01*
X8815328Y-17047043D01*
X8829614Y-17032757D01*
X8843900Y-17004186D01*
X8958186Y-16875614D02*
X8958186Y-16932757D01*
X9072471Y-16875614D02*
X9072471Y-16932757D01*
X9515328Y-17289900D02*
X9501043Y-17275614D01*
X9472471Y-17232757D01*
X9458186Y-17204186D01*
X9443900Y-17161329D01*
X9429614Y-17089900D01*
X9429614Y-17032757D01*
X9443900Y-16961329D01*
X9458186Y-16918472D01*
X9472471Y-16889900D01*
X9501043Y-16847043D01*
X9515328Y-16832757D01*
X9758186Y-16975614D02*
X9758186Y-17175614D01*
X9686757Y-16861329D02*
X9615328Y-17075614D01*
X9801043Y-17075614D01*
X9972471Y-16875614D02*
X10001043Y-16875614D01*
X10029614Y-16889900D01*
X10043900Y-16904186D01*
X10058186Y-16932757D01*
X10072471Y-16989900D01*
X10072471Y-17061329D01*
X10058186Y-17118472D01*
X10043900Y-17147043D01*
X10029614Y-17161329D01*
X10001043Y-17175614D01*
X9972471Y-17175614D01*
X9943900Y-17161329D01*
X9929614Y-17147043D01*
X9915328Y-17118472D01*
X9901043Y-17061329D01*
X9901043Y-16989900D01*
X9915328Y-16932757D01*
X9929614Y-16904186D01*
X9943900Y-16889900D01*
X9972471Y-16875614D01*
X10429614Y-17175614D02*
X10429614Y-16875614D01*
X10558186Y-17175614D02*
X10558186Y-17018472D01*
X10543900Y-16989900D01*
X10515328Y-16975614D01*
X10472471Y-16975614D01*
X10443900Y-16989900D01*
X10429614Y-17004186D01*
X10743900Y-17175614D02*
X10715328Y-17161329D01*
X10701043Y-17147043D01*
X10686757Y-17118472D01*
X10686757Y-17032757D01*
X10701043Y-17004186D01*
X10715328Y-16989900D01*
X10743900Y-16975614D01*
X10786757Y-16975614D01*
X10815328Y-16989900D01*
X10829614Y-17004186D01*
X10843900Y-17032757D01*
X10843900Y-17118472D01*
X10829614Y-17147043D01*
X10815328Y-17161329D01*
X10786757Y-17175614D01*
X10743900Y-17175614D01*
X11015328Y-17175614D02*
X10986757Y-17161329D01*
X10972471Y-17132757D01*
X10972471Y-16875614D01*
X11243900Y-17161329D02*
X11215328Y-17175614D01*
X11158186Y-17175614D01*
X11129614Y-17161329D01*
X11115329Y-17132757D01*
X11115329Y-17018472D01*
X11129614Y-16989900D01*
X11158186Y-16975614D01*
X11215328Y-16975614D01*
X11243900Y-16989900D01*
X11258186Y-17018472D01*
X11258186Y-17047043D01*
X11115329Y-17075614D01*
X11372471Y-17161329D02*
X11401043Y-17175614D01*
X11458186Y-17175614D01*
X11486757Y-17161329D01*
X11501043Y-17132757D01*
X11501043Y-17118472D01*
X11486757Y-17089900D01*
X11458186Y-17075614D01*
X11415328Y-17075614D01*
X11386757Y-17061329D01*
X11372471Y-17032757D01*
X11372471Y-17018472D01*
X11386757Y-16989900D01*
X11415328Y-16975614D01*
X11458186Y-16975614D01*
X11486757Y-16989900D01*
X11601043Y-17289900D02*
X11615328Y-17275614D01*
X11643900Y-17232757D01*
X11658186Y-17204186D01*
X11672471Y-17161329D01*
X11686757Y-17089900D01*
X11686757Y-17032757D01*
X11672471Y-16961329D01*
X11658186Y-16918472D01*
X11643900Y-16889900D01*
X11615328Y-16847043D01*
X11601043Y-16832757D01*
X4793100Y-17486700D02*
X4843900Y-17435900D01*
X4793100Y-17385100D01*
X4742300Y-17435900D01*
X4793100Y-17486700D01*
X5272471Y-17571614D02*
X5101043Y-17571614D01*
X5186757Y-17571614D02*
X5186757Y-17271614D01*
X5158186Y-17314472D01*
X5129614Y-17343043D01*
X5101043Y-17357329D01*
X5401043Y-17543043D02*
X5415329Y-17557329D01*
X5401043Y-17571614D01*
X5386757Y-17557329D01*
X5401043Y-17543043D01*
X5401043Y-17571614D01*
X5601043Y-17271614D02*
X5629614Y-17271614D01*
X5658186Y-17285900D01*
X5672471Y-17300186D01*
X5686757Y-17328757D01*
X5701043Y-17385900D01*
X5701043Y-17457329D01*
X5686757Y-17514472D01*
X5672471Y-17543043D01*
X5658186Y-17557329D01*
X5629614Y-17571614D01*
X5601043Y-17571614D01*
X5572471Y-17557329D01*
X5558186Y-17543043D01*
X5543900Y-17514472D01*
X5529614Y-17457329D01*
X5529614Y-17385900D01*
X5543900Y-17328757D01*
X5558186Y-17300186D01*
X5572471Y-17285900D01*
X5601043Y-17271614D01*
X5815328Y-17300186D02*
X5829614Y-17285900D01*
X5858186Y-17271614D01*
X5929614Y-17271614D01*
X5958186Y-17285900D01*
X5972471Y-17300186D01*
X5986757Y-17328757D01*
X5986757Y-17357329D01*
X5972471Y-17400186D01*
X5801043Y-17571614D01*
X5986757Y-17571614D01*
X6115328Y-17571614D02*
X6115328Y-17371614D01*
X6115328Y-17400186D02*
X6129614Y-17385900D01*
X6158186Y-17371614D01*
X6201043Y-17371614D01*
X6229614Y-17385900D01*
X6243900Y-17414472D01*
X6243900Y-17571614D01*
X6243900Y-17414472D02*
X6258186Y-17385900D01*
X6286757Y-17371614D01*
X6329614Y-17371614D01*
X6358186Y-17385900D01*
X6372471Y-17414472D01*
X6372471Y-17571614D01*
X6515328Y-17571614D02*
X6515328Y-17371614D01*
X6515328Y-17400186D02*
X6529614Y-17385900D01*
X6558186Y-17371614D01*
X6601043Y-17371614D01*
X6629614Y-17385900D01*
X6643900Y-17414472D01*
X6643900Y-17571614D01*
X6643900Y-17414472D02*
X6658186Y-17385900D01*
X6686757Y-17371614D01*
X6729614Y-17371614D01*
X6758186Y-17385900D01*
X6772471Y-17414472D01*
X6772471Y-17571614D01*
X7358186Y-17257329D02*
X7101043Y-17643043D01*
X7743900Y-17271614D02*
X7772471Y-17271614D01*
X7801043Y-17285900D01*
X7815328Y-17300186D01*
X7829614Y-17328757D01*
X7843900Y-17385900D01*
X7843900Y-17457329D01*
X7829614Y-17514472D01*
X7815328Y-17543043D01*
X7801043Y-17557329D01*
X7772471Y-17571614D01*
X7743900Y-17571614D01*
X7715328Y-17557329D01*
X7701043Y-17543043D01*
X7686757Y-17514472D01*
X7672471Y-17457329D01*
X7672471Y-17385900D01*
X7686757Y-17328757D01*
X7701043Y-17300186D01*
X7715328Y-17285900D01*
X7743900Y-17271614D01*
X7972471Y-17543043D02*
X7986757Y-17557329D01*
X7972471Y-17571614D01*
X7958186Y-17557329D01*
X7972471Y-17543043D01*
X7972471Y-17571614D01*
X8172471Y-17271614D02*
X8201043Y-17271614D01*
X8229614Y-17285900D01*
X8243900Y-17300186D01*
X8258185Y-17328757D01*
X8272471Y-17385900D01*
X8272471Y-17457329D01*
X8258185Y-17514472D01*
X8243900Y-17543043D01*
X8229614Y-17557329D01*
X8201043Y-17571614D01*
X8172471Y-17571614D01*
X8143900Y-17557329D01*
X8129614Y-17543043D01*
X8115328Y-17514472D01*
X8101043Y-17457329D01*
X8101043Y-17385900D01*
X8115328Y-17328757D01*
X8129614Y-17300186D01*
X8143900Y-17285900D01*
X8172471Y-17271614D01*
X8529614Y-17371614D02*
X8529614Y-17571614D01*
X8458186Y-17257329D02*
X8386757Y-17471614D01*
X8572471Y-17471614D01*
X8743900Y-17271614D02*
X8772471Y-17271614D01*
X8801043Y-17285900D01*
X8815328Y-17300186D01*
X8829614Y-17328757D01*
X8843900Y-17385900D01*
X8843900Y-17457329D01*
X8829614Y-17514472D01*
X8815328Y-17543043D01*
X8801043Y-17557329D01*
X8772471Y-17571614D01*
X8743900Y-17571614D01*
X8715328Y-17557329D01*
X8701043Y-17543043D01*
X8686757Y-17514472D01*
X8672471Y-17457329D01*
X8672471Y-17385900D01*
X8686757Y-17328757D01*
X8701043Y-17300186D01*
X8715328Y-17285900D01*
X8743900Y-17271614D01*
X8958186Y-17271614D02*
X8958186Y-17328757D01*
X9072471Y-17271614D02*
X9072471Y-17328757D01*
X9515328Y-17685900D02*
X9501043Y-17671614D01*
X9472471Y-17628757D01*
X9458186Y-17600186D01*
X9443900Y-17557329D01*
X9429614Y-17485900D01*
X9429614Y-17428757D01*
X9443900Y-17357329D01*
X9458186Y-17314472D01*
X9472471Y-17285900D01*
X9501043Y-17243043D01*
X9515328Y-17228757D01*
X9786757Y-17571614D02*
X9615328Y-17571614D01*
X9701043Y-17571614D02*
X9701043Y-17271614D01*
X9672471Y-17314472D01*
X9643900Y-17343043D01*
X9615328Y-17357329D01*
X9972471Y-17271614D02*
X10001043Y-17271614D01*
X10029614Y-17285900D01*
X10043900Y-17300186D01*
X10058186Y-17328757D01*
X10072471Y-17385900D01*
X10072471Y-17457329D01*
X10058186Y-17514472D01*
X10043900Y-17543043D01*
X10029614Y-17557329D01*
X10001043Y-17571614D01*
X9972471Y-17571614D01*
X9943900Y-17557329D01*
X9929614Y-17543043D01*
X9915328Y-17514472D01*
X9901043Y-17457329D01*
X9901043Y-17385900D01*
X9915328Y-17328757D01*
X9929614Y-17300186D01*
X9943900Y-17285900D01*
X9972471Y-17271614D01*
X10429614Y-17571614D02*
X10429614Y-17271614D01*
X10558186Y-17571614D02*
X10558186Y-17414472D01*
X10543900Y-17385900D01*
X10515328Y-17371614D01*
X10472471Y-17371614D01*
X10443900Y-17385900D01*
X10429614Y-17400186D01*
X10743900Y-17571614D02*
X10715328Y-17557329D01*
X10701043Y-17543043D01*
X10686757Y-17514472D01*
X10686757Y-17428757D01*
X10701043Y-17400186D01*
X10715328Y-17385900D01*
X10743900Y-17371614D01*
X10786757Y-17371614D01*
X10815328Y-17385900D01*
X10829614Y-17400186D01*
X10843900Y-17428757D01*
X10843900Y-17514472D01*
X10829614Y-17543043D01*
X10815328Y-17557329D01*
X10786757Y-17571614D01*
X10743900Y-17571614D01*
X11015328Y-17571614D02*
X10986757Y-17557329D01*
X10972471Y-17528757D01*
X10972471Y-17271614D01*
X11243900Y-17557329D02*
X11215328Y-17571614D01*
X11158186Y-17571614D01*
X11129614Y-17557329D01*
X11115329Y-17528757D01*
X11115329Y-17414472D01*
X11129614Y-17385900D01*
X11158186Y-17371614D01*
X11215328Y-17371614D01*
X11243900Y-17385900D01*
X11258186Y-17414472D01*
X11258186Y-17443043D01*
X11115329Y-17471614D01*
X11372471Y-17557329D02*
X11401043Y-17571614D01*
X11458186Y-17571614D01*
X11486757Y-17557329D01*
X11501043Y-17528757D01*
X11501043Y-17514472D01*
X11486757Y-17485900D01*
X11458186Y-17471614D01*
X11415328Y-17471614D01*
X11386757Y-17457329D01*
X11372471Y-17428757D01*
X11372471Y-17414472D01*
X11386757Y-17385900D01*
X11415328Y-17371614D01*
X11458186Y-17371614D01*
X11486757Y-17385900D01*
X11601043Y-17685900D02*
X11615328Y-17671614D01*
X11643900Y-17628757D01*
X11658186Y-17600186D01*
X11672471Y-17557329D01*
X11686757Y-17485900D01*
X11686757Y-17428757D01*
X11672471Y-17357329D01*
X11658186Y-17314472D01*
X11643900Y-17285900D01*
X11615328Y-17243043D01*
X11601043Y-17228757D01*
X4713900Y-17766900D02*
X4843900Y-17896900D01*
X4843900Y-17766900D02*
X4713900Y-17896900D01*
X4843900Y-17831900D02*
G75*
G03X4843900Y-17831900I-65000J0D01*
G01*
X5272471Y-17967614D02*
X5101043Y-17967614D01*
X5186757Y-17967614D02*
X5186757Y-17667614D01*
X5158186Y-17710472D01*
X5129614Y-17739043D01*
X5101043Y-17753329D01*
X5401043Y-17939043D02*
X5415329Y-17953329D01*
X5401043Y-17967614D01*
X5386757Y-17953329D01*
X5401043Y-17939043D01*
X5401043Y-17967614D01*
X5515328Y-17667614D02*
X5701043Y-17667614D01*
X5601043Y-17781900D01*
X5643900Y-17781900D01*
X5672471Y-17796186D01*
X5686757Y-17810472D01*
X5701043Y-17839043D01*
X5701043Y-17910472D01*
X5686757Y-17939043D01*
X5672471Y-17953329D01*
X5643900Y-17967614D01*
X5558186Y-17967614D01*
X5529614Y-17953329D01*
X5515328Y-17939043D01*
X5886757Y-17667614D02*
X5915328Y-17667614D01*
X5943900Y-17681900D01*
X5958186Y-17696186D01*
X5972471Y-17724757D01*
X5986757Y-17781900D01*
X5986757Y-17853329D01*
X5972471Y-17910472D01*
X5958186Y-17939043D01*
X5943900Y-17953329D01*
X5915328Y-17967614D01*
X5886757Y-17967614D01*
X5858186Y-17953329D01*
X5843900Y-17939043D01*
X5829614Y-17910472D01*
X5815328Y-17853329D01*
X5815328Y-17781900D01*
X5829614Y-17724757D01*
X5843900Y-17696186D01*
X5858186Y-17681900D01*
X5886757Y-17667614D01*
X6115328Y-17967614D02*
X6115328Y-17767614D01*
X6115328Y-17796186D02*
X6129614Y-17781900D01*
X6158186Y-17767614D01*
X6201043Y-17767614D01*
X6229614Y-17781900D01*
X6243900Y-17810472D01*
X6243900Y-17967614D01*
X6243900Y-17810472D02*
X6258186Y-17781900D01*
X6286757Y-17767614D01*
X6329614Y-17767614D01*
X6358186Y-17781900D01*
X6372471Y-17810472D01*
X6372471Y-17967614D01*
X6515328Y-17967614D02*
X6515328Y-17767614D01*
X6515328Y-17796186D02*
X6529614Y-17781900D01*
X6558186Y-17767614D01*
X6601043Y-17767614D01*
X6629614Y-17781900D01*
X6643900Y-17810472D01*
X6643900Y-17967614D01*
X6643900Y-17810472D02*
X6658186Y-17781900D01*
X6686757Y-17767614D01*
X6729614Y-17767614D01*
X6758186Y-17781900D01*
X6772471Y-17810472D01*
X6772471Y-17967614D01*
X7358186Y-17653329D02*
X7101043Y-18039043D01*
X7743900Y-17667614D02*
X7772471Y-17667614D01*
X7801043Y-17681900D01*
X7815328Y-17696186D01*
X7829614Y-17724757D01*
X7843900Y-17781900D01*
X7843900Y-17853329D01*
X7829614Y-17910472D01*
X7815328Y-17939043D01*
X7801043Y-17953329D01*
X7772471Y-17967614D01*
X7743900Y-17967614D01*
X7715328Y-17953329D01*
X7701043Y-17939043D01*
X7686757Y-17910472D01*
X7672471Y-17853329D01*
X7672471Y-17781900D01*
X7686757Y-17724757D01*
X7701043Y-17696186D01*
X7715328Y-17681900D01*
X7743900Y-17667614D01*
X7972471Y-17939043D02*
X7986757Y-17953329D01*
X7972471Y-17967614D01*
X7958186Y-17953329D01*
X7972471Y-17939043D01*
X7972471Y-17967614D01*
X8172471Y-17667614D02*
X8201043Y-17667614D01*
X8229614Y-17681900D01*
X8243900Y-17696186D01*
X8258185Y-17724757D01*
X8272471Y-17781900D01*
X8272471Y-17853329D01*
X8258185Y-17910472D01*
X8243900Y-17939043D01*
X8229614Y-17953329D01*
X8201043Y-17967614D01*
X8172471Y-17967614D01*
X8143900Y-17953329D01*
X8129614Y-17939043D01*
X8115328Y-17910472D01*
X8101043Y-17853329D01*
X8101043Y-17781900D01*
X8115328Y-17724757D01*
X8129614Y-17696186D01*
X8143900Y-17681900D01*
X8172471Y-17667614D01*
X8543900Y-17667614D02*
X8401043Y-17667614D01*
X8386757Y-17810472D01*
X8401043Y-17796186D01*
X8429614Y-17781900D01*
X8501043Y-17781900D01*
X8529614Y-17796186D01*
X8543900Y-17810472D01*
X8558186Y-17839043D01*
X8558186Y-17910472D01*
X8543900Y-17939043D01*
X8529614Y-17953329D01*
X8501043Y-17967614D01*
X8429614Y-17967614D01*
X8401043Y-17953329D01*
X8386757Y-17939043D01*
X8843900Y-17967614D02*
X8672471Y-17967614D01*
X8758186Y-17967614D02*
X8758186Y-17667614D01*
X8729614Y-17710472D01*
X8701043Y-17739043D01*
X8672471Y-17753329D01*
X8958186Y-17667614D02*
X8958186Y-17724757D01*
X9072471Y-17667614D02*
X9072471Y-17724757D01*
X9515328Y-18081900D02*
X9501043Y-18067614D01*
X9472471Y-18024757D01*
X9458186Y-17996186D01*
X9443900Y-17953329D01*
X9429614Y-17881900D01*
X9429614Y-17824757D01*
X9443900Y-17753329D01*
X9458186Y-17710472D01*
X9472471Y-17681900D01*
X9501043Y-17639043D01*
X9515328Y-17624757D01*
X9772471Y-17667614D02*
X9629614Y-17667614D01*
X9615328Y-17810472D01*
X9629614Y-17796186D01*
X9658186Y-17781900D01*
X9729614Y-17781900D01*
X9758186Y-17796186D01*
X9772471Y-17810472D01*
X9786757Y-17839043D01*
X9786757Y-17910472D01*
X9772471Y-17939043D01*
X9758186Y-17953329D01*
X9729614Y-17967614D01*
X9658186Y-17967614D01*
X9629614Y-17953329D01*
X9615328Y-17939043D01*
X9972471Y-17667614D02*
X10001043Y-17667614D01*
X10029614Y-17681900D01*
X10043900Y-17696186D01*
X10058186Y-17724757D01*
X10072471Y-17781900D01*
X10072471Y-17853329D01*
X10058186Y-17910472D01*
X10043900Y-17939043D01*
X10029614Y-17953329D01*
X10001043Y-17967614D01*
X9972471Y-17967614D01*
X9943900Y-17953329D01*
X9929614Y-17939043D01*
X9915328Y-17910472D01*
X9901043Y-17853329D01*
X9901043Y-17781900D01*
X9915328Y-17724757D01*
X9929614Y-17696186D01*
X9943900Y-17681900D01*
X9972471Y-17667614D01*
X10429614Y-17967614D02*
X10429614Y-17667614D01*
X10558186Y-17967614D02*
X10558186Y-17810472D01*
X10543900Y-17781900D01*
X10515328Y-17767614D01*
X10472471Y-17767614D01*
X10443900Y-17781900D01*
X10429614Y-17796186D01*
X10743900Y-17967614D02*
X10715328Y-17953329D01*
X10701043Y-17939043D01*
X10686757Y-17910472D01*
X10686757Y-17824757D01*
X10701043Y-17796186D01*
X10715328Y-17781900D01*
X10743900Y-17767614D01*
X10786757Y-17767614D01*
X10815328Y-17781900D01*
X10829614Y-17796186D01*
X10843900Y-17824757D01*
X10843900Y-17910472D01*
X10829614Y-17939043D01*
X10815328Y-17953329D01*
X10786757Y-17967614D01*
X10743900Y-17967614D01*
X11015328Y-17967614D02*
X10986757Y-17953329D01*
X10972471Y-17924757D01*
X10972471Y-17667614D01*
X11243900Y-17953329D02*
X11215328Y-17967614D01*
X11158186Y-17967614D01*
X11129614Y-17953329D01*
X11115329Y-17924757D01*
X11115329Y-17810472D01*
X11129614Y-17781900D01*
X11158186Y-17767614D01*
X11215328Y-17767614D01*
X11243900Y-17781900D01*
X11258186Y-17810472D01*
X11258186Y-17839043D01*
X11115329Y-17867614D01*
X11372471Y-17953329D02*
X11401043Y-17967614D01*
X11458186Y-17967614D01*
X11486757Y-17953329D01*
X11501043Y-17924757D01*
X11501043Y-17910472D01*
X11486757Y-17881900D01*
X11458186Y-17867614D01*
X11415328Y-17867614D01*
X11386757Y-17853329D01*
X11372471Y-17824757D01*
X11372471Y-17810472D01*
X11386757Y-17781900D01*
X11415328Y-17767614D01*
X11458186Y-17767614D01*
X11486757Y-17781900D01*
X11601043Y-18081900D02*
X11615328Y-18067614D01*
X11643900Y-18024757D01*
X11658186Y-17996186D01*
X11672471Y-17953329D01*
X11686757Y-17881900D01*
X11686757Y-17824757D01*
X11672471Y-17753329D01*
X11658186Y-17710472D01*
X11643900Y-17681900D01*
X11615328Y-17639043D01*
X11601043Y-17624757D01*
M02*
